<ttFont>
<head>
        <!-- Most of this table will be recalculated by the compiler -->
        <tableVersion value="1.0"/>
        <fontRevision value="1.002"/>
        <checkSumAdjustment value="0x195d4c34"/>
        <magicNumber value="0x5f0f3cf5"/>
        <flags value="00000000 00000011"/>
        <unitsPerEm value="1000"/>
        <created value="Thu Jan 14 16:31:01 2016"/>
        <modified value="Thu Jan 14 21:31:01 2016"/>
        <xMin value="-1562"/>
        <yMin value="-371"/>
        <xMax value="717"/>
        <yMax value="1130"/>
        <macStyle value="00000000 00000010"/>
        <lowestRecPPEM value="3"/>
        <fontDirectionHint value="2"/>
        <indexToLocFormat value="0"/>
        <glyphDataFormat value="0"/>
    </head>
                    <CharString index="0">
                        rmoveto
-99 callsubr
-164 142 -90 266 136 vhcurveto
-131 381 -78 callgsubr
                    </CharString>
                    <CharString index="1">
                        rmoveto
-169 -121 -204 -208 -157 74 -75 106 169 121 203 208 157 -74 76 -106 hvcurveto
-99 -574 rmoveto
-65 -42 54 113 166 80 171 115 65 42 -54 -113 -166 -80 -171 -115 hvcurveto
endchar
                    </CharString>
                    <CharString index="2">
                        rmoveto
-34 callgsubr
rlineto
-158 -30 67 -76 129 hhcurveto
117 82 69 147 28 hvcurveto
82 418 61 callgsubr
-82 -420 rlineto
-57 callgsubr
endchar
                    </CharString>
                    <CharString index="3">
                        -106 callgsubr
endchar
                    </CharString>
                    <CharString index="4">
                        rmoveto
42 -41 38 -42 34 vhcurveto
35 18 44 21 54 25 -19 36 rcurveline
-60 -27 -48 -24 -40 -21 rrcurveto
-31 25 -24 24 22 vvcurveto
31 39 25 121 -28 82 callsubr
rlineto
-158 24 -82 -57 -61 vvcurveto
return
                    </CharString>
                    <CharString index="5">
                        rmoveto
-99 callgsubr
367 hlineto
endchar
                    </CharString>
                    <CharString index="6">
                        rmoveto
88 69 57 84 103 -122 41 -106 -78 hvcurveto
-56 callgsubr
-79 callgsubr
                    </CharString>
                    <CharString index="7">
                        rmoveto
-36 -28 29 69 137 79 135 98 23 35 -5 -11 36 hvcurveto
-15 -76 -27 -137 -10 -51 rrcurveto
-49 -49 -64 -41 -42 hhcurveto
return
                    </CharString>
                    <CharString index="8">
                        -10 41 rlineto
-227 -75 -95 33 129 vvcurveto
1 vlineto
230 17 129 69 114 vvcurveto
72 -53 45 -86 -169 -127 -173 -155 return
                    </CharString>
                    <CharString index="9">
                        -89 callsubr
-12 -103 39 -41 146 73 callgsubr
                    </CharString>
                    <CharString index="10">
                        rmoveto
-100 callgsubr
return
                    </CharString>
                    <CharString index="11">
                        rmoveto
54 42 -139 150 rlineto
-4 hlineto
-205 -147 35 -41 158 111 rlineto
return
                    </CharString>
                    <CharString index="12">
                        -104 callgsubr
hintmask 10111100
32 callsubr
hintmask 11011100
-98 callsubr
                    </CharString>
                    <CharString index="13">
                        rmoveto
-88 callsubr
376 hlineto
15 65 rlineto
endchar
                    </CharString>
                    <CharString index="14">
                        -80 callsubr
-101 -146 -67 callgsubr
return
                    </CharString>
                    <CharString index="15">
                        rmoveto
-96 callgsubr
return
                    </CharString>
                    <CharString index="16">
                        rmoveto
-63 callsubr
-62 callgsubr
return
                    </CharString>
                    <CharString index="17">
                        rmoveto
hintmask 00111110
-65 callgsubr
hintmask 01011110
-85 callsubr
hintmask 10011110
-14 callgsubr
hintmask 00111110
-84 callgsubr
                    </CharString>
                    <CharString index="18">
                        14 -51 -47 7 -42 hhcurveto
-177 -121 -174 -183 -103 44 -50 60 56 71 47 58 59 hvcurveto
return
                    </CharString>
                    <CharString index="19">
                        95 490 72 callgsubr
hlineto
12 65 rlineto
-375 -6 callsubr
150 hlineto
-95 -490 rlineto
-147 -6 callsubr
return
                    </CharString>
                    <CharString index="20">
                        -31 -137 -30 -117 -36 -137 rrcurveto
-4 hlineto
-38 268 rlineto
-49 hlineto
-140 -267 rlineto
-3 hlineto
17 133 14 118 22 139 rrcurveto
-79 hlineto
-25 -183 -16 -189 -4 -117 rrcurveto
76 hlineto
141 264 rlineto
endchar
                    </CharString>
                    <CharString index="21">
                        -64 callgsubr
hintmask 11100000
-73 callgsubr
                    </CharString>
                    <CharString index="22">
                        -104 -207 -101 -208 -95 -207 rrcurveto
82 hlineto
28 63 29 72 callsubr
rrcurveto
211 hlineto
return
                    </CharString>
                    <CharString index="23">
                        -144 -57 rmoveto
-47 -36 20 34 21 14 23 78 45 hvcurveto
39 -32 37 -29 -29 vvcurveto
-29 -35 -24 -50 vhcurveto
endchar
                    </CharString>
                    <CharString index="24">
                        rmoveto
-72 callgsubr
-44 callgsubr
return
                    </CharString>
                    <CharString index="25">
                        16 53 rlineto
-53 hlineto
26 134 -60 -5 -25 -129 rlineto
-146 hlineto
51 73 37 69 40 120 -67 3 rcurveline
return
                    </CharString>
                    <CharString index="26">
                        211 -178 rmoveto
25 50 -25 70 130 vvcurveto
13 1 16 1 17 vhcurveto
52 101 45 124 35 vvcurveto
15 -32 13 -20 -7 -9 -9 -16 -10 vhcurveto
16 -34 -34 8 -36 hhcurveto
-165 -118 -158 -165 -103 51 -51 68 65 63 46 61 49 hvcurveto
return
                    </CharString>
                    <CharString index="27">
                        457 425 -97 callsubr
return
                    </CharString>
                    <CharString index="28">
                        -33 callsubr
-25 callsubr
-53 callgsubr
                    </CharString>
                    <CharString index="29">
                        rmoveto
19 callgsubr
-209 143 -79 244 87 hvcurveto
8 73 rlineto
-71 callsubr
endchar
                    </CharString>
                    <CharString index="30">
                        -134 -1 rmoveto
40 132 -89 -41 callsubr
return
                    </CharString>
                    <CharString index="31">
                        rmoveto
-24 callgsubr
-163 136 -89 253 123 hvcurveto
-10 42 rlineto
-43 callsubr
endchar
                    </CharString>
                    <CharString index="32">
                        -5 callsubr
-64 -29 -74 -20 -61 -7 rlinecurve
-66 callsubr
16 callsubr
endchar
                    </CharString>
                    <CharString index="33">
                        rmoveto
61 51 75 76 43 53 -76 41 rcurveline
-33 -56 -57 -84 -47 -54 rrcurveto
244 -27 rmoveto
61 50 73 75 43 54 -78 37 rcurveline
-32 -57 -55 -78 -47 -54 rrcurveto
return
                    </CharString>
                    <CharString index="34">
                        -4 -27 rlineto
123 -24 44 -31 -31 vvcurveto
-33 -45 -34 -183 18 vhcurveto
return
                    </CharString>
                    <CharString index="35">
                        rmoveto
45 callsubr
hintmask 11000000
-69 callgsubr
hintmask 10100000
-35 callsubr
endchar
                    </CharString>
                    <CharString index="36">
                        -206 -76 -108 48 170 vvcurveto
156 92 168 123 71 11 -54 -106 -2 vhcurveto
76 1 rlineto
152 7 -33 79 -114 hhcurveto
return
                    </CharString>
                    <CharString index="37">
                        rmoveto
166 78 167 112 35 29 -15 -32 19 vhcurveto
-266 -359 rlineto
-5 21 -2 24 28 vvcurveto
110 -175 rmoveto
-37 -28 16 32 -19 hvcurveto
267 361 rlineto
5 -22 2 -25 -28 vvcurveto
-167 -77 -167 -113 vhcurveto
-12 -69 rmoveto
167 118 199 206 hvcurveto
hintmask 10011100
60 -10 49 -18 38 vhcurveto
65 86 rlineto
hintmask 01101100
-47 32 -52 -70 rlineto
31 -31 -40 15 -48 hhcurveto
-166 -119 -198 -207 -60 10 -48 18 -37 hvcurveto
-66 -88 rlineto
hintmask 10101100
48 -32 52 70 rlineto
-31 31 40 -15 48 hhcurveto
endchar
                    </CharString>
                    <CharString index="38">
                        rmoveto
-15 40 -152 -73 -80 4 -11 126 rlinecurve
232 166 96 155 119 vvcurveto
66 -35 38 -59 return
                    </CharString>
                    <CharString index="39">
                        723 -107 callgsubr
return
                    </CharString>
                    <CharString index="40">
                        rmoveto
127 70 112 102 34 27 -12 -23 20 vhcurveto
-243 -273 rlineto
-7 20 -3 23 26 vvcurveto
114 -146 rmoveto
-33 -26 11 21 -19 hvcurveto
241 272 rlineto
6 -19 3 -22 -24 vvcurveto
-129 -71 -110 -101 vhcurveto
-13 -64 rmoveto
-31 callgsubr
hvcurveto
hintmask 10011100
47 -9 39 -18 31 vhcurveto
64 70 rlineto
hintmask 01101100
-45 34 -54 -60 rlineto
26 -31 -40 13 -47 hhcurveto
-31 callsubr
-48 10 -40 18 -32 hvcurveto
-64 -69 rlineto
hintmask 10101100
45 -34 55 61 rlineto
-24 30 39 -13 46 hhcurveto
endchar
                    </CharString>
                    <CharString index="41">
                        4 14 2 13 12 vvcurveto
28 -15 16 -23 -48 -50 -55 -41 -24 19 -15 30 -7 vhcurveto
-29 -63 -43 -60 -61 -73 31 -29 rcurveline
65 69 59 81 34 70 47 1 56 10 55 16 return
                    </CharString>
                    <CharString index="42">
                        -67 callgsubr
276 -444 -103 callsubr
return
                    </CharString>
                    <CharString index="43">
                        77 hlineto
hintmask 10010100
-12 callgsubr
hintmask 01001100
-12 callsubr
hintmask 01100100
92 489 rlineto
5 hlineto
return
                    </CharString>
                    <CharString index="44">
                        205 146 -36 42 -157 -112 return
                    </CharString>
                    <CharString index="45">
                        rmoveto
67 117 80 119 95 111 11 53 rcurveline
-290 hlineto
-13 -55 rlineto
223 hlineto
1 -3 return
                    </CharString>
                    <CharString index="46">
                        -56 callsubr
-191 -704 -95 callsubr
                    </CharString>
                    <CharString index="47">
                        -103 callsubr
hintmask 11010110
5 callsubr
hintmask 10111010
-42 callgsubr
hintmask 10110110
20 callsubr
hintmask 10111010
-84 callsubr
                    </CharString>
                    <CharString index="48">
                        111 -16 -53 60 -103 hhcurveto
-127 -90 -87 -95 hvcurveto
-145 255 -64 -102 vvcurveto
-61 -83 -47 -250 64 vhcurveto
return
                    </CharString>
                    <CharString index="49">
                        -59 callgsubr
hintmask 11101000
-42 callgsubr
hintmask 11011000
20 callsubr
hintmask 11101000
-84 callsubr
                    </CharString>
                    <CharString index="50">
                        39 203 rlineto
hintmask 11010000
-8 callgsubr
hintmask 10110000
-21 callgsubr
                    </CharString>
                    <CharString index="51">
                        rmoveto
-81 -59 -50 -61 -55 51 -44 74 81 59 52 60 54 -51 44 -74 hvcurveto
return
                    </CharString>
                    <CharString index="52">
                        -5 69 -43 -21 285 58 285 -20 hstemhm
441 81 hintmask 10111000
55 callsubr
-53 -275 rlineto
-71 hlineto
-11 -58 rlineto
70 hlineto
hintmask 01111000
-55 -285 rlineto
hintmask 10111000
17 callgsubr
-214 -99 rmoveto
14 58 rlineto
-132 hlineto
42 214 86 callgsubr
26 callgsubr
43 221 rlineto
endchar
                    </CharString>
                    <CharString index="53">
                        467 537 -91 callgsubr
rlineto
return
                    </CharString>
                    <CharString index="54">
                        rmoveto
hintmask 10001100
251 60 82 74 72 vvcurveto
hintmask 01001100
62 -67 54 40 vvcurveto
hintmask 01100100
32 36 30 128 7 vhcurveto
11 57 rlineto
hintmask 01010100
-93 10 -41 25 34 54 120 35 87 vvcurveto
65 -71 51 -185 82 vhcurveto
-33 -60 rlineto
146 -63 64 -42 -47 -66 -117 -36 -73 vvcurveto
-33 23 -32 68 -20 vhcurveto
hintmask 01100100
-92 -22 -36 -47 -41 vvcurveto
hintmask 10001100
-49 65 -60 -44 vvcurveto
-50 -79 -40 -194 -38 vhcurveto
endchar
                    </CharString>
                    <CharString index="55">
                        -4 0 -5 -4 vvcurveto
-22 -15 -33 -21 -9 -6 21 -36 rcurveline
6 4 22 14 20 12 return
                    </CharString>
                    <CharString index="56">
                        18 -21 24 -39 callgsubr
return
                    </CharString>
                    <CharString index="57">
                        54 232.5 122.5 return
                    </CharString>
                    <CharString index="58">
                        -19 callgsubr
hintmask 10100100
-27 callgsubr
hintmask 01010100
-43 callgsubr
hintmask 10100100
-52 callgsubr
hintmask 10011000
15 callgsubr
                    </CharString>
                    <CharString index="59">
                        rmoveto
-44 -33 32 69 115 73 124 100 27 36 -9 -20 39 hvcurveto
-23 -58 -22 -78 -9 -71 rrcurveto
-67 -44 -52 -37 -48 hhcurveto
return
                    </CharString>
                    <CharString index="60">
                        132 -130 -18 callsubr
hstemhm
return
                    </CharString>
                    <CharString index="61">
                        rmoveto
9 hlineto
-60 -309 rlineto
-105 hlineto
52 103 52 103 52 103 rrcurveto
-98 -552 rmoveto
236 hlineto
18 68 rlineto
-170 hlineto
43 217 rlineto
138 hlineto
11 57 rlineto
-138 hlineto
41 210 rlineto
166 hlineto
13 68 rlineto
-294 hlineto
-110 -207 -109 -208 -107 -205 rrcurveto
82 hlineto
31 61 30 61 31 61 rrcurveto
123 hlineto
endchar
                    </CharString>
                    <CharString index="62">
                        13 71 -321 -1 411 481 12 69 rlineto
-403 hlineto
-14 -71 314 1 -414 -481 -12 -69 rlineto
endchar
                    </CharString>
                    <CharString index="63">
                        -36 -117 -36 -71 -52 -87 -5 -43 rcurveline
204 hlineto
return
                    </CharString>
                    <CharString index="64">
                        -209 -66 -92 38 128 vvcurveto
130 88 115 108 53 23 -26 -74 1 vhcurveto
return
                    </CharString>
                    <CharString index="65">
                        71 363 rlineto
-76 hlineto
-62 -319 rlineto
return
                    </CharString>
                    <CharString index="66">
                        -1 -32 -132 rlineto
return
                    </CharString>
                    <CharString index="67">
                        -20 callsubr
hintmask 10110000
-87 callsubr
                    </CharString>
                    <CharString index="68">
                        -17 207 -20 206 -22 206 return
                    </CharString>
                    <CharString index="69">
                        311 -66 121 96 101 -36 callgsubr
return
                    </CharString>
                    <CharString index="70">
                        -18 -114 -26 callgsubr
                    </CharString>
                    <CharString index="71">
                        rmoveto
-34 callsubr
return
                    </CharString>
                    <CharString index="72">
                        -28 callsubr
271 -14 73 73 78 vvcurveto
return
                    </CharString>
                    <CharString index="73">
                        -9 40 -89 -36 -5 17 14 69 rlinecurve
return
                    </CharString>
                    <CharString index="74">
                        rmoveto
206 55 72 115 107 vvcurveto
94 -62 46 -80 -87 -69 -58 -84 return
                    </CharString>
                    <CharString index="75">
                        15 70 rlineto
-304 hlineto
106 550 rlineto
-82 -30 callgsubr
return
                    </CharString>
                    <CharString index="76">
                        -149 -114 -142 -172 return
                    </CharString>
                    <CharString index="77">
                        -16 callgsubr
-101 -146 -67 callgsubr
return
                    </CharString>
                    <CharString index="78">
                        88 12 -156 260 rlineto
117 57 70 67 91 vvcurveto
99 -94 72 -258 -34 vhcurveto
return
                    </CharString>
                    <CharString index="79">
                        44 -75 77 -65 -54 vvcurveto
-47 -49 -31 -216 18 vhcurveto
-2 -72 rlineto
return
                    </CharString>
                    <CharString index="80">
                        -11 74 -72 68 431 -20 23 -20 return
                    </CharString>
                    <CharString index="81">
                        -73 callsubr
78 callgsubr
return
                    </CharString>
                    <CharString index="82">
                        -104 123 -40 105 79 vhcurveto
-21 -61 -58 -63 -143 -33 rrcurveto
return
                    </CharString>
                    <CharString index="83">
                        80.5 -47 callsubr
return
                    </CharString>
                    <CharString index="84">
                        -120 -620 rlineto
return
                    </CharString>
                    <CharString index="85">
                        rmoveto
-39 -30 35 74 132 79 132 97 23 36 -6 -11 38 hvcurveto
-53 -270 rlineto
-48 -46 -61 -38 -44 hhcurveto
return
                    </CharString>
                    <CharString index="86">
                        0 141 -120 -21 489 132 -1 82 callgsubr
return
                    </CharString>
                    <CharString index="87">
                        74 hlineto
63 180 46 147 44 162 rrcurveto
-82 hlineto
return
                    </CharString>
                    <CharString index="88">
                        -10 68 127 46 206 65 return
                    </CharString>
                    <CharString index="89">
                        132.5 return
                    </CharString>
                    <CharString index="90">
                        4 -27 -24 2 -22 hhcurveto
-174 -119 -169 -180 -108 47 -54 62 55 70 44 56 56 hvcurveto
return
                    </CharString>
                    <CharString index="91">
                        -27 callsubr
10 callsubr
hintmask 01011100
return
                    </CharString>
                    <CharString index="92">
                        57 67 170 99 vvcurveto
52 -23 41 -63 -61 return
                    </CharString>
                    <CharString index="93">
                        225 -22 73 70 64 vvcurveto
return
                    </CharString>
                    <CharString index="94">
                        rmoveto
268 181 106 153 167 vvcurveto
123 -61 133 -147 162 vhcurveto
-61 -45 rlineto
138 -145 55 -118 -111 vvcurveto
-147 -85 -134 -255 -165 vhcurveto
endchar
                    </CharString>
                    <CharString index="95">
                        -136 480 -85 -2 -120 -619 94 callgsubr
return
                    </CharString>
                    <CharString index="96">
                        -51 callsubr
46 callsubr
return
                    </CharString>
                    <CharString index="97">
                        -22 callsubr
hintmask 01011111
23 callgsubr
return
                    </CharString>
                    <CharString index="98">
                        rmoveto
50 callsubr
13 70 rlineto
-465 hlineto
-13 -70 rlineto
50 callsubr
-107 -550 rlineto
81 hlineto
return
                    </CharString>
                    <CharString index="99">
                        21 callgsubr
-1 callsubr
return
                    </CharString>
                    <CharString index="100">
                        65 32 31 39 33 hhcurveto
34 22 -37 -95 -6 hvcurveto
return
                    </CharString>
                    <CharString index="101">
                        hlineto
-13 -65 rlineto
return
                    </CharString>
                    <CharString index="102">
                        rmoveto
-7 42 -150 -49 -30 30 174 424 rlinecurve
-37 21 return
                    </CharString>
                    <CharString index="103">
                        rlineto
hintmask 10101111
-17 callsubr
hintmask 01011111
-10 -99 -26 callgsubr
                    </CharString>
                    <CharString index="104">
                        -11 -78 232 -12 102 39 31 62 rlinecurve
endchar
                    </CharString>
                    <CharString index="105">
                        -220 50 191 -21 22 -21 139 53 return
                    </CharString>
                    <CharString index="106">
                        hstem
60 84 302 84 vstem
return
                    </CharString>
                    <CharString index="107">
                        hstem
54 79 284 80 vstem
return
                    </CharString>
                    <CharString index="108">
                        77 callgsubr
57 callsubr
hintmask 11010000
return
                    </CharString>
                    <CharString index="109">
                        -171 72 -72 78 120 71 393 -20 28 -20 return
                    </CharString>
                    <CharString index="110">
                        0 70.5 479 70.5 return
                    </CharString>
                    <CharString index="111">
                        -18 callgsubr
hstem
58 return
                    </CharString>
                    <CharString index="112">
                        -34 28 -31 34 -29 vhcurveto
return
                    </CharString>
                    <CharString index="113">
                        26 callsubr
132 hstem
return
                    </CharString>
                    <CharString index="114">
                        -66 57 -22 120 74 vhcurveto
return
                    </CharString>
                    <CharString index="115">
                        89 12 -177 195 72 callgsubr
78 56 75 65 vvcurveto
49 -33 33 -58 -63 -80 -40 -78 -77 vhcurveto
62 320 -78 -6 rlineto
return
                    </CharString>
                    <CharString index="116">
                        -10 68 -37 -21 428 73 -8 -20 return
                    </CharString>
                    <CharString index="117">
                        81 callsubr
191 78 return
                    </CharString>
                    <CharString index="118">
                        374 67 0 -20 return
                    </CharString>
                    <CharString index="119">
                        rmoveto
-20 callsubr
return
                    </CharString>
                    <CharString index="120">
                        rmoveto
26 12 -17 -30 -61 -53 -75 -106 -19 hvcurveto
102 18 48 100 55 hhcurveto
-298 -370 rmoveto
-23 -12 26 52 hvcurveto
return
                    </CharString>
                    <CharString index="121">
                        237 -14 109 40 31 62 rrcurveto
endchar
                    </CharString>
                    <CharString index="122">
                        rmoveto
-311 hlineto
-12 -64 rlineto
233 hlineto
-144 -745 rlineto
-233 hlineto
-13 -64 rlineto
310 hlineto
endchar
                    </CharString>
                    <CharString index="123">
                        -171 -398 71 -73 216 96 rrcurveto
return
                    </CharString>
                    <CharString index="124">
                        56 140 -20 47 -20 142 54 hstemhm
return
                    </CharString>
                    <CharString index="125">
                        31 callsubr
552 68 hstemhm
return
                    </CharString>
                    <CharString index="126">
                        -20 100.5 return
                    </CharString>
                    <CharString index="127">
                        91 65 48 59 hvcurveto
return
                    </CharString>
                    <CharString index="128">
                        155 -15 13 62 -154 16 33 158 -75 8 -32 -158 -157 16 -13 -64 157 -16 return
                    </CharString>
                    <CharString index="129">
                        -9 63 443 -20 hstem
128 136 32 80 vstem
return
                    </CharString>
                    <CharString index="130">
                        18 callsubr
439 81 return
                    </CharString>
                    <CharString index="131">
                        rmoveto
36 callgsubr
36 callsubr
return
                    </CharString>
                    <CharString index="132">
                        22 -34 -36 12 -37 hhcurveto
-130 -101 -189 -184 -88 29 -42 48 50 47 38 51 42 hvcurveto
return
                    </CharString>
                    <CharString index="133">
                        81.5 return
                    </CharString>
                    <CharString index="134">
                        -14 46 callgsubr
return
                    </CharString>
                    <CharString index="135">
                        rmoveto
211 218 17 81 -131 217 -65 -41 133 -213 -215 -213 rlineto
return
                    </CharString>
                    <CharString index="136">
                        38 callgsubr
-41 17 33 vvcurveto
return
                    </CharString>
                    <CharString index="137">
                        rmoveto
23 116 rlineto
-110 hlineto
-23 -116 rlineto
return
                    </CharString>
                    <CharString index="138">
                        15 -21 27 64 callgsubr
return
                    </CharString>
                    <CharString index="139">
                        69 352 rlineto
return
                    </CharString>
                    <CharString index="140">
                        -13 -66 rlineto
return
                    </CharString>
                    <CharString index="141">
                        rmoveto
42 callsubr
                    </CharString>
                    <CharString index="142">
                        hmoveto
26 119 rlineto
-96 hlineto
-26 -119 rlineto
return
                    </CharString>
                    <CharString index="143">
                        0 -9 -7 -7 -9 -9 -7 6 41 callgsubr
return
                    </CharString>
                    <CharString index="144">
                        10 callsubr
hintmask 01011110
return
                    </CharString>
                    <CharString index="145">
                        hstemhm
60 5 callgsubr
return
                    </CharString>
                    <CharString index="146">
                        hstem
172 80 vstem
return
                    </CharString>
                    <CharString index="147">
                        55 287 57 hstem
return
                    </CharString>
                    <CharString index="148">
                        42 -13 rcurveline
hintmask 10011110
-7 callsubr
endchar
                    </CharString>
                    <CharString index="149">
                        -32 callsubr
endchar
                    </CharString>
                    <CharString index="150">
                        45 hstem
43 49 381 49 vstem
43 252 rmoveto
-154 86 -91 118 return
                    </CharString>
                    <CharString index="151">
                        27 callgsubr
hstem
36 493 vstem
return
                    </CharString>
                    <CharString index="152">
                        83 -105 87 -31 78 vhcurveto
return
                    </CharString>
                    <CharString index="153">
                        hstemhm
383 87 return
                    </CharString>
                    <CharString index="154">
                        -11 64 -33 -21 439 64 -13 -20 hstemhm
54 78 286 79 hintmask 10101100
return
                    </CharString>
                    <CharString index="155">
                        hintmask 000000000000000010000010000000000000000000000000
return
                    </CharString>
                    <CharString index="156">
                        -11 69 -54 54 503 72 return
                    </CharString>
                    <CharString index="157">
                        192 hlineto
return
                    </CharString>
                    <CharString index="158">
                        -10 37 rlineto
-104 -39 -41 18 33 vvcurveto
34 53 42 132 43 vhcurveto
return
                    </CharString>
                    <CharString index="159">
                        -211 55 171 -21 137 54 return
                    </CharString>
                    <CharString index="160">
                        hstem
71 82 vstem
return
                    </CharString>
                    <CharString index="161">
                        217 209 -49 50 -212 -213 -20 -82 rlineto
endchar
                    </CharString>
                    <CharString index="162">
                        522 384 18 callgsubr
return
                    </CharString>
                    <CharString index="163">
                        hstemhm
337 81 -16 83 return
                    </CharString>
                    <CharString index="164">
                        hstemhm
67 77 -77 513 return
                    </CharString>
                    <CharString index="165">
                        -121 -620 rlineto
return
                    </CharString>
                    <CharString index="166">
                        0 70 550 -20 return
                    </CharString>
                    <CharString index="167">
                        61 178 59 return
                    </CharString>
                    <CharString index="168">
                        -5 69 -43 -21 628 -20 hstemhm
441 81 hintmask 10110000
return
                    </CharString>
                    <CharString index="169">
                        31 callsubr
423 72 202 -20 hstemhm
return
                    </CharString>
                    <CharString index="170">
                        10 hlineto
0 6 -1 3 -4 -3 -2 -2 41 callgsubr
return
                    </CharString>
                    <CharString index="171">
                        rmoveto
57 39 46 100 57 hvcurveto
-44 24 rlineto
-59 -37 return
                    </CharString>
                    <CharString index="172">
                        -6 2 -3 5 4 2 2 4 1 vhcurveto
5 hlineto
return
                    </CharString>
                    <CharString index="173">
                        52 90 17 callsubr
return
                    </CharString>
                    <CharString index="174">
                        94 201 rlineto
2 hlineto
-50 -255 rlineto
52 hlineto
return
                    </CharString>
                    <CharString index="175">
                        rmoveto
-399 hlineto
-12 -67 71 callgsubr
                    </CharString>
                    <CharString index="176">
                        hstem
65 81 295 76 vstem
return
                    </CharString>
                    <CharString index="177">
                        55 150 -20 157 54 return
                    </CharString>
                    <CharString index="178">
                        rmoveto
-10 37 rlineto
return
                    </CharString>
                    <CharString index="179">
                        63 29 63 return
                    </CharString>
                    <CharString index="180">
                        87 callgsubr
165 66 -38 -21 432 74 return
                    </CharString>
                    <CharString index="181">
                        -10 67 377 67 return
                    </CharString>
                    <CharString index="182">
                        43 156 50 hstem
return
                    </CharString>
                    <CharString index="183">
                        64 745 64 hstem
return
                    </CharString>
                    <CharString index="184">
                        124 rlinecurve
-108 return
                    </CharString>
                    <CharString index="185">
                        hstemhm
50 79 return
                    </CharString>
                    <CharString index="186">
                        15 64 callgsubr
26 -21 615 -20 hstemhm
return
                    </CharString>
                    <CharString index="187">
                        22 -95 84 -35 159 105 rrcurveto
endchar
                    </CharString>
                    <CharString index="188">
                        hstemhm
75 80 return
                    </CharString>
                    <CharString index="189">
                        vhcurveto
21 60 return
                    </CharString>
                    <CharString index="190">
                        80 15 73 -47 75 -35 73 hintmask 10101000
return
                    </CharString>
                    <CharString index="191">
                        69 -77 104 161 122 198 return
                    </CharString>
                    <CharString index="192">
                        hstemhm
33 79 131 74 166 73 return
                    </CharString>
                    <CharString index="193">
                        -20 22 -20 return
                    </CharString>
                    <CharString index="194">
                        hstemhm
64 82 286 76 hintmask 10111100
return
                    </CharString>
                    <CharString index="195">
                        -64 -2 -64 -328 rlineto
50 hlineto
return
                    </CharString>
                    <CharString index="196">
                        55 287 54 hstem
return
                    </CharString>
                    <CharString index="197">
                        hstemhm
67 484 return
                    </CharString>
                    <CharString index="198">
                        86 callsubr
hstemhm
return
                    </CharString>
                    <CharString index="199">
                        hstemhm
105 489 return
                    </CharString>
                    <CharString index="200">
                        rcurveline
-206 return
                    </CharString>
                <CharString name=".notdef">
                    -200 50 900 50 hstem
0.5 54 432 54 vstem
8 -200 rmoveto
540 hlineto
-15 1000 rlineto
-540 hlineto
77 -50 rmoveto
387 hlineto
-188 -390 rlineto
212 316 rmoveto
11 -752 -191 376 rlineto
-241 -376 rmoveto
-11 752 191 -376 rlineto
31 -60 rmoveto
200 -390 rlineto
-387 hlineto
endchar
                </CharString>
                <CharString name="A">
                    -11 callsubr
hintmask 10011100
390 -3 -90 callgsubr
                </CharString>
                <CharString name="AE">
                    66 callgsubr
620 vstem
339 552 -46 callsubr
                </CharString>
                <CharString name="AEacute">
                    66 callgsubr
632 vstem
340 -68 callsubr
-1 -171 -46 callsubr
                </CharString>
                <CharString name="Aacute">
                    -11 callsubr
hintmask 00111100
248 725 -107 callgsubr
hintmask 10011100
142 -728 -90 callgsubr
                </CharString>
                <CharString name="Abreve">
                    -51 callsubr
75 63 46 callsubr
hintmask 00111110
537 869 -102 callgsubr
hintmask 10011110
-192 -844 -90 callsubr
                </CharString>
                <CharString name="Acircumflex">
                    -11 callsubr
hintmask 00111100
496 690 -96 callsubr
hintmask 10011100
-5 -808 -90 callgsubr
                </CharString>
                <CharString name="Adieresis">
                    -51 callsubr
-24 callsubr
383 87 hintmask 00111011
510 705 -63 callgsubr
hintmask 10011101
-77 callsubr
176 -705 rmoveto
hintmask 00111101
-65 callgsubr
hintmask 01011101
-85 callsubr
hintmask 10011101
-14 callgsubr
hintmask 00111101
-84 callgsubr
                </CharString>
                <CharString name="Agrave">
                    -11 callsubr
hintmask 00111100
489 717 -86 callgsubr
hintmask 10011100
-79 -687 -90 callgsubr
                </CharString>
                <CharString name="Amacron">
                    -51 callsubr
117 66 46 callsubr
hintmask 00111110
555 805 -46 callgsubr
hintmask 10011110
-152 -742 -90 callsubr
                </CharString>
                <CharString name="Aogonek">
                    -209 57 173 -39 callgsubr
hstemhm
213 73 96.5 87.5 hintmask 10111110
440 29 callsubr
35 52 44 132 43 vhcurveto
-39 callsubr
rrcurveto
-114 hlineto
hintmask 11011110
-85 callsubr
4 -59 5 -58 4 -59 -125 -52 -52 -55 1 -47 rrcurveto
hintmask 10111110
-62 79 -40 148 76 vhcurveto
-103 718 -83 callgsubr
                </CharString>
                <CharString name="Aring">
                    33 callgsubr
393 889 -58 callgsubr
                </CharString>
                <CharString name="Aringacute">
                    33 callgsubr
308 961 -107 callgsubr
85 -72 -58 callgsubr
                </CharString>
                <CharString name="Atilde">
                    -51 callsubr
78 93 callgsubr
46 callsubr
hintmask 00111111
459 760 -83 callsubr
hintmask 10011111
-69 -763 rmoveto
hintmask 00111111
-65 callgsubr
hintmask 01011111
-85 callsubr
hintmask 10011111
-14 callgsubr
hintmask 00111111
-84 callgsubr
                </CharString>
                <CharString name="B">
                    -7 69 -41 -21 285 49 228 66 hstemhm
409 79 -48 79 hintmask 10111000
488 188 rmoveto
65 -51 51 -78 16 vhcurveto
hintmask 01110100
100 31 60 64 76 vvcurveto
95 -103 68 -246 -36 vhcurveto
40 callgsubr
hintmask 10111000
321 -38 117 114 112 vvcurveto
hintmask 10110100
-48 285 rmoveto
-69 -72 -62 -173 -8 vhcurveto
44 225 rlineto
136 15 65 -39 -62 vvcurveto
hintmask 10111000
-31 -291 rmoveto
-76 -82 -61 -183 21 vhcurveto
42 219 rlineto
158 10 65 -45 -68 vvcurveto
endchar
                </CharString>
                <CharString name="C">
                    30 callgsubr
377 633 -78 callsubr
                </CharString>
                <CharString name="Cacute">
                    30 callgsubr
255 736 -107 callgsubr
122 -103 -78 callsubr
                </CharString>
                <CharString name="Ccaron">
                    30 callgsubr
371 698 -91 callsubr
10 -65 -78 callsubr
                </CharString>
                <CharString name="Ccedilla">
                    -51 111 -72 72 -41 -21 563 72 hstemhm
65 81 136 70 89 76 hintmask 01011110
352 -181 rmoveto
5 87 -22 55 -35 27 45 3 51 11 56 20 8 73 rcurveline
-71 callsubr
19 callgsubr
hvcurveto
hintmask 00111110
-121 48 -77 87 -27 vhcurveto
-40 -18 -35 -46 -31 -76 41 callsubr
                </CharString>
                <CharString name="Cdotaccent">
                    -13 73 501 72 6 callsubr
65 81 295 76 vstem
409 715 -41 callgsubr
50 -81 -78 callsubr
                </CharString>
                <CharString name="D">
                    61 callsubr
522 384 -25 callgsubr
                </CharString>
                <CharString name="Dcaron">
                    61 callsubr
372 693 -91 callsubr
154 -309 -25 callgsubr
                </CharString>
                <CharString name="Dcroat">
                    -55 callsubr
                </CharString>
                <CharString name="E">
                    24 callgsubr
443 69 -102 callsubr
                </CharString>
                <CharString name="Eacute">
                    24 callgsubr
259 -68 callsubr
184 -654 -102 callsubr
                </CharString>
                <CharString name="Ebreve">
                    -18 callgsubr
75 63 hstem
58 535 vstem
548 867 -102 callgsubr
-150 -770 -102 callsubr
                </CharString>
                <CharString name="Ecaron">
                    4 callsubr
522 vstem
375 685 -91 callsubr
72 -616 -102 callsubr
                </CharString>
                <CharString name="Ecircumflex">
                    4 callsubr
502 vstem
506 -35 callgsubr
38 -734 -102 callsubr
                </CharString>
                <CharString name="Edieresis">
                    -18 callgsubr
-24 callsubr
58 503 hintmask 11101100
521 68 callgsubr
hintmask 11110100
-77 callsubr
218 -631 -102 callsubr
                </CharString>
                <CharString name="Edotaccent">
                    -18 callgsubr
6 callsubr
58 490 vstem
413 702 -41 callgsubr
112 -632 -102 callsubr
                </CharString>
                <CharString name="Egrave">
                    24 callgsubr
500 -23 callgsubr
-37 -613 -102 callsubr
                </CharString>
                <CharString name="Emacron">
                    -18 callgsubr
92 callgsubr
58 507 vstem
565 803 -46 callgsubr
-109 -668 -102 callsubr
                </CharString>
                <CharString name="Eogonek">
                    -209 56 153 69 214 61 207 69 hstem
167 73 vstem
395 -168 rmoveto
51 callsubr
18 69 rlineto
-99 callgsubr
262 hlineto
-108 -48 -45 -50 -44 vvcurveto
-61 79 50 callgsubr
endchar
                </CharString>
                <CharString name="Eth">
                    -55 callsubr
                </CharString>
                <CharString name="Euro">
                    -12 67 136 60 -53 55 96 54 163 67 hstemhm
105 75 298 73 hintmask 10111110
472 34 rmoveto
-8 49 -184 -59 -88 34 -12 140 rlinecurve
212 hlineto
14 55 rlineto
-226 hlineto
1 32 6 32 8 32 rrcurveto
230 hlineto
14 54 rlineto
-225 hlineto
91 37 66 72 77 hhcurveto
63 17 -41 -73 4 hvcurveto
73 11 rlineto
114 -5 -41 56 -94 hhcurveto
-116 -102 -96 -129 -52 hvcurveto
-71 hlineto
-13 -59 rlineto
64 hlineto
hintmask 11011110
-8 -32 -6 -33 -2 -33 rrcurveto
-65 hlineto
-12 -60 rlineto
77 hlineto
hintmask 10111110
11 -177 124 -86 232 106 rrcurveto
endchar
                </CharString>
                <CharString name="F">
                    21 -21 268 63 219 70 hstem
60 500 vstem
447 268 rmoveto
12 63 rlineto
-254 hlineto
43 219 rlineto
300 hlineto
12 70 rlineto
-380 -30 callgsubr
81 hlineto
52 268 rlineto
endchar
                </CharString>
                <CharString name="G">
                    49 callsubr
hstemhm
64 82 286 76 hintmask 10111000
403 -109 -74 callgsubr
hintmask 01111000
4 callgsubr
endchar
                </CharString>
                <CharString name="Gbreve">
                    49 callsubr
75 63 87 callsubr
537 880 -102 callgsubr
-179 -961 -37 callgsubr
                </CharString>
                <CharString name="Gcommaaccent">
                    49 callsubr
hstemhm
64 82 5 98 183 76 hintmask 10110100
403 -109 -74 callgsubr
hintmask 01110100
4 callgsubr
hintmask 10101100
-221 -245 -92 callgsubr
                </CharString>
                <CharString name="Gdotaccent">
                    49 callsubr
26 callsubr
132 87 callsubr
402 715 -41 callgsubr
83 -823 -37 callgsubr
                </CharString>
                <CharString name="H">
                    21 -21 282 64 274 -20 hstem
40 511 vstem
349 hmoveto
82 hlineto
120 620 rlineto
-82 hlineto
-53 -274 rlineto
-228 hlineto
53 274 rlineto
-81 -30 callgsubr
81 hlineto
55 282 rlineto
228 hlineto
endchar
                </CharString>
                <CharString name="Hbar">
                    21 -21 268 64 112 58 -56 53 -53 174 hstemhm
40 558 hintmask 11010100
413 332 rmoveto
-228 hlineto
22 114 rlineto
228 hlineto
-86 -446 rmoveto
82 hlineto
hintmask 11100100
86 444 rlineto
70 hlineto
11 58 rlineto
-70 hlineto
hintmask 11001100
23 118 rlineto
-82 hlineto
hintmask 11010100
-23 -121 rlineto
-228 hlineto
hintmask 11001100
23 121 61 callgsubr
hintmask 11100100
-23 -118 rlineto
-71 hlineto
-12 -58 rlineto
72 hlineto
-86 -444 rlineto
81 hlineto
52 268 rlineto
228 hlineto
endchar
                </CharString>
                <CharString name="I">
                    44 callsubr
277 65 -94 callsubr
                </CharString>
                <CharString name="Iacute">
                    44 callsubr
239 -68 callsubr
38 -658 -94 callsubr
                </CharString>
                <CharString name="Ibreve">
                    27 callgsubr
75 63 hstem
36 537 vstem
528 867 -102 callgsubr
-296 -774 -94 callsubr
                </CharString>
                <CharString name="Icircumflex">
                    27 callgsubr
hstem
36 504 vstem
486 -35 callgsubr
-108 -738 -94 callsubr
                </CharString>
                <CharString name="Idieresis">
                    27 callgsubr
-24 callsubr
36 505 hintmask 11011000
501 703 -17 callgsubr
72 -635 -94 callsubr
                </CharString>
                <CharString name="Idotaccent">
                    27 callgsubr
6 callsubr
36 493 vstem
393 702 -41 callgsubr
-34 -636 -94 callsubr
                </CharString>
                <CharString name="Igrave">
                    44 callsubr
480 -23 callgsubr
-183 -617 -94 callsubr
                </CharString>
                <CharString name="Imacron">
                    27 callgsubr
92 callgsubr
36 509 vstem
545 803 -46 callgsubr
-255 -672 -94 callsubr
                </CharString>
                <CharString name="Iogonek">
                    -208 56 152 65 490 65 hstem
83 72 vstem
310 38 callgsubr
-42 17 33 vvcurveto
35 34 41 83 43 vhcurveto
140 hlineto
15 65 rlineto
-150 hlineto
-88 callsubr
153 hlineto
-75 -48 -31 -48 -45 vvcurveto
-61 78 50 callgsubr
endchar
                </CharString>
                <CharString name="J">
                    -11 74 492 65 hstem
40 452 vstem
353 50 rmoveto
27 27 14 34 32 171 66 338 rcurveline
-285 hlineto
-14 -65 rlineto
205 hlineto
-55 -282 -26 -130 -9 -31 -19 -19 rlinecurve
-27 -28 -55 -4 -154 2 -13 -74 rcurveline
187 -1 84 20 42 42 rrcurveto
endchar
                </CharString>
                <CharString name="K">
                    79 callsubr
49 534 -11 callgsubr
endchar
                </CharString>
                <CharString name="Kcommaaccent">
                    79 callsubr
203 98 -11 callgsubr
-90 -885 -92 callgsubr
                </CharString>
                <CharString name="L">
                    59 callsubr
hstem
61 400 -3 callgsubr
endchar
                </CharString>
                <CharString name="Lacute">
                    59 callsubr
hstem
61 479 vstem
269 -68 callsubr
177 -723 34 callsubr
                </CharString>
                <CharString name="Lcaron">
                    59 callsubr
100 -20 hstem
474 90 vstem
474 695 -32 callgsubr
-118 -700 34 callsubr
                </CharString>
                <CharString name="Lcommaaccent">
                    59 callsubr
hstem
194 98 -3 callgsubr
91 -259 -92 callgsubr
                </CharString>
                <CharString name="Ldot">
                    0 70 196 108 246 -20 hstem
61 437 -3 callgsubr
411 266 rmoveto
26 108 rlineto
-92 hlineto
-26 -108 rlineto
endchar
                </CharString>
                <CharString name="Lslash">
                    59 callsubr
hstem
54 421 vstem
460 hmoveto
15 70 rlineto
-304 hlineto
52 268 167 78 -3 56 -152 -72 42 220 rlineto
-82 hlineto
-51 -262 -90 -43 2 -55 76 36 -57 -296 rlineto
endchar
                </CharString>
                <CharString name="M">
                    21 -21 108 101 279 134 -2 91 callsubr
33 532 hintmask 11001100
245 622 rmoveto
-93 -4 -119 -618 rlineto
74 hlineto
hintmask 11100100
91 488 rlineto
3 hlineto
28 -380 rlineto
53 hlineto
180 380 rlineto
4 hlineto
-98 -488 rlineto
78 hlineto
hintmask 11010100
119 620 rlineto
-96 hlineto
-192 -411 rlineto
-3 hlineto
endchar
                </CharString>
                <CharString name="N">
                    -21 callsubr
hstemhm
40 513 hintmask 01001100
355 hmoveto
-64 callsubr
endchar
                </CharString>
                <CharString name="NUL">
                    -107 endchar
                </CharString>
                <CharString name="Nacute">
                    -21 callsubr
hstemhm
40 513 hintmask 01001100
251 725 -107 callgsubr
104 -725 rmoveto
-64 callsubr
endchar
                </CharString>
                <CharString name="Ncaron">
                    -21 callsubr
hstemhm
40 532 hintmask 01001100
367 687 -91 callsubr
-8 -687 rmoveto
-64 callsubr
endchar
                </CharString>
                <CharString name="Ncommaaccent">
                    -21 callsubr
hstemhm
176 98 hintmask 01001100
355 hmoveto
-64 callsubr
-79 -748 -92 callgsubr
                </CharString>
                <CharString name="Ntilde">
                    -21 callsubr
99 93 callgsubr
hstemhm
40 556 hintmask 01001111
462 760 -83 callsubr
-107 -760 rmoveto
77 hlineto
hintmask 10010111
-12 callgsubr
hintmask 01001111
-12 callsubr
hintmask 01100111
92 489 rlineto
5 hlineto
endchar
                </CharString>
                <CharString name="O">
                    -8 callsubr
350 632 -106 callsubr
                </CharString>
                <CharString name="OE">
                    0 68 217 57 210 68 hstem
53 81 vstem
134 210 rmoveto
99 43 239 168 4 vhcurveto
-94 -484 rlineto
-75 2 -42 40 100 vvcurveto
358 -142 rmoveto
-168 hlineto
42 217 rlineto
136 hlineto
12 57 rlineto
-137 hlineto
41 210 rlineto
165 hlineto
12 68 rlineto
-201 hlineto
-273 -68 -270 -143 -160 86 -47 126 hvcurveto
208 hlineto
endchar
                </CharString>
                <CharString name="Oacute">
                    -8 callsubr
253 737 -107 callgsubr
97 -105 -106 callsubr
                </CharString>
                <CharString name="Obreve">
                    21 callgsubr
77 63 -1 callsubr
541 881 -102 callgsubr
-236 -221 -106 callsubr
                </CharString>
                <CharString name="Ocircumflex">
                    -8 callsubr
500 702 -96 callsubr
-49 -185 -106 callsubr
                </CharString>
                <CharString name="Odieresis">
                    21 callgsubr
82.5 -47 callsubr
60 84 302 84 hintmask 11011100
515 717 -63 callgsubr
hintmask 11101100
-77 callsubr
131 -82 -106 callsubr
                </CharString>
                <CharString name="Ograve">
                    -8 callsubr
494 729 -86 callgsubr
-124 -64 -106 callsubr
                </CharString>
                <CharString name="Ohungarumlaut">
                    -8 callsubr
254 703 -74 callsubr
-79 -98 -106 callsubr
                </CharString>
                <CharString name="Omacron">
                    21 callgsubr
119 66 -1 callsubr
559 817 -46 callgsubr
-196 -119 -106 callsubr
                </CharString>
                <CharString name="Omega">
                    0 65 -39 -21 556 71 hstemhm
88 71 271 79 hintmask 01111000
188 5 rmoveto
-18 84 -11 71 105 vvcurveto
175 57 121 104 70 40 -49 -89 vhcurveto
hintmask 10111000
-100 -48 -135 -103 -183 vhcurveto
1 -5 rlineto
180 hlineto
12 65 rlineto
-96 hlineto
90 145 43 125 102 vvcurveto
121 -63 74 -113 -161 -84 -142 -202 -74 12 -72 19 -77 vhcurveto
-102 hlineto
-13 -65 32 callgsubr
endchar
                </CharString>
                <CharString name="Oslash">
                    47 callgsubr
145 231 -70 callsubr
                </CharString>
                <CharString name="Oslashacute">
                    47 callgsubr
252 737 -107 callgsubr
-107 -506 -70 callsubr
                </CharString>
                <CharString name="Otilde">
                    21 callgsubr
80 93 callgsubr
-1 callsubr
463 772 -83 callsubr
-113 -140 -106 callsubr
                </CharString>
                <CharString name="P">
                    21 -21 557 68 hstem
462 79 vstem
133 hmoveto
39 199 rlineto
233 22 136 95 141 vvcurveto
115 -105 81 -264 -36 vhcurveto
-120 -617 rlineto
410 444 rmoveto
-102 -97 -71 -179 3 vhcurveto
55 280 rlineto
151 17 70 -49 -78 vvcurveto
endchar
                </CharString>
                <CharString name="Q">
                    9 -21 576 69 hstem
74 80 296 83 vstem
415 -138 rmoveto
34 66 -211 93 rlineto
166 83 129 152 168 vvcurveto
124 -64 85 -125 -207 -128 -247 -275 99 vhcurveto
69 26 rlineto
251 -68 91 176 130 hhcurveto
77 43 -51 -94 -150 -123 -152 -177 -71 hvcurveto
-20 -58 rlineto
endchar
                </CharString>
                <CharString name="R">
                    23 callsubr
hintmask 10011000
401 -6 -61 callgsubr
                </CharString>
                <CharString name="R_p">
                    87 callgsubr
169 66 -40 -21 23 64 callgsubr
428 68 -10 -20 30 -20 79 63 hstemhm
261 66 170 66 hintmask 1100000111100000
189 -5 rmoveto
hintmask 1000100111100000
68 11 -49 269 rlineto
76 75 43 72 83 vvcurveto
87 -56 47 -135 -19 vhcurveto
hintmask 1001000111100000
58 callsubr
65 hlineto
111 561 rlineto
48 1 22 -23 -49 vvcurveto
-64 -35 -66 -82 -81 vhcurveto
-3 vlineto
hintmask 1100010011100000
246 -217 rmoveto
-9 -12 3 6 -12 hvcurveto
27 142 28 151 9 48 rrcurveto
16 18 16 9 14 hhcurveto
18 10 -21 -42 -116 -54 -196 -53 hvcurveto
-79 -228 rmoveto
hintmask 1010000111100000
8 39 11 60 13 68 rrcurveto
hintmask 1100000111100000
-3 11 11 -2 10 hhcurveto
107 81 217 180 78 -21 34 -34 -26 -29 -20 -28 -26 hvcurveto
hintmask 1100001011100000
5 38 -62 -5 -18 -107 -68 -348 -40 -208 rlinecurve
endchar
                </CharString>
                <CharString name="Racute">
                    23 callsubr
hintmask 00111000
236 730 -107 callgsubr
hintmask 10011000
165 -736 -61 callgsubr
                </CharString>
                <CharString name="Rcaron">
                    23 callsubr
hintmask 00111000
352 692 -91 callsubr
hintmask 10011000
53 -698 -61 callgsubr
                </CharString>
                <CharString name="Rcommaaccent">
                    18 callsubr
187 98 154 81 hintmask 10011100
401 -6 rmoveto
hintmask 00111100
-29 callsubr
hintmask 01011100
-47 callgsubr
-93 -542 -92 callgsubr
                </CharString>
                <CharString name="S">
                    9 callgsubr
512 460 -66 callgsubr
                </CharString>
                <CharString name="Sacute">
                    9 callgsubr
252 735 -107 callgsubr
260 -275 -66 callgsubr
                </CharString>
                <CharString name="Scaron">
                    9 callgsubr
368 697 -91 callsubr
148 -237 -66 callgsubr
                </CharString>
                <CharString name="Scedilla">
                    -52 116 -70 70 499 68 hstemhm
123 82 50 70 53 83 hintmask 10111100
255 -184 rmoveto
70 2 rlineto
hintmask 01111100
6 96 -27 57 -42 23 rrcurveto
140 13 59 68 70 -36 callgsubr
72 14 rlineto
-59 callsubr
hintmask 10111100
-16 -80 rlineto
hintmask 01111100
51 -11 46 -6 41 -3 -37 -20 -33 -45 -30 -72 42 -13 rcurveline
hintmask 10111100
-7 callsubr
endchar
                </CharString>
                <CharString name="Scommaaccent">
                    11 callgsubr
-48 98 123 83 hintmask 10110100
512 460 rmoveto
-59 callsubr
hintmask 01110100
-16 -80 rlineto
hintmask 10110100
-38 callsubr
hintmask 10101100
-325 -713 -92 callgsubr
                </CharString>
                <CharString name="T">
                    81 callgsubr
102 478 vstem
375 550 -9 callsubr
endchar
                </CharString>
                <CharString name="Tcaron">
                    81 callgsubr
102 478 vstem
358 685 -91 callsubr
21 -135 -9 callsubr
endchar
                </CharString>
                <CharString name="Tcommaaccent">
                    81 callgsubr
167 98 vstem
375 550 -9 callsubr
-143 -259 -92 callgsubr
                </CharString>
                <CharString name="Thorn">
                    0 174 284 68 -68 162 hstemhm
442 80 hintmask 11010000
133 hmoveto
19 100 rlineto
233 21 137 95 142 vvcurveto
102 -83 75 -203 -9 vhcurveto
hintmask 10110000
18 94 61 callgsubr
58 callsubr
hintmask 11010000
390 345 rmoveto
-103 -96 -69 -179 1 vhcurveto
55 281 rlineto
151 16 69 -49 -77 vvcurveto
endchar
                </CharString>
                <CharString name="U">
                    10 callgsubr
160 221 -105 callsubr
                </CharString>
                <CharString name="Uacute">
                    10 callgsubr
249 -68 callsubr
-89 -502 -105 callsubr
                </CharString>
                <CharString name="Ubreve">
                    27 callsubr
95 63 53 callsubr
538 867 -102 callgsubr
-423 -618 -105 callsubr
                </CharString>
                <CharString name="Ucircumflex">
                    10 callgsubr
496 -35 callgsubr
-235 -582 -105 callsubr
                </CharString>
                <CharString name="Udieresis">
                    -14 71 563 -28 callgsubr
71 82 hintmask 11011000
511 703 -17 callgsubr
-55 -479 -105 callsubr
                </CharString>
                <CharString name="Ugrave">
                    10 callgsubr
490 -23 callgsubr
-310 -461 -105 callsubr
                </CharString>
                <CharString name="Uhungarumlaut">
                    10 callgsubr
251 689 -74 callsubr
-266 -495 -105 callsubr
                </CharString>
                <CharString name="Umacron">
                    27 callsubr
137 66 53 callsubr
555 803 -46 callgsubr
-382 -516 -105 callsubr
                </CharString>
                <CharString name="Uogonek">
                    -209 57 138 46 callgsubr
hstemhm
71 82 -43 73 hintmask 11101000
337 29 callsubr
35 44 34 116 57 vhcurveto
65 32 44 63 19 100 82 418 rcurveline
-81 hlineto
-82 -420 rlineto
hintmask 11110000
-57 callgsubr
-34 callgsubr
-29 -152 61 -76 119 -6 rlinecurve
hintmask 11101000
-81 -43 -38 -44 -40 vvcurveto
-62 79 -40 148 76 vhcurveto
endchar
                </CharString>
                <CharString name="Uring">
                    27 callsubr
77 210 53 callsubr
394 887 -56 callsubr
-234 -666 -105 callsubr
                </CharString>
                <CharString name="V">
                    0 74 546 -20 23 -20 hstemhm
109 80 hintmask 10110000
284 hmoveto
hintmask 11010000
107 207 103 207 95 206 rrcurveto
-81 hlineto
-83 -182 -89 -182 -91 -182 rrcurveto
-8 hlineto
hintmask 10110000
-18 182 -18 186 -12 181 -80 -6 rcurveline
15 -206 20 -204 26 -207 rrcurveto
endchar
                </CharString>
                <CharString name="W">
                    1 callsubr
324 hmoveto
-86 callsubr
                </CharString>
                <CharString name="Wacute">
                    1 callsubr
252 -68 callsubr
72 -723 rmoveto
-86 callsubr
                </CharString>
                <CharString name="Wcircumflex">
                    1 callsubr
499 -35 callgsubr
-74 -803 rmoveto
-86 callsubr
                </CharString>
                <CharString name="Wdieresis">
                    0 105 515 -28 callgsubr
67 77 -77 513 hintmask 11010100
514 68 callgsubr
hintmask 11100100
-77 callsubr
106 -700 rmoveto
-64 callgsubr
hintmask 11101000
-73 callgsubr
                </CharString>
                <CharString name="Wgrave">
                    1 callsubr
493 -23 callgsubr
-149 -682 rmoveto
-86 callsubr
                </CharString>
                <CharString name="X">
                    18 -21 24 -21 24 -21 617 -20 23 -20 hstemhm
-1 588 hintmask 10001100
383 -3 rmoveto
hintmask 00110100
84 6 -128 302 248 315 rlineto
-89 hlineto
-192 -256 rlineto
hintmask 01001100
-106 259 -82 -6 128 -302 -247 -315 rlineto
87 hlineto
193 255 rlineto
endchar
                </CharString>
                <CharString name="Y">
                    1 callgsubr
269 hmoveto
-57 callsubr
                </CharString>
                <CharString name="Yacute">
                    1 callgsubr
244 725 -107 callgsubr
25 -725 rmoveto
-57 callsubr
                </CharString>
                <CharString name="Ycircumflex">
                    1 callgsubr
492 690 -96 callsubr
-122 -805 rmoveto
-57 callsubr
                </CharString>
                <CharString name="Ydieresis">
                    21 -21 620 -20 22 -28 callgsubr
105 489 hintmask 10101100
506 705 -63 callgsubr
hintmask 11010100
-77 callsubr
59 -702 rmoveto
39 203 -8 callgsubr
hintmask 10110100
-21 callgsubr
                </CharString>
                <CharString name="Ygrave">
                    1 callgsubr
485 717 -86 callgsubr
-196 -684 rmoveto
-57 callsubr
                </CharString>
                <CharString name="Z">
                    3 callsubr
hstem
23 529 vstem
437 hmoveto
-45 callsubr
                </CharString>
                <CharString name="Zacute">
                    3 callsubr
hstem
23 529 vstem
244 -68 callsubr
193 -723 rmoveto
-45 callsubr
                </CharString>
                <CharString name="Zcaron">
                    3 callsubr
hstem
23 542 vstem
360 685 -91 callsubr
81 -685 rmoveto
-45 callsubr
                </CharString>
                <CharString name="Zdotaccent">
                    3 callsubr
6 callsubr
23 529 vstem
399 702 -41 callgsubr
120 -701 rmoveto
-45 callsubr
                </CharString>
                <CharString name="a">
                    -5 callgsubr
193 63 -95 callgsubr
                </CharString>
                <CharString name="aacute">
                    -5 callgsubr
240 603 -107 callgsubr
-47 -540 -95 callgsubr
                </CharString>
                <CharString name="abreve">
                    -6 callgsubr
95 63 37 callgsubr
529 747 -102 callgsubr
-381 -656 -95 callsubr
                </CharString>
                <CharString name="acircumflex">
                    -5 callgsubr
487 568 -96 callsubr
-193 -620 -95 callgsubr
                </CharString>
                <CharString name="acute">
                    699 -20 hstem
161 271 vstem
161 593 -107 callgsubr
endchar
                </CharString>
                <CharString name="adieresis">
                    -10 69 374 67 0 -28 callgsubr
50 79 211 73 hintmask 11001110
502 583 -63 callgsubr
hintmask 11010110
-77 callsubr
-13 -517 -104 callgsubr
hintmask 10110110
32 callsubr
hintmask 11010110
-98 callsubr
                </CharString>
                <CharString name="ae">
                    -7 67 373 63 -62 65 85 callsubr
hintmask 10111100
445 434 13 callsubr
hintmask 11011100
44 callgsubr
hintmask 10111100
-10 callgsubr
hintmask 11011100
25 callsubr
hintmask 10111100
80 callsubr
                </CharString>
                <CharString name="aeacute">
                    -7 67 373 63 -62 65 204 -20 85 callsubr
hintmask 11011110
245 597 -107 callgsubr
hintmask 10111110
200 -163 13 callsubr
hintmask 11011110
44 callgsubr
hintmask 10111110
-10 callgsubr
hintmask 11011110
25 callsubr
hintmask 10111110
80 callsubr
                </CharString>
                <CharString name="agrave">
                    -5 callgsubr
481 595 -86 callgsubr
-268 -499 -95 callgsubr
                </CharString>
                <CharString name="amacron">
                    -6 callgsubr
137 66 37 callgsubr
546 683 -46 callgsubr
-340 -554 -95 callsubr
                </CharString>
                <CharString name="ampersand">
                    -10 71 -59 -21 659 -20 hstemhm
19 76 132 73 hintmask 01111000
459 -19 rmoveto
63 51 -47 47 -40 45 -32 46 rlinecurve
40 50 40 60 40 70 -66 24 rcurveline
-30 -59 -30 -50 -30 -42 -37 63 -22 63 -8 65 rrcurveto
60 60 35 65 49 vvcurveto
33 -22 19 -32 -51 -63 -97 -107 vhcurveto
-2 0 -3 -2 vvcurveto
-128 -109 -80 -109 -100 vvcurveto
hintmask 10110000
-75 41 -46 74 64 75 41 78 77 vhcurveto
hintmask 01111000
31 -43 37 -43 41 -42 rrcurveto
hintmask 10110000
-302 80 rmoveto
-38 -24 24 43 69 58 80 82 80 hvcurveto
12 -66 28 -66 41 -66 rrcurveto
-67 -61 -56 -31 -42 hhcurveto
endchar
                </CharString>
                <CharString name="aogonek">
                    -208 56 142 73 -38 -21 33 22 11 callsubr
78 callsubr
117 73 21 73 hintmask 1011101110000000
473 -167 rmoveto
-9 38 rlineto
-104 -39 -41 16 34 vvcurveto
42 53 49 141 64 vhcurveto
hintmask 1011011010000000
-38 callgsubr
32 callsubr
hintmask 1100101010000000
-89 callsubr
hintmask 1011101010000000
-6 -51 9 -30 28 -10 rrcurveto
hintmask 1011101110000000
-89 -52 -36 -48 -45 vvcurveto
-60 79 -41 148 75 vhcurveto
hintmask 1100101010000000
-280 230 -100 callsubr
endchar
                </CharString>
                <CharString name="approxequal">
                    100 67 41 67 38 67 41 67 hstem
34 497 vstem
378 313 64 callsubr
-31 -44 -29 -48 -28 108 -79 hhcurveto
-57 -45 -49 -101 -58 hvcurveto
44 -24 rlineto
61 39 32 46 30 50 29 -108 79 hhcurveto
-41 -213 64 callsubr
-30 -44 -30 -48 -28 108 -78 hhcurveto
-58 -46 -49 -101 -57 hvcurveto
44 -24 rlineto
62 39 32 45 29 51 29 -108 79 hhcurveto
endchar
                </CharString>
                <CharString name="aring">
                    -6 callgsubr
77 210 37 callgsubr
384 767 -61 callsubr
                </CharString>
                <CharString name="aringacute">
                    -6 callgsubr
77 210 37 callgsubr
300 841 -107 callgsubr
84 -74 -61 callsubr
                </CharString>
                <CharString name="asciicircum">
                    496 -20 hstem
48 451 vstem
434 158 rmoveto
65 41 -179 297 -17 -3 -255 -294 50 -43 200 235 rlineto
endchar
                </CharString>
                <CharString name="asciitilde">
                    197 73 70 73 hstem
39 501 vstem
375 197 rmoveto
60 51 65 121 54 hvcurveto
-51 23 rlineto
-79 -35 -38 -57 -32 -52 -42 143 -84 hhcurveto
-61 -55 -68 -119 -51 hvcurveto
50 -22 rlineto
79 34 37 57 33 53 45 -143 84 hhcurveto
endchar
                </CharString>
                <CharString name="asterisk">
                    507 -20 130 -20 hstem
116 414 vstem
363 263 rmoveto
46 18 -35 152 156 25 -2 49 -156 15 23 156 -49 13 -64 -145 -138 71 -28 -41 119 -105 -110 -110 31 -39 135 79 rlineto
endchar
                </CharString>
                <CharString name="asterisk.alt">
                    258 437 hstem
94 437 vstem
352 546 rmoveto
53 130 -73 19 -19 -140 rlineto
-40 -9 rmoveto
-86 110 -54 -54 112 -85 rlineto
147 -41 rmoveto
139 21 -20 72 -131 -53 rlineto
-147 -39 rmoveto
-139 -20 21 -73 130 54 rlineto
108 -31 rmoveto
87 -110 52 54 -111 86 rlineto
-107 -30 rmoveto
-53 -130 73 -19 18 140 rlineto
endchar
                </CharString>
                <CharString name="at">
                    -156 62 152 67 294 60 143 61 hstemhm
49 66 111 68 116.5 64.5 10 69 hintmask 11111101
407 -142 rmoveto
9 63 rlineto
-221 -50 -80 81 177 vvcurveto
252 138 241 146 72 25 -52 -95 -14 vhcurveto
3 -18 -17 1 -14 hhcurveto
-127 -80 -153 -142 -86 30 -40 43 hvcurveto
hintmask 11111111
35 43 25 34 36 hvcurveto
-5 -52 67 -1 8 56 10 62 10 50 rlinecurve
41 200 rlineto
hintmask 11111101
163 33 -44 88 -120 hhcurveto
-204 -160 -277 -282 -210 101 -111 257 55 hvcurveto
-73 267 rmoveto
-22 -18 21 52 100 55 121 57 16 24 -5 -8 23 hvcurveto
-49 -240 rlineto
-25 -29 -35 -16 -22 hhcurveto
endchar
                </CharString>
                <CharString name="atilde">
                    -6 callgsubr
98 93 callgsubr
6 callgsubr
hintmask 11011110
451 638 -83 callsubr
-258 -575 -104 callgsubr
hintmask 10111110
32 callsubr
hintmask 11011110
-98 callsubr
                </CharString>
                <CharString name="b">
                    -10 66 374 72 201 -20 hstem
421 78 vstem
201 -10 rmoveto
177 121 168 180 110 -47 54 -64 -55 -70 -46 -55 -58 hvcurveto
59 302 -77 -6 -133 -683 rlineto
-14 48 55 -10 44 hhcurveto
41 66 rmoveto
-25 -36 6 11 -39 hvcurveto
51 264 rlineto
50 48 65 43 45 hhcurveto
38 32 -34 -77 -133 -80 -130 -99 hvcurveto
endchar
                </CharString>
                <CharString name="backslash">
                    -186 904 hstem
107 342 vstem
172 718 rmoveto
-65 -21 276 -883 66 20 rlineto
endchar
                </CharString>
                <CharString name="bar">
                    705 -20 hstem
152 247 vstem
325 705 rmoveto
-173 -886 rlineto
74 hlineto
173 888 rlineto
endchar
                </CharString>
                <CharString name="braceleft">
                    -207 930 -487 56 hstemhm
109 83 callsubr
365 -207 -55 callgsubr
                </CharString>
                <CharString name="braceleft.cap">
                    -158 930 -487 56 hstemhm
119 83 callsubr
375 -158 -55 callgsubr
                </CharString>
                <CharString name="braceright">
                    -207 931 -500 57 hstemhm
205 83 callgsubr
11 -207 -53 callsubr
                </CharString>
                <CharString name="braceright.cap">
                    -158 931 -500 57 hstemhm
215 83 callgsubr
21 -158 -53 callsubr
                </CharString>
                <CharString name="bracketleft">
                    -179 76 callsubr
61 481 vstem
61 -179 16 callgsubr
                </CharString>
                <CharString name="bracketleft.cap">
                    -130 76 callsubr
71 481 vstem
71 -130 16 callgsubr
                </CharString>
                <CharString name="bracketright">
                    -178 76 callsubr
6 480 vstem
486 695 15 callsubr
                </CharString>
                <CharString name="bracketright.cap">
                    -129 76 callsubr
16 480 vstem
496 744 15 callsubr
                </CharString>
                <CharString name="breve">
                    565 63 hstem
104 371 vstem
430 737 -102 callgsubr
endchar
                </CharString>
                <CharString name="bullet">
                    172 252 hstem
163 239 vstem
402 312 rmoveto
66 -45 46 -65 -66 -63 -56 -84 -65 47 -47 61 67 64 57 83 vhcurveto
endchar
                </CharString>
                <CharString name="bullet.alt">
                    190 215 hstem
158 254 vstem
369 190 rmoveto
43 215 rlineto
-211 hlineto
-43 -215 rlineto
endchar
                </CharString>
                <CharString name="c">
                    74 callsubr
70 callgsubr
493 334 -76 callsubr
                </CharString>
                <CharString name="cacute">
                    74 callsubr
70 callgsubr
236 604 -107 callgsubr
257 -270 -76 callsubr
                </CharString>
                <CharString name="caron">
                    631 -20 90 -20 24 -20 hstemhm
125 349 hintmask 10110000
269 555 rmoveto
hintmask 11010000
-63 callsubr
rlineto
hintmask 10110000
-62 callgsubr
endchar
                </CharString>
                <CharString name="caron.alt">
                    549 254 hstem
282 90 vstem
282 798 -32 callgsubr
endchar
                </CharString>
                <CharString name="ccaron">
                    74 callsubr
141 -20 70 callgsubr
352 566 -91 callsubr
145 -232 -76 callsubr
                </CharString>
                <CharString name="ccedilla">
                    -54 111 -65 65 -62 62 377 67 hstemhm
70 78 131 70 72 72 hintmask 01011110
349 -184 rmoveto
6 95 -27 57 -41 24 49 6 58 17 65 32 -10 42 rcurveline
-43 callsubr
72 hlineto
-24 callgsubr
hvcurveto
hintmask 00111110
-92 44 -69 84 -20 vhcurveto
-40 -17 -35 -46 -32 -77 41 callsubr
                </CharString>
                <CharString name="cdotaccent">
                    74 callsubr
6 callsubr
70 78 273 72 vstem
390 583 -41 callgsubr
185 -248 -76 callsubr
                </CharString>
                <CharString name="cedilla">
                    -152 -21 130 58 hstem
292 70 vstem
146 -147 rmoveto
-7 callsubr
70 2 rlineto
129 8 -52 59 -67 hhcurveto
-57 -48 -47 -102 -42 hvcurveto
endchar
                </CharString>
                <CharString name="cent">
                    31 70 305 76 138 -20 hstem
79 74 vstem
153 257 rmoveto
68 39 58 125 19 vhcurveto
-62 -270 rlineto
-75 28 -27 44 53 vvcurveto
270 -226 rmoveto
13 70 -49 3 -42 5 -35 7 rlinecurve
66 292 33 1 38 0 42 -3 rlinecurve
14 76 -38 3 -36 0 -32 -2 rlinecurve
31 137 rlineto
-71 hlineto
-30 -144 rlineto
-181 -30 -67 -105 -98 vvcurveto
-79 48 -65 105 -37 vhcurveto
-34 -147 rlineto
71 hlineto
28 130 37 -7 42 -5 47 -2 rlinecurve
endchar
                </CharString>
                <CharString name="check.1">
                    -19 103 -82 -21 655 -20 hstemhm
76 503 hintmask 01110000
579 636 rmoveto
-76 36 rlineto
hintmask 10110000
-114 -174 -99 -203 -79 -211 rrcurveto
-4 hlineto
-59 281 -72 -22 84 -361 69 -1 rlineto
hintmask 01110000
98 242 118 215 134 198 rrcurveto
endchar
                </CharString>
                <CharString name="check.2">
                    16 -21 23 -21 29 -21 504 -20 148 -20 hstemhm
29 534 hintmask 10011100
298 -5 rmoveto
hintmask 00111100
78 10 -87 263 274 369 -73 37 -227 -337 -52 172 -76 -21 73 -215 rlineto
hintmask 01011100
-179 -253 49 -23 154 210 rlineto
endchar
                </CharString>
                <CharString name="circumflex">
                    558 192 hstem
102 348 vstem
396 558 -96 callsubr
endchar
                </CharString>
                <CharString name="colon">
                    0 116 214 116 hstem
172 202 vstem
351 330 30 callsubr
41 -330 30 callsubr
endchar
                </CharString>
                <CharString name="colon.alt">
                    86 117 213 117 hstem
189 202 vstem
368 416 rmoveto
23 117 rlineto
-109 hlineto
-23 -117 rlineto
40 -330 rmoveto
24 117 rlineto
-110 hlineto
-24 -117 rlineto
endchar
                </CharString>
                <CharString name="colonmonetary">
                    23 67 436 72 hstem
70 72 vstem
316 114 rmoveto
-27 7 -24 8 -20 9 99 360 rcurveline
24 7 28 6 30 4 rrcurveto
-284 -231 rmoveto
80 37 72 109 44 vhcurveto
-87 -317 rlineto
-40 30 -19 39 52 vvcurveto
118 -358 rmoveto
59 hlineto
29 107 23 -4 26 -3 27 -3 rlinecurve
28 67 -32 4 -29 4 -27 5 rlinecurve
114 418 27 3 28 1 30 1 rlinecurve
8 72 -24 -1 -23 -1 -23 -3 rlinecurve
28 100 rlineto
-58 hlineto
-28 -106 -28 -5 -27 -5 -24 -6 rlinecurve
33 122 rlineto
-58 hlineto
-38 -140 rlineto
-170 -59 -61 -109 -113 vvcurveto
-79 34 -60 71 -42 vhcurveto
-47 -165 rlineto
59 hlineto
38 140 21 -8 23 -7 25 -6 rlinecurve
endchar
                </CharString>
                <CharString name="comma">
                    87 callgsubr
hstem
201 105 vstem
115 -157 rmoveto
32 -19 107 89 49 83 3 124 rlinecurve
-109 -3 13 -116 -16 -71 -79 -87 rlinecurve
endchar
                </CharString>
                <CharString name="commaaccent">
                    -275 207 hstem
225 98 vstem
183 -259 -92 callgsubr
                </CharString>
                <CharString name="commaaccent.rot">
                    562 206 hstem
217 97 vstem
357 753 42 callgsubr
endchar
                </CharString>
                <CharString name="copyright">
                    7 45 89 53 235 52 87 45 hstem
43 49 74 54 119 48 85 49 vstem
316 613 rmoveto
-149 -124 -146 -212 -157 89 -91 120 154 115 148 212 156 -86 90 -119 hvcurveto
-7 -45 rmoveto
93 70 -74 -137 -174 -90 -131 -123 -94 -73 76 136 175 98 129 119 hvcurveto
7 -87 rmoveto
-84 -66 -105 -113 -102 63 -47 117 44 hvcurveto
8 50 rlineto
-90 -32 -44 21 77 vvcurveto
76 37 79 50 26 7 -25 -43 -1 vhcurveto
48 1 rlineto
77 3 -20 42 -54 hhcurveto
endchar
                </CharString>
                <CharString name="d">
                    43 callgsubr
hintmask 10101110
197 63 -22 callsubr
hintmask 01011110
23 callgsubr
112 574 -78 -6 -39 -202 rlineto
hintmask 10101110
-17 callsubr
hintmask 01011110
-10 -99 -26 callgsubr
                </CharString>
                <CharString name="dagger">
                    491 -20 226 -20 hstem
122 398 vstem
270 126 rmoveto
82 342 21 callsubr
-73 -361 11 -8 rlineto
endchar
                </CharString>
                <CharString name="daggerdbl">
                    491 -20 226 -20 hstem
82 438 vstem
260 76 rmoveto
46 193 161 -16 13 63 -160 16 32 136 21 callsubr
-27 -136 -157 16 -13 -63 157 -16 -43 -212 10 -9 rlineto
endchar
                </CharString>
                <CharString name="dcaron">
                    43 callgsubr
212 90 hintmask 01101111
627 798 -32 callgsubr
hintmask 10101111
-520 -740 -10 callsubr
112 574 -78 -6 -39 -202 -4 callsubr
                </CharString>
                <CharString name="dcroat">
                    53 callgsubr
104 52 72 -20 hstemhm
50 78 212 75 hintmask 10101111
197 63 -10 callsubr
88 449 rlineto
69 hlineto
10 53 rlineto
-69 hlineto
14 72 -78 -6 33 callsubr
-135 hlineto
-11 -52 rlineto
136 hlineto
-16 -84 -4 callsubr
                </CharString>
                <CharString name="degree">
                    314 60 241 60 hstem
147 64 222 64 vstem
339 675 rmoveto
-99 -93 -79 -119 -100 65 -63 91 100 94 78 119 100 -66 64 -92 hvcurveto
-27 -301 rmoveto
-62 -39 46 63 78 53 54 67 62 40 -47 -63 -78 -54 -53 -67 hvcurveto
endchar
                </CharString>
                <CharString name="dieresis">
                    570.5 52 callgsubr
122 336 hintmask 01100000
418 573 -63 callgsubr
hintmask 10100000
-77 callsubr
endchar
                </CharString>
                <CharString name="divide">
                    66 93 100 67 101 93 hstem
61 448 vstem
354 427 rmoveto
19 93 rlineto
-90 hlineto
-19 -93 rlineto
245 -101 rmoveto
-435 hlineto
-13 -67 rlineto
434 hlineto
-209 -193 rmoveto
18 93 rlineto
-89 hlineto
-19 -93 rlineto
endchar
                </CharString>
                <CharString name="dollar">
                    -80.5 174.5 -69 65 438 172 0 -20 hstemhm
129 74 178 74 hintmask 01101100
203 473 rmoveto
32 37 27 91 -4 vhcurveto
-49 -163 rlineto
-44 40 -35 36 32 vvcurveto
178 -323 rmoveto
-34 -40 -27 -92 1 vhcurveto
50 168 rlineto
46 -39 36 -36 -33 vvcurveto
hintmask 10011100
-173 -231 rmoveto
hintmask 01011100
28 106 rlineto
158 1 61 62 61 vvcurveto
63 -67 61 -65 56 vhcurveto
60 194 35 -5 41 -9 48 -13 rlinecurve
14 72 -40 9 -37 7 -33 4 rlinecurve
37 112 rlineto
-72 hlineto
-33 -107 rlineto
-154 2 -60 -62 -63 vvcurveto
-62 65 -59 63 -55 vhcurveto
hintmask 10011100
-61 -200 -40 4 -48 9 -55 14 rlinecurve
-16 -73 49 -10 44 -7 39 -3 rlinecurve
-32 -108 rlineto
endchar
                </CharString>
                <CharString name="dotaccent">
                    571.5 -18 callsubr
hstem
219 123 vstem
301 572 -41 callgsubr
endchar
                </CharString>
                <CharString name="dotlessi">
                    28 callgsubr
39 callsubr
473 44 -94 callgsubr
                </CharString>
                <CharString name="e">
                    -4 callgsubr
470 56 -107 callsubr
                </CharString>
                <CharString name="eacute">
                    -4 callgsubr
233 605 -107 callgsubr
237 -549 -107 callsubr
                </CharString>
                <CharString name="ebreve">
                    -19 callsubr
75 63 0 callgsubr
522 749 -102 callgsubr
-97 -665 -107 callsubr
                </CharString>
                <CharString name="ecaron">
                    -19 callsubr
141 -20 0 callgsubr
350 567 -91 callsubr
124 -511 -107 callsubr
                </CharString>
                <CharString name="ecircumflex">
                    -4 callgsubr
481 570 -96 callsubr
90 -629 -107 callsubr
                </CharString>
                <CharString name="edieresis">
                    -19 callsubr
-24 callsubr
62 76 284 75 hintmask 11101110
495 585 -63 callgsubr
hintmask 11110110
-77 callsubr
271 -526 -107 callsubr
                </CharString>
                <CharString name="edotaccent">
                    -19 callsubr
6 callsubr
62 76 284 75 vstem
388 584 -41 callgsubr
164 -527 -107 callsubr
                </CharString>
                <CharString name="egrave">
                    -4 callgsubr
474 597 -86 callgsubr
16 -508 -107 callsubr
                </CharString>
                <CharString name="eight">
                    -12 64 439 -20 91 67 -7 7 hstemhm
51 76 11 74 165 73 hintmask 11100110
450 148 rmoveto
66 -59 61 -60 57 vhcurveto
53 31 65 37 81 43 -25 48 rcurveline
-86 -46 -71 -40 -57 -35 rrcurveto
-44 42 -35 40 38 vvcurveto
53 58 43 175 -40 vhcurveto
hintmask 11010110
22 76 rlineto
hintmask 11100110
-213 32 -116 -82 -93 vvcurveto
-54 41 -49 47 -47 vhcurveto
hintmask 11101110
-143 -94 -32 -54 -59 vvcurveto
-80 72 -54 109 vhcurveto
hintmask 11100110
126 92 74 86 hvcurveto
-200 -96 rmoveto
hintmask 11101110
-69 -54 31 56 36 20 38 120 78 hvcurveto
56 -51 54 -49 -49 vvcurveto
hintmask 11100110
-50 -54 -40 -73 vhcurveto
endchar
                </CharString>
                <CharString name="eight.den">
                    -2 callsubr
38 callsubr
hintmask 10110110
348 -113 -60 callsubr
                </CharString>
                <CharString name="eight.inf">
                    -160 50 310 53 hstemhm
72 5 callgsubr
hintmask 11011000
360 -53 -58 callsubr
                </CharString>
                <CharString name="eight.num">
                    415 50 170 82 callgsubr
159 53 hstemhm
172 5 callgsubr
hintmask 10110110
460 522 -60 callsubr
                </CharString>
                <CharString name="eight.small">
                    -10 50 310 53 hstemhm
95 5 callgsubr
hintmask 11011000
383 97 -58 callsubr
                </CharString>
                <CharString name="eight.sup">
                    321 50 271 -20 59 53 hstemhm
154 5 callgsubr
hintmask 11101100
442 428 -59 callgsubr
hintmask 11110100
-42 callgsubr
hintmask 11101100
20 callsubr
hintmask 11110100
-84 callsubr
                </CharString>
                <CharString name="ellipsis">
                    0 119 hstem
19 122 61 122 61 122 cntrmask 01110000
481 35 callsubr
-87 35 callsubr
-87 35 callsubr
endchar
                </CharString>
                <CharString name="emacron">
                    -19 callsubr
117 66 0 callgsubr
540 685 -46 callgsubr
-57 -563 -107 callsubr
                </CharString>
                <CharString name="emdash">
                    262 62 hstem
68 455 vstem
523 324 rmoveto
-443 hlineto
-12 -62 rlineto
443 hlineto
endchar
                </CharString>
                <CharString name="endash">
                    262 62 hstem
76 415 vstem
491 324 rmoveto
-403 hlineto
-12 -62 rlineto
403 hlineto
endchar
                </CharString>
                <CharString name="eogonek">
                    -208 56 144 66 127 46 206 65 hstem
62 76 36 72 176 75 vstem
401 -167 71 callsubr
-104 -39 -41 17 33 vvcurveto
50 86 63 138 62 vhcurveto
-99 callsubr
-119 75 -81 143 18 vhcurveto
-74 -45 -32 -45 -43 vvcurveto
-61 78 50 callgsubr
-62 604 -78 callgsubr
                </CharString>
                <CharString name="equal">
                    152 85 callgsubr
514 440 rmoveto
-400 13 callgsubr
399 hlineto
-29 -156 rmoveto
-400 hlineto
-13 -66 71 callgsubr
                </CharString>
                <CharString name="eth">
                    -12 64 343 64 hstem
55 79 289 77 vstem
242 -12 rmoveto
150 108 126 197 94 -29 86 -59 81 hvcurveto
95 26 -12 49 -117 -33 -29 34 -34 32 -40 32 rlinecurve
-59 -44 32 -25 28 -25 24 -26 rlinecurve
-127 -35 14 -48 149 41 26 -33 19 -33 14 -35 rlinecurve
7 -27 -27 3 -24 hhcurveto
-151 -111 -128 -149 -115 73 -79 114 hvcurveto
15 64 rmoveto
-74 -49 59 88 103 68 93 94 29 46 -8 -19 47 hvcurveto
3 -22 2 -23 -23 vvcurveto
-142 -64 -106 -102 vhcurveto
endchar
                </CharString>
                <CharString name="exclam">
                    0 110 hstem
164 245 vstem
295 233 rmoveto
19 89 73 261 22 93 rrcurveto
-102 hlineto
-16 -93 -31 -261 -17 -89 rrcurveto
29 -233 rmoveto
22 110 rlineto
-107 hlineto
-23 -110 rlineto
endchar
                </CharString>
                <CharString name="exclamdown">
                    510 110 hstem
156 245 vstem
293 620 rmoveto
-23 -110 rlineto
108 hlineto
23 110 rlineto
-131 -233 rmoveto
-19 -89 -73 -261 -22 -93 rrcurveto
102 hlineto
17 93 30 261 18 89 rrcurveto
endchar
                </CharString>
                <CharString name="f">
                    -179 64 372 62 304 82 hstem
75 76 197 55 91 69 vstem
403 2 rmoveto
77 -51 89 -120 91 vhcurveto
251 -4 12 64 rlineto
-296 hlineto
167 58 100 137 88 34 callgsubr
-133 -143 -178 -208 -73 hvcurveto
-46 hlineto
-11 -47 37 -16 rlineto
-19 -69 -11 -70 -67 vvcurveto
-158 67 -71 85 91 85 74 107 vhcurveto
-148 -117 rmoveto
-56 -48 43 127 58 8 61 15 60 hvcurveto
122 -87 52 -85 -75 vvcurveto
-63 -42 -39 -51 vhcurveto
endchar
                </CharString>
                <CharString name="f.lig">
                    -151 64 344 62 304 82 hstem
76 77 195 55 91 69 vstem
403 16 rmoveto
73 -51 84 -119 86 vhcurveto
250 -4 12 64 rlineto
-297 hlineto
164 57 101 140 89 34 callgsubr
-134 -144 -182 -204 -73 hvcurveto
-44 hlineto
-11 -47 36 -16 rlineto
-18 -63 -10 -65 -60 vvcurveto
-153 66 -66 85 91 85 68 99 vhcurveto
-148 -103 rmoveto
-56 -46 38 123 52 7 55 14 54 hvcurveto
122 -82 52 -81 -67 vvcurveto
-58 -42 -34 -51 vhcurveto
endchar
                </CharString>
                <CharString name="five">
                    -3 72 -48 -21 551 69 hstemhm
395 75 hintmask 10110000
470 197 rmoveto
74 -62 70 -195 39 vhcurveto
40 171 rlineto
256 hlineto
20 69 rlineto
-331 hlineto
-69 -290 rlineto
201 -34 65 -53 -60 vvcurveto
-66 -76 -68 -257 26 vhcurveto
hintmask 01110000
-10 -75 rlineto
hintmask 10110000
306 -26 112 117 106 vvcurveto
endchar
                </CharString>
                <CharString name="five.den">
                    52 callsubr
hstem
295 62 vstem
357 -84 -104 callsubr
                </CharString>
                <CharString name="five.inf">
                    -151 89 callsubr
307 62 vstem
369 -24 -104 callsubr
                </CharString>
                <CharString name="five.num">
                    424 70 callsubr
hstem
407 62 vstem
-22 callgsubr
endchar
                </CharString>
                <CharString name="five.small">
                    -1 89 callsubr
330 62 vstem
392 126 -104 callsubr
                </CharString>
                <CharString name="five.sup">
                    330 89 callsubr
389 62 vstem
451 457 -104 callsubr
                </CharString>
                <CharString name="fiveeighths">
                    3 callgsubr
93 70 callsubr
38 callsubr
59 62 hintmask 1011111101110000
-22 callgsubr
-408 -272 -65 callsubr
hintmask 1101111101110000
5 callsubr
hintmask 1011111110110000
-42 callgsubr
hintmask 1011111101110000
20 callsubr
hintmask 1011111110110000
-84 callsubr
                </CharString>
                <CharString name="fivesixths">
                    -219 60 callgsubr
250 52 93 70 callsubr
hstem
70 60 callsubr
39 62 vstem
-22 callgsubr
-408 -272 -67 callgsubr
139 -550 -101 callsubr
                </CharString>
                <CharString name="four">
                    0 200 -69 69 422 -20 25 -20 hstemhm
50 452 hintmask 01011000
481 131 rmoveto
21 69 rlineto
-74 hlineto
42 219 -73 -7 -42 -212 rlineto
-224 hlineto
hintmask 01101000
77 118 57 110 64 194 rrcurveto
hintmask 01011000
-83 5 -58 -191 -54 -116 -80 -137 rlinecurve
-4 -52 rlineto
292 hlineto
hintmask 10011000
-26 -131 rlineto
73 hlineto
hintmask 01011000
25 131 rlineto
endchar
                </CharString>
                <CharString name="four.den">
                    -129 53 hstem
57 326 vstem
367 -129 -93 callgsubr
                </CharString>
                <CharString name="four.inf">
                    -69 53 hstem
69 326 vstem
379 -69 -93 callgsubr
                </CharString>
                <CharString name="four.num">
                    506 53 hstem
169 326 vstem
479 506 -93 callgsubr
                </CharString>
                <CharString name="four.small">
                    0 134 -53 53 hstemhm
92 326 hintmask 01100000
402 81 rmoveto
hintmask 10100000
-82 callsubr
hintmask 01100000
-44 callsubr
hintmask 10100000
-16 -81 rlineto
59 hlineto
hintmask 01100000
16 81 rlineto
endchar
                </CharString>
                <CharString name="four.sup">
                    412 53 hstem
151 326 vstem
461 412 -93 callgsubr
                </CharString>
                <CharString name="fourfifths">
                    52 callsubr
94 52 175 53 hstem
295 62 vstem
479 506 -98 callgsubr
-371 -227 -33 callgsubr
                </CharString>
                <CharString name="fraction">
                    -160 914 hstem
-42 640 vstem
20 -160 rmoveto
578 880 -61 34 -579 -880 rlineto
endchar
                </CharString>
                <CharString name="fraction.afrc">
                    279 52 hstem
61 444 vstem
61 279 -67 callgsubr
endchar
                </CharString>
                <CharString name="g">
                    2 callgsubr
hstemhm
56 78 229 59 hintmask 10011110
211 96 -81 callgsubr
hintmask 01011110
-2 callgsubr
hintmask 00111110
-8 -76 rlineto
hintmask 10011110
14 callsubr
                </CharString>
                <CharString name="gbreve">
                    2 callgsubr
77 63 88 callgsubr
519 750 -102 callgsubr
-353 -626 -70 callgsubr
                </CharString>
                <CharString name="gcommaaccent">
                    2 callgsubr
hstemhm
56 78 152 97 -20 59 hintmask 10011110
426 766 42 callgsubr
-215 -670 -48 callsubr
hintmask 01011101
-81 callsubr
-2 callgsubr
hintmask 00111101
-8 -76 rlineto
hintmask 01011101
14 callsubr
                </CharString>
                <CharString name="gdotaccent">
                    2 callgsubr
83.5 132 88 callgsubr
385 585 -41 callgsubr
-92 -488 -70 callgsubr
                </CharString>
                <CharString name="germandbls">
                    -7 69 -62 62 573 66 hstemhm
416 78 -66 79 hintmask 10110000
205 -7 rmoveto
214 -12 75 74 83 vvcurveto
63 -52 68 -84 71 vhcurveto
hintmask 01101000
97 90 52 75 75 vvcurveto
66 -41 55 -90 -119 -90 -91 -149 -29 vhcurveto
-90 -461 rlineto
78 hlineto
91 466 rlineto
111 21 50 58 66 hhcurveto
49 25 -31 -43 -63 -47 -62 -116 -112 hvcurveto
hintmask 10110000
107 -88 44 -61 -48 vvcurveto
-50 -54 -27 -148 16 vhcurveto
endchar
                </CharString>
                <CharString name="grave">
                    705 -20 hstem
147 240 vstem
387 585 -86 callgsubr
endchar
                </CharString>
                <CharString name="greater">
                    2 -21 hstem
63 424 vstem
97 -19 rmoveto
378 263 12 68 -279 287 -54 -53 255 -257 -2 -9 -344 -238 rlineto
endchar
                </CharString>
                <CharString name="greaterequal">
                    15 67 hstem
32 461 vstem
406 358 rmoveto
-1 -7 -322 -154 17 -63 382 184 11 61 -297 214 -42 -57 rlineto
289 -454 68 callsubr
                </CharString>
                <CharString name="guillemotleft">
                    9 -21 515 82 callgsubr
hstemhm
45 518 hintmask 10110000
176 -12 8 callgsubr
rlineto
hintmask 11010000
54 callsubr
                </CharString>
                <CharString name="guillemotleft.cap">
                    54 516 hstem
58 518 vstem
189 54 8 callgsubr
54 callsubr
                </CharString>
                <CharString name="guillemotright">
                    9 -21 23 -21 514 -20 hstemhm
7 518 hintmask 10110000
297 -12 28 callsubr
hintmask 01110000
14 callgsubr
                </CharString>
                <CharString name="guillemotright.cap">
                    54 516 hstem
20 518 vstem
310 54 28 callsubr
14 callgsubr
                </CharString>
                <CharString name="guilsinglleft">
                    3 -21 526 -20 hstem
118 344 vstem
311 -18 29 callgsubr
                </CharString>
                <CharString name="guilsinglleft.cap">
                    48 526 hstem
131 344 vstem
324 48 29 callgsubr
                </CharString>
                <CharString name="guilsinglright">
                    5 -21 hstem
82 343 vstem
127 -16 22 callgsubr
                </CharString>
                <CharString name="guilsinglright.cap">
                    50 526 hstem
95 343 vstem
140 50 22 callgsubr
                </CharString>
                <CharString name="h">
                    -10 68 -37 -21 428 73 202 -20 56 callsubr
hintmask 10111000
63 callgsubr
hintmask 01110100
-15 callsubr
-69 -37 -75 -70 vhcurveto
61 314 -78 -6 -135 -697 94 callgsubr
63 323 rlineto
70 65 58 35 43 hhcurveto
34 16 -20 -37 hvcurveto
hintmask 10110100
-80 -65 -164 -77 vvcurveto
hintmask 10111000
15 callgsubr
                </CharString>
                <CharString name="hbar">
                    -10 68 -37 -21 426 74 79 52 -52 124 56 callsubr
hintmask 10110100
63 callgsubr
hintmask 10110010
57 67 169 98 vvcurveto
52 -23 42 -63 -61 -69 -38 -74 -70 vhcurveto
37 191 rlineto
135 hlineto
10 52 rlineto
-135 hlineto
hintmask 10101010
14 72 -78 -6 rlineto
hintmask 01110010
33 callsubr
-71 hlineto
-10 -53 rlineto
71 hlineto
-112 -578 94 callgsubr
63 322 rlineto
69 64 59 35 43 hhcurveto
34 16 -20 -36 hvcurveto
hintmask 10110010
-80 -65 -163 -77 vvcurveto
hintmask 10110100
15 callgsubr
                </CharString>
                <CharString name="hcoslug">
                    -100 75 4 9 -8 10 -10 14 -4 11 -10 10 -9 7 0 12 -11 11 -7 15 -15 26 -25 26 -15 8 -8 15 -12 12 0 14 -9 10 -10 19 -9 11 2 8 -7 32 71.5 22.5 hstemhm
50 64 10 16 -3 8 5 40 -35 12 -1 12 14 10 -2 10 -10 42 -31 9 -1 7 3 12 -6 11 9 40 -29 13 -9 10 0 12 -4 11 -2 12 -5 16 18 11 10 8 hintmask 001000000000000010000010000010000010000010010000
500 700 rmoveto
-450 hlineto
hintmask 100000000000000000001110000000100000001000000000
-800 450 vlineto
-300 396 rmoveto
-17 11 -11 17 -16 vhcurveto
9 13 5 12 12 vvcurveto
18 -9 11 -13 -12 -8 -9 -13 vhcurveto
49 -64 rmoveto
12 -12 9 -12 9 -11 15 25 3 18 -17 17 -7 -7 -10 -9 -14 -9 rrcurveto
-39 -93 rmoveto
12 9 3 6 8 hvcurveto
64 callgsubr
22 -14 13 rrcurveto
-8 -8 -4 -11 -11 vvcurveto
-23 17 -18 22 vhcurveto
91 34 rmoveto
-22 19 13 -9 15 hhcurveto
15 9 9 13 8 hvcurveto
5 -1 rlineto
-44 -1 -27 -27 -32 hhcurveto
-22 -17 8 26 -25 hvcurveto
-23 -21 -25 -11 -32 hhcurveto
-45 -36 30 40 31 21 24 40 13 hvcurveto
-16 17 -7 13 22 vvcurveto
32 31 32 51 46 25 -30 -26 -10 -2 -8 -5 -7 vhcurveto
20 15 -8 -20 2 hvcurveto
18 12 14 10 19 hhcurveto
21 16 -15 -24 -23 -16 -17 -21 -14 -12 7 12 -6 hvcurveto
-12 -7 -12 -10 -11 -15 rrcurveto
hintmask 000000000000000000001000000000000100000000000000
-72 -105 rmoveto
-8 10 -5 -10 vlineto
hintmask 000000000000000001000000000000000100000000000000
-15 vlineto
-3 1 -1 2 2 1 1 4 1 vhcurveto
4 -1 rlineto
-2 -7 -3 -3 -6 -6 -3 4 41 callgsubr
hintmask 000000000000000000100000000000010000000000000000
15 -5 5 5 7 vlineto
hintmask 000000000000000010000000100000000000000000000000
-75 -21 24 callsubr
48 callsubr
22 hmoveto
-9 callgsubr
hintmask 000000000000000100000000000000000000000100000000
132 -1 rmoveto
0 6 -2 4 -3 -5 -1 -5 41 callgsubr
0 -6 1 -4 5 3 2 4 41 callgsubr
48 callsubr
-120 -9 rmoveto
4 hlineto
hintmask 000000000000000000100010000000000000000000000000
19 -4 5 vlineto
hintmask 000000000000000000001000000010000000000000000000
13 -6 hlineto
4 2 3 3 5 hhcurveto
7 2 -5 -6 hvcurveto
hintmask 000000000000000010000000000000010000000000000000
-14 5 -5 vlineto
hintmask 000000000001000000000000000010000000000000000000
-17 5 3 hlineto
hintmask 000000000000000000100000000010000000000000000000
13 vlineto
3 -1 3 -3 -3 -3 -3 -5 vhcurveto
-11 3 -5 vlineto
48 callsubr
-16 hlineto
-71 5 rmoveto
6 hlineto
hintmask 000000000000000000010010000000000000000000000000
31 -6 5 vlineto
hintmask 000000000000000000001000001000000000000000000000
38 hlineto
hintmask 000000000000000000100000001000000000000000000000
-15 -5 vlineto
8 -2 -1 2 -6 hhcurveto
-8 hlineto
hintmask 000000000000000000010001000000000000000000000000
-14 3 vlineto
4 0 1 5 1 hvcurveto
5 hlineto
hintmask 000000000000000010000000100000000000000000000000
-17 -5 vlineto
5 -1 0 1 -4 hhcurveto
-3 hlineto
hintmask 000000000000000010000001000000000000000000000000
-12 7 -5 vlineto
48 callsubr
-23 hlineto
hintmask 000000000000000001000000000000000100000000000000
133 10 rmoveto
5 hlineto
-4 3 3 -3 3 hhcurveto
3 1 2 1 hvcurveto
hintmask 000000000000000000010000000000000100000000000000
7 -18 -4 12 vvcurveto
4 4 5 7 3 3 -1 -3 2 vhcurveto
1 4 rlineto
5 -10 -5 hlineto
4 -3 -2 1 -3 hhcurveto
-2 -2 -1 -2 hvcurveto
hintmask 000000000001000000000000000000000000100000000000
-5 18 2 -11 vvcurveto
-5 -3 -4 -7 -5 -3 2 2 -2 vhcurveto
-1 -3 rlineto
-5 hlineto
hintmask 000000000000000000010000000000000000100000000000
38 38 rmoveto
-5 5 hlineto
hintmask 000000000000000000001000000000000000000100000000
14 hlineto
hintmask 000000000000000000010000000000000000000100000000
-20 vlineto
4 1 4 3 4 hhcurveto
hintmask 000000000010000000000000000000000000000010000000
7 0 5 -6 0 -9 0 -7 -3 -9 0 flex1
-6 -3 2 4 -2 hvcurveto
-3 -6 rlineto
-4 hlineto
hintmask 100000000000000000001000000000000000000010000000
39 -6 rmoveto
3 3 2 4 hvcurveto
-3 7 -9 18 0 vvcurveto
-3 5 18 -5 -4 hlineto
7 -15 6 15 rlineto
-4 5 13 -5 -4 hlineto
hintmask 000000000100000000000000000000000000000010000000
-10 -24 rlineto
-7 -3 -4 -5 -6 hhcurveto
-6 -3 3 4 3 2 2 3 hvcurveto
hintmask 100000000000000000001000000000000000000010000000
5 1 -5 -2 -2 hvcurveto
hintmask 000000001000000000000000000000000000000000000000
45 -24 rmoveto
-6 -4 vlineto
-2 -4 -2 -3 -3 -3 rrcurveto
2 -2 2 -2 1 1 1 1 1 hflex1
3 -1 rlineto
-5 -1 -2 -4 -6 hhcurveto
hintmask 100000000000000000000000000000000000000001000000
-4 0 -2 2 -3 3 -3 -3 -4 -2 -6 flex1
-7 -5 4 6 6 4 3 6 2 hvcurveto
-3 3 -2 3 4 vvcurveto
hintmask 000000000000100000000000000000000000000000100000
5 4 6 9 6 4 -4 -5 -5 -3 -2 -5 -3 vhcurveto
2 -2 4 -5 3 -3 2 2 2 3 1 2 rrcurveto
-5 6 hlineto
hintmask 000000000010000000000000000000000010000000000000
-114 4 rmoveto
11 4 hlineto
-3 -2 2 2 2 1 1 0 hvcurveto
0 -1 1 -2 -2 -2 -2 -6 vhcurveto
hintmask 100000000000000000000000000000000000000000010000
132 -13 rmoveto
hintmask 000010000000000000000000000000000000000000010000
15 9 8 11 vhcurveto
hintmask 000010000000000000000000000000000000000000000000
5 4 -2 -3 3 hvcurveto
4 6 vlineto
-16 -6 vlineto
hintmask 000000010000000000000000000000000000000000000000
9 -3 -2 3 -6 hhcurveto
-6 -4 -5 -12 hvcurveto
hintmask 010000000000000000000000000000000000000000000000
-11 4 -6 8 vhcurveto
hintmask 000001000000000000000000000000000000000000000000
6 3 6 6 1 hvcurveto
6 hlineto
hintmask 100000000000000000000000000000000000000000000000
-10 -1 -6 -7 -11 hhcurveto
hintmask 100000000000000000000000000000000000000000010000
-13 -8 7 14 hvcurveto
hintmask 000000010000000000000000000000000000000000100000
-29 4 rmoveto
2 1 2 3 3 vvcurveto
3 -2 2 -3 -2 -2 -1 -3 -2 2 -3 3 -3 vhcurveto
hintmask 001000000000000000000000000000000000010000000000
-68 -11 rmoveto
65 callsubr
hintmask 100000000000000000000000000000000000010000000000
-6 -1 -4 -5 -8 hhcurveto
-10 -6 6 9 hvcurveto
hintmask 000000000001000000000000000000000000010000000000
10 7 6 8 11 4 -7 -10 -1 vhcurveto
hintmask 001000000000000000000000000001000000000000000000
-89 hmoveto
65 callsubr
69 callgsubr
-6 -1 -4 -5 -8 hhcurveto
hintmask 100000000000000000000000010000000000000000000000
-10 -6 6 9 hvcurveto
hintmask 000000000001000000000000010000000000000000000000
10 7 6 8 vhcurveto
hintmask 000000000001000000000000000000001000000000000000
11 4 -7 -10 -1 hvcurveto
hintmask 001000000000000000000010000001000000000000000000
-63 2 24 callsubr
252 hmoveto
hintmask 001000000000000000000000000000000000000000000000
36 callgsubr
hintmask 001000000000000000000010000001000000000000000000
36 callsubr
hintmask 000000100000000000000000000001000000010000000000
-138 2 rmoveto
63 callsubr
-70 hmoveto
63 callsubr
hintmask 001000000000000000000000000100000000000000000000
-22 -2 rmoveto
-9 callgsubr
hintmask 001000000000000000000000000000000000000000000000
252 hmoveto
-9 callgsubr
69 callgsubr
-208 -10 rmoveto
4 hlineto
hintmask 000000100000000000000000000000001000000000000000
19 -5 5 5 1 vlineto
hintmask 000000000000001000000000000000001000000000000000
10 7 4 6 4 2 -1 -1 2 vhcurveto
8 2 rlineto
hintmask 001000000000000000000000000000000000100000000000
-39 4 -5 vlineto
hintmask 100000000000000000000000000000000010000000000000
-17 5 4 hlineto
hintmask 000000100000000000000000000000000010000000000000
19 -11 vlineto
hintmask 001000000000000000000000000000000010000000000000
-19 4 -5 vlineto
69 callgsubr
-17 hlineto
hintmask 100000000000000000000000000000000001000000000000
69 5 rmoveto
4 hlineto
hintmask 000000100000000000000000000000000001000000000000
19 -4 5 vlineto
hintmask 000000000001000000000000000000000000000001000000
13 -6 hlineto
5 2 3 2 4 hhcurveto
4 2 -2 -4 -3 -2 -2 -3 -2 -3 1 3 hvcurveto
1 vlineto
-1 -3 -3 -4 -1 hvcurveto
hintmask 001000000000000000000000000000000000000001000000
-12 6 -5 vlineto
hintmask 100000000000000000000000000000000001000000000000
-19 hlineto
hintmask 100000000000000000000010000000000000000000000000
-183 5 rmoveto
6 hlineto
hintmask 000000010000000000000010000000000000000000000000
31 -6 5 vlineto
hintmask 000000000000010000000001000000000000000000000000
21 -5 -5 hlineto
hintmask 000000010000000000000001000000000000000000000000
-12 16 12 -5 5 vlineto
hintmask 000000000000010000000000000100000000000000000000
21 -5 -6 hlineto
hintmask 001000000000000000000000000100000000000000000000
-31 6 -5 vlineto
hintmask 100000000000000000000001000000000000000000000000
-21 5 5 hlineto
hintmask 000100000000000000000001000000000000000000000000
14 -16 vlineto
hintmask 001000000000000000000001000000000000000000000000
-14 5 -5 vlineto
hintmask 100000000000000000000010000000000000000000000000
-21 hlineto
hintmask 001000000000000000000000000000000000000000100000
234 7 rmoveto
-2 2 -4 5 -4 4 rrcurveto
-2 -2 -1 -2 -3 vvcurveto
-4 3 -3 4 2 2 1 2 2 vhcurveto
hintmask 100000000000000000000000000000000000000000000000
111 -2 rmoveto
0 -3 -2 -3 -4 -4 -2 3 41 callgsubr
0 3 2 3 4 4 2 -3 41 callgsubr
endchar
                </CharString>
                <CharString name="hungarumlaut">
                    559 221 hstem
131 421 vstem
165 559 -74 callsubr
endchar
                </CharString>
                <CharString name="hyphen">
                    259 68 hstem
123 310 vstem
433 327 rmoveto
-297 hlineto
-13 -68 rlineto
298 hlineto
endchar
                </CharString>
                <CharString name="i">
                    28 callgsubr
102 131 39 callsubr
55 callgsubr
184 -526 -94 callgsubr
                </CharString>
                <CharString name="iacute">
                    28 callgsubr
230 -20 39 callsubr
208 594 -107 callgsubr
265 -550 -94 callgsubr
                </CharString>
                <CharString name="ibreve">
                    28 callgsubr
96 63 39 callsubr
497 738 -102 callgsubr
-69 -666 -94 callgsubr
                </CharString>
                <CharString name="icircumflex">
                    28 callgsubr
39 callsubr
456 559 -96 callsubr
118 -630 -94 callgsubr
                </CharString>
                <CharString name="idieresis">
                    28 callgsubr
101.5 45 callgsubr
131.5 hstemhm
172 80 hintmask 11011000
470 574 -17 callgsubr
299 -527 -94 callgsubr
                </CharString>
                <CharString name="igrave">
                    28 callgsubr
236 -20 39 callsubr
449 586 -86 callgsubr
44 -509 -94 callgsubr
                </CharString>
                <CharString name="imacron">
                    28 callgsubr
138 66 39 callsubr
515 674 -46 callgsubr
-29 -564 -94 callgsubr
                </CharString>
                <CharString name="iogonek">
                    -208 56 142 69 431 -20 102 131 hstemhm
160 73 -62 81 hintmask 11110100
55 callgsubr
hintmask 11111000
99 -737 71 callsubr
-104 -39 -41 17 33 vvcurveto
41 47 47 193 75 vhcurveto
-9 43 rlineto
hintmask 11110100
-202 -51 -26 19 23 90 90 344 rcurveline
-49 callgsubr
-25 -92 24 -53 92 3 rlinecurve
hintmask 11111000
-81 -45 -30 -44 -42 vvcurveto
-61 79 50 callgsubr
endchar
                </CharString>
                <CharString name="j">
                    -173 76 588 -20 101 133 hstem
315 39.35 vstem
430 574 rmoveto
41 135 -90 -4 -33 -135 rlineto
-346 -743 rmoveto
195 1 59 12 37 37 67 66 -64 161 113 386 -71 1 rcurveline
-219 -45 7 -41 189 18 -83 -323 44 -141 -38 -38 rlinecurve
-19 -19 -25 -3 -187 4 rrcurveto
endchar
                </CharString>
                <CharString name="k">
                    62 callsubr
432 84 hintmask 10011100
403 -6 rmoveto
hintmask 00111100
8 callsubr
hintmask 01011100
12 callgsubr
endchar
                </CharString>
                <CharString name="kcommaaccent">
                    62 callsubr
198 98 136 84 hintmask 10011110
403 -6 rmoveto
hintmask 00111110
8 callsubr
hintmask 01011110
12 callgsubr
-67 -463 -92 callgsubr
                </CharString>
                <CharString name="l">
                    65 callgsubr
vstem
-54 callgsubr
endchar
                </CharString>
                <CharString name="l.ultra">
                    -7 66 570 77 hstem
117 79 255 73 vstem
454 65 rmoveto
-15 40 -145 -70 -79 5 -16 108 rlinecurve
228 174 97 160 120 vvcurveto
66 -35 38 -59 -140 -173 -257 -271 -199 129 -39 208 125 vhcurveto
-50 564 rmoveto
27 20 -20 -40 -84 -70 -131 -185 -154 hvcurveto
222 120 207 88 vhcurveto
endchar
                </CharString>
                <CharString name="lacute">
                    65 callgsubr
vstem
373 806 -107 callgsubr
90 -741 -103 callgsubr
endchar
                </CharString>
                <CharString name="lcaron">
                    65 callgsubr
92 90 vstem
625 798 -32 callgsubr
-252 -738 -103 callgsubr
endchar
                </CharString>
                <CharString name="lcommaaccent">
                    -8 65 572 77 hstemhm
125 79 8 98 149 74 hintmask 11101000
-54 callgsubr
hintmask 11111000
-242 -896 -92 callgsubr
                </CharString>
                <CharString name="ldot">
                    -8 65 206 108 258 39 callgsubr
vstem
-54 callgsubr
174 -366 rmoveto
24 108 rlineto
-88 hlineto
-24 -108 rlineto
endchar
                </CharString>
                <CharString name="less">
                    2 -21 hstem
88 424 vstem
478 599 rmoveto
-378 -263 -12 -67 279 -288 54 53 -255 257 2 10 344 237 rlineto
endchar
                </CharString>
                <CharString name="lessequal">
                    15 67 hstem
32 480 vstem
189 356 rmoveto
323 175 -23 62 -377 -209 -14 -64 312 -184 38 59 -261 153 rlineto
256 -266 68 callsubr
                </CharString>
                <CharString name="lslash">
                    -8 65 572 77 79 58 hstemhm
125 79 -62 54 263 74 hintmask 11101100
142 719 rmoveto
-38 26 -30 39 -29 vhcurveto
42 50 rlineto
-35 27 -18 16 17 vvcurveto
50 188 35 255 -74 vhcurveto
26 63 rlineto
-292 79 -231 -57 -109 vvcurveto
321 -654 -69 callsubr
vhcurveto
hintmask 11110100
7 callgsubr
hvcurveto
-52 callsubr
rrcurveto
hintmask 11101100
-15 callgsubr
hintmask 11110100
-68 callgsubr
endchar
                </CharString>
                <CharString name="m">
                    -9 61 -31 -21 426 75 -9 -20 hstemhm
280 66 41 76 -8 80 hintmask 10011100
526 21 rmoveto
-10 41 rlineto
-42 -16 -11 3 19 vvcurveto
hintmask 10101010
53 72 217 93 vvcurveto
46 -21 24 -37 -37 -46 -27 -53 -48 vhcurveto
52 3 -20 28 -38 hhcurveto
-33 -41 -24 -49 -44 hvcurveto
hintmask 01011010
4 22 4 29 1 13 -71 -5 rcurveline
-24 -144 -21 -110 -46 -233 rrcurveto
75 hlineto
hintmask 01101010
16 81 35 180 20 110 rrcurveto
37 36 31 18 22 hhcurveto
28 2 -30 -50 -10 hvcurveto
-68 -346 rlineto
61 hlineto
72 370 rlineto
38 36 32 18 22 hhcurveto
18 7 -13 -21 hvcurveto
hintmask 10011100
-72 -68 -216 -67 vvcurveto
-53 42 -11 97 48 vhcurveto
endchar
                </CharString>
                <CharString name="macron">
                    607 66 hstem
106 343 vstem
449 673 -46 callgsubr
endchar
                </CharString>
                <CharString name="minus">
                    259 67 hstem
78 413 vstem
491 326 rmoveto
-399 hlineto
-14 -67 71 callgsubr
                </CharString>
                <CharString name="mu">
                    87 callgsubr
166 73 -72 68 -31 -21 483 -20 23 -20 hstemhm
346 78 hintmask 10100110
94 -170 rmoveto
hintmask 10010110
30 177 rlineto
hintmask 11000110
-12 14 18 -5 22 hhcurveto
57 54 39 76 61 hvcurveto
hintmask 10101010
-19 -114 41 -39 147 85 -9 40 rcurveline
-89 -36 -5 17 14 69 71 363 rcurveline
-76 hlineto
-62 -319 rlineto
hintmask 11000110
-72 -62 -51 -36 -45 hhcurveto
-43 -16 33 78 15 hvcurveto
62 319 -78 -6 -128 -663 rlineto
endchar
                </CharString>
                <CharString name="multiply">
                    494 -20 hstem
62 444 vstem
398 92 rmoveto
57 47 -120 150 171 142 -43 55 -172 -143 -121 151 -57 -48 121 -151 -172 -143 44 -54 172 143 rlineto
endchar
                </CharString>
                <CharString name="n">
                    54 callgsubr
hintmask 10011000
514 36 -49 callsubr
                </CharString>
                <CharString name="nacute">
                    54 callgsubr
hintmask 10010100
215 604 -107 callgsubr
hintmask 10011000
299 -568 -49 callsubr
                </CharString>
                <CharString name="naira">
                    0 122 -101 -21 172.5 63 -60.5 64 -63 54 143.5 63.5 -60.5 63.5 -54.5 54 54.5 127 -1 82 callgsubr
hstemhm
8 558 hintmask 1000100110010000
203 494 rmoveto
5 hlineto
69 -263 -125 -2 rlineto
216 -107 rmoveto
-67 263 124 1 -50 -264 rlineto
-267 -122 rmoveto
34 176 rlineto
149 hlineto
46 -176 rlineto
73 hlineto
hintmask 0101001001010000
34 175 rlineto
71 hlineto
12 64 rlineto
-70 hlineto
26 137 70 1 13 64 -70 -2 35 181 rlineto
-62 hlineto
hintmask 0100100100110000
-34 -180 -148 -1 -46 182 -76 -3 rlineto
hintmask 0110010000110000
-35 -181 rlineto
-71 hlineto
-12 -64 71 1 -27 -138 -71 -1 -12 -63 71 1 -34 -173 rlineto
endchar
                </CharString>
                <CharString name="ncaron">
                    9 callsubr
169 -20 56 callsubr
hintmask 10011010
331 566 -91 callsubr
hintmask 10011100
187 -530 -48 callgsubr
endchar
                </CharString>
                <CharString name="ncommaaccent">
                    9 callsubr
hstemhm
173 98 66 81 -16 83 hintmask 10011100
514 36 -48 callgsubr
hintmask 10011010
-383 -305 -92 callgsubr
                </CharString>
                <CharString name="nine">
                    2 -21 263 59 265 65 hstem
97 72 263 75 vstem
110 -19 rmoveto
294 94 103 186 163 vvcurveto
141 -79 68 -107 -123 -101 -92 -132 -165 171 -59 150 129 vhcurveto
-31 -98 -89 -104 -206 -60 rrcurveto
77 368 rmoveto
83 53 65 84 68 58 -42 -120 -12 -1 -13 -1 -13 vhcurveto
-132 -114 -129 46 120 vvcurveto
endchar
                </CharString>
                <CharString name="nine.den">
                    -54 43 20 -21 157 50 hstemhm
88 59 178 61 hintmask 10111000
108 -222 -33 callsubr
vhcurveto
hintmask 01111000
-25 callsubr
hintmask 10111000
-53 callgsubr
                </CharString>
                <CharString name="nine.inf">
                    6 75 callsubr
100 76 callgsubr
120 -162 -79 callsubr
                </CharString>
                <CharString name="nine.num">
                    581 75 callsubr
200 76 callgsubr
220 413 -79 callsubr
                </CharString>
                <CharString name="nine.small">
                    9 -21 168 75 callsubr
123 76 callgsubr
143 -12 -79 callsubr
                </CharString>
                <CharString name="nine.sup">
                    487 75 callsubr
182 76 callgsubr
202 319 -79 callsubr
                </CharString>
                <CharString name="notequal">
                    28 -21 145 85 callgsubr
457 152 rmoveto
14 66 rlineto
-195 hlineto
88 156 rlineto
136 hlineto
14 66 rlineto
-113 hlineto
70 125 -57 20 -81 -145 rlineto
-219 13 callgsubr
194 hlineto
-87 -156 rlineto
-137 13 callgsubr
113 hlineto
-71 -126 57 -19 82 145 rlineto
endchar
                </CharString>
                <CharString name="ntilde">
                    9 callsubr
106 93 callgsubr
56 callsubr
hintmask 10011101
426 639 -83 callsubr
hintmask 10011110
88 -603 -19 callgsubr
hintmask 10101101
-27 callgsubr
hintmask 01011101
-43 callgsubr
hintmask 10101101
-52 callgsubr
hintmask 10011110
15 callgsubr
                </CharString>
                <CharString name="numbersign">
                    3 -21 46 -21 485 -20 149 -20 38 -20 hstemhm
31 510 hintmask 01101100
206 233 rmoveto
35 144 125 21 -35 -145 rlineto
hintmask 10101100
-183 -264 rmoveto
42 175 125 20 rlineto
hintmask 01101100
-42 -177 57 7 43 179 103 17 15 69 -102 -16 35 144 103 17 14 68 -101 -16 41 170 -58 -7 -41 -173 -125 -20 rlineto
hintmask 10110100
42 175 -58 -7 -42 -177 -103 -17 -14 -69 100 16 -34 -144 -102 -16 -15 -69 100 16 -41 -172 rlineto
endchar
                </CharString>
                <CharString name="numero">
                    20 -21 22 -21 112 58 50 62 281 61 -4 -20 hstemhm
359 60 112 61 hintmask 01111011
514 624 rmoveto
-84 -71 -134 -146 -85 29 -39 48 84 72 135 145 85 -30 39 -48 hvcurveto
hintmask 10110111
-322 -624 rmoveto
59 -1 120 620 -65 1 -76 -413 rlineto
-2 hlineto
-30 413 rlineto
-63 hlineto
hintmask 01111011
58 callsubr
66 hlineto
81 443 rlineto
2 hlineto
256 -94 rmoveto
91 43 123 39 18 12 -24 -43 -92 -43 -122 -39 -18 -12 24 43 vhcurveto
96 -237 rmoveto
12 58 rlineto
-201 hlineto
-12 -58 rlineto
endchar
                </CharString>
                <CharString name="o">
                    -7 callgsubr
54 188 -105 callgsubr
                </CharString>
                <CharString name="oacute">
                    -7 callgsubr
220 605 -107 callgsubr
-166 -417 -105 callgsubr
                </CharString>
                <CharString name="obreve">
                    20 callgsubr
75 63 0 callsubr
508 749 -102 callgsubr
-499 -533 -105 callgsubr
                </CharString>
                <CharString name="ocircumflex">
                    -7 callgsubr
467 570 -96 callsubr
-312 -497 -105 callgsubr
                </CharString>
                <CharString name="odieresis">
                    20 callgsubr
-24 callsubr
54 79 284 80 hintmask 11011100
482 585 -63 callgsubr
hintmask 11101100
-77 callsubr
-132 -394 -105 callgsubr
                </CharString>
                <CharString name="oe">
                    -9 63 -62 69 372 66 -63 63 hstemhm
35 75 379 73 hintmask 01011100
280 346 rmoveto
hintmask 10011100
-114 -52 -178 -67 -31 -20 33 62 111 58 176 65 vhcurveto
hintmask 01011100
32 15 -33 -57 hvcurveto
hintmask 01101100
173 87 rmoveto
22 14 -18 -32 -68 -54 -65 -97 -17 hvcurveto
100 16 45 100 54 hhcurveto
66 -374 rmoveto
-12 37 rlineto
-130 -65 -46 29 96 vvcurveto
10 0 10 1 10 vhcurveto
150 21 80 85 104 vvcurveto
hintmask 10011100
65 -33 38 -53 -52 -47 -39 -58 -36 vhcurveto
61 -12 -32 36 -51 hhcurveto
-119 -92 -181 -167 -107 41 -53 65 51 46 37 56 36 hvcurveto
hintmask 01101100
20 -99 77 -35 148 109 rrcurveto
endchar
                </CharString>
                <CharString name="ogonek">
                    -208 56 174 -21 hstem
142 73 vstem
376 33 rmoveto
-167 -58 -67 -62 -54 vvcurveto
-61 79 50 callgsubr
51 callsubr
endchar
                </CharString>
                <CharString name="ograve">
                    -7 callgsubr
461 597 -86 callgsubr
-387 -376 -105 callgsubr
                </CharString>
                <CharString name="ohungarumlaut">
                    -7 callgsubr
221 571 -74 callsubr
-342 -410 -105 callgsubr
                </CharString>
                <CharString name="omacron">
                    20 callgsubr
117 66 0 callsubr
526 685 -46 callgsubr
-459 -431 -105 callgsubr
                </CharString>
                <CharString name="one">
                    0 67 423.5 154.5 0 -20 hstemhm
52 408 hintmask 10110000
441 hmoveto
19 67 rlineto
-151 hlineto
111 578 -77 -6 rlineto
hintmask 11010000
-15 -76 -161 -19 -9 -57 157 7 -83 -427 rlineto
-166 hlineto
-14 -67 rlineto
endchar
                </CharString>
                <CharString name="one.den">
                    -210 -51 callgsubr
50 308 vstem
345 -210 -97 callsubr
endchar
                </CharString>
                <CharString name="one.inf">
                    -150 -51 callgsubr
62 308 vstem
357 -150 -97 callsubr
endchar
                </CharString>
                <CharString name="one.num">
                    425 -51 callgsubr
162 308 vstem
-80 callsubr
endchar
                </CharString>
                <CharString name="one.small">
                    0 -51 callgsubr
85 308 vstem
380 hmoveto
-100 callgsubr
endchar
                </CharString>
                <CharString name="one.sup">
                    331 -51 callgsubr
144 308 vstem
439 331 -97 callsubr
endchar
                </CharString>
                <CharString name="oneeighth">
                    3 callgsubr
94 -50 callsubr
38 callsubr
hintmask 1011111011000000
457 425 rmoveto
13 54 rlineto
-112 hlineto
71 358 -64 -6 -12 -60 -124 -16 -8 -47 121 7 -46 -236 rlineto
-123 hlineto
-11 -54 rlineto
-101 -146 -65 callsubr
hintmask 1101111011000000
5 callsubr
hintmask 1011111101000000
-42 callgsubr
hintmask 1011111011000000
20 callsubr
hintmask 1011111101000000
-84 callsubr
                </CharString>
                <CharString name="onefifth">
                    52 callsubr
94 -20 callgsubr
295 62 vstem
457 425 rmoveto
13 54 rlineto
-112 hlineto
71 358 -64 -6 -12 -60 -124 -16 -8 -47 121 7 -46 -236 rlineto
-123 hlineto
-11 -54 rlineto
-101 -146 -33 callgsubr
                </CharString>
                <CharString name="onehalf">
                    -210 55 287 57 90 -20 callgsubr
307 68 vstem
-93 callsubr
262 -541 -92 callsubr
endchar
                </CharString>
                <CharString name="onequarter">
                    -129 53 355 -20 callgsubr
57 448 vstem
-93 callsubr
295 -460 -93 callgsubr
                </CharString>
                <CharString name="onesixth">
                    -219 60 callgsubr
250 -20 callgsubr
70 75 callgsubr
-93 callsubr
139 -550 -101 callsubr
                </CharString>
                <CharString name="onethird">
                    -214 56 161 -21 149 54 94 -20 callgsubr
292 63 vstem
-93 callsubr
283 -429 -88 callgsubr
                </CharString>
                <CharString name="ordfeminine">
                    117 55 73 59 -58 51 276 53 hstemhm
115 66 167 65 hintmask 11011100
236 304 rmoveto
-29 -26 27 51 98 64 93 81 18 25 -4 -6 26 hvcurveto
-12 -57 -19 -96 -8 -40 rrcurveto
-35 -36 -50 -31 -34 hhcurveto
hintmask 10111100
252 -27 rmoveto
-7 30 -70 -23 -4 15 11 52 rlinecurve
52 260 rlineto
10 -45 -39 5 -35 hhcurveto
-139 -97 -127 -134 hvcurveto
hintmask 11011100
-78 38 -42 52 43 55 33 40 45 vhcurveto
hintmask 10111100
-7 -71 38 -28 109 58 rrcurveto
-399 -105 rmoveto
-10 -55 rlineto
362 hlineto
11 55 rlineto
endchar
                </CharString>
                <CharString name="ordmasculine">
                    117 55 73 54 276 52 hstem
134 66 224 65 vstem
489 474 rmoveto
95 -56 58 -88 -119 -92 -106 -122 -95 56 -59 88 119 92 107 122 vhcurveto
-289 -67 rmoveto
90 54 78 80 55 35 -42 -67 -91 -55 -76 -79 -56 -34 41 67 vhcurveto
-108 -235 rmoveto
-10 -55 rlineto
335 hlineto
10 55 rlineto
endchar
                </CharString>
                <CharString name="oslash">
                    47 callsubr
132 199 -67 callsubr
                </CharString>
                <CharString name="oslashacute">
                    47 callsubr
220 605 -107 callgsubr
-88 -406 -67 callsubr
                </CharString>
                <CharString name="otilde">
                    20 callgsubr
78 93 callgsubr
0 callsubr
431 640 -83 callsubr
-377 -452 -105 callgsubr
                </CharString>
                <CharString name="p">
                    73 callsubr
-9 -20 hstemhm
421 77 hintmask 11010100
80 callgsubr
21 108 20 108 9 48 rrcurveto
49 48 66 43 45 48 callgsubr
hintmask 10110100
8 39 11 61 13 66 rrcurveto
hintmask 11010100
-5 27 25 51 callgsubr
-57 -72 -48 -58 -58 hvcurveto
hintmask 11001100
6 35 7 47 2 15 -75 -5 rcurveline
-25 -162 -35 -175 -63 -327 rrcurveto
endchar
                </CharString>
                <CharString name="paragraph">
                    97 67 458 -20 hstem
76 75 vstem
392 164 rmoveto
-32 2 -28 6 -25 7 72 370 rcurveline
27 2 29 0 32 -4 rrcurveto
-316 -197 rmoveto
88 55 77 116 26 vhcurveto
-66 -343 rlineto
-69 33 -36 53 66 vvcurveto
101 -458 rmoveto
42 217 26 -6 28 -4 31 -2 rlinecurve
-37 -187 69 8 138 704 rlineto
-298 22 -175 -133 -175 vvcurveto
-95 55 -73 100 -40 vhcurveto
-47 -244 rlineto
endchar
                </CharString>
                <CharString name="parenleft">
                    -203 919 hstem
117 77 vstem
491 716 -13 callgsubr
                </CharString>
                <CharString name="parenleft.cap">
                    -154 919 hstem
127 77 vstem
501 765 -13 callgsubr
                </CharString>
                <CharString name="parenright">
                    -212 919 hstem
350 76 vstem
52 -212 -13 callsubr
                </CharString>
                <CharString name="parenright.cap">
                    -163 919 hstem
360 76 vstem
62 -163 -13 callsubr
                </CharString>
                <CharString name="percent">
                    8 64 callgsubr
634 -20 26 -20 hstemhm
116 173 26 173 hintmask 01011000
222 633 rmoveto
-53 -53 -73 -87 -62 29 -35 38 53 53 72 88 61 -29 36 -38 hvcurveto
hintmask 01101000
329 -44 rmoveto
-46 38 -452 -596 45 -38 rlineto
hintmask 10011100
284 -6 rmoveto
53 53 76 84 62 -29 35 -38 -53 -53 -77 -85 -60 29 -35 38 hvcurveto
endchar
                </CharString>
                <CharString name="period">
                    0 116 hstem
176 132 vstem
285 hmoveto
23 116 rlineto
-110 hlineto
-22 -116 rlineto
endchar
                </CharString>
                <CharString name="periodcentered">
                    248 116 hstem
210 138 vstem
326 248 rmoveto
22 116 rlineto
-115 hlineto
-23 -116 rlineto
endchar
                </CharString>
                <CharString name="peso">
                    21 -21 372 65 -60 57 124 67 hstemhm
439 73 hintmask 10111000
439 434 rmoveto
-233 hlineto
25 124 138 14 66 -59 4 -79 rlinecurve
-267 -177 rmoveto
23 120 rlineto
236 hlineto
-26 -76 -90 -48 -143 4 rrcurveto
hintmask 11011000
391 115 rmoveto
12 65 rlineto
-63 hlineto
120 -101 94 -245 -33 vhcurveto
-35 -181 rlineto
-75 -6 callsubr
76 hlineto
-72 -372 rlineto
75 hlineto
36 183 184 18 124 67 36 104 rlinecurve
endchar
                </CharString>
                <CharString name="plus">
                    259 67 hstem
61 448 vstem
495 259 rmoveto
14 67 rlineto
-182 hlineto
36 187 rlineto
-71 hlineto
-36 -187 rlineto
-182 hlineto
-13 -67 rlineto
182 hlineto
-37 -188 rlineto
71 hlineto
37 188 rlineto
endchar
                </CharString>
                <CharString name="plusminus">
                    62 65 171 66 hstem
33 475 vstem
448 62 rmoveto
12 65 rlineto
-172 hlineto
34 171 rlineto
173 hlineto
13 66 rlineto
-173 hlineto
35 181 rlineto
-72 hlineto
-35 -181 rlineto
-173 hlineto
-14 -66 rlineto
174 hlineto
-34 -171 rlineto
-170 -6 callsubr
endchar
                </CharString>
                <CharString name="published">
                    7 45 516 43 callsubr
150 125 147 217 152 -87 90 25 callgsubr
-74 -131 -179 -99 -132 -120 -92 -70 75 134 vhcurveto
127 -114 rmoveto
20 105 rlineto
104 13 66 48 70 vvcurveto
63 -50 43 -130 -19 vhcurveto
-62 -323 rlineto
endchar
                </CharString>
                <CharString name="q">
                    -180 71 99 72 374 65 hstem
52 77 181 80 vstem
502 -132 rmoveto
-9 41 -103 -32 -7 8 11 61 rlinecurve
105 530 rlineto
14 -46 -56 11 -44 hhcurveto
-180 -121 -167 -181 -109 50 -54 64 55 68 41 53 56 hvcurveto
-30 -159 -21 -113 49 -27 159 83 rlinecurve
-300 194 rmoveto
-40 -33 35 75 133 77 131 102 26 38 -6 -11 38 hvcurveto
-53 -273 rlineto
-46 -48 -62 -38 -45 hhcurveto
endchar
                </CharString>
                <CharString name="question">
                    0 109 hstem
427 89 vstem
140 600 rmoveto
190 -22 97 -30 -73 vvcurveto
-57 -58 -54 -176 -91 vhcurveto
25 -43 rlineto
215 108 83 81 84 vvcurveto
95 -116 55 -244 26 vhcurveto
69 -679 rmoveto
22 109 rlineto
-107 hlineto
-22 -109 rlineto
endchar
                </CharString>
                <CharString name="questiondown">
                    511 109 hstem
60 88 vstem
350 620 rmoveto
-23 -109 rlineto
107 hlineto
23 109 rlineto
-22 -600 rmoveto
-189 22 -98 30 73 vvcurveto
57 58 54 177 91 vhcurveto
-25 43 rlineto
-215 -108 -83 -81 -84 vvcurveto
-95 115 -55 243 -26 vhcurveto
endchar
                </CharString>
                <CharString name="quotedbl">
                    384 285 hstem
158 357 vstem
426 384 rmoveto
85 249 4 36 rlineto
-96 hlineto
-48 -285 rlineto
-158 hmoveto
85 249 4 36 rlineto
-96 hlineto
-48 -285 rlineto
endchar
                </CharString>
                <CharString name="quotedblbase">
                    87 callgsubr
hstem
98 89 callgsubr
227 -156 rmoveto
31 -20 107 88 49 84 4 77 callsubr
-3 13 -116 -17 -71 -79 -86 rlinecurve
-213 hmoveto
31 -20 104 88 49 83 4 77 callsubr
-3 14 91 callgsubr
-77 -86 rlinecurve
endchar
                </CharString>
                <CharString name="quotedblleft">
                    392 296 hstem
137 89 callgsubr
541 669 rmoveto
-31 19 -104 -87 -49 -84 79 callgsubr
16 69 77 87 rlinecurve
-213 hmoveto
-32 19 -106 -87 -49 -85 79 callgsubr
17 70 79 87 rlinecurve
endchar
                </CharString>
                <CharString name="quotedblright">
                    371 296 hstem
201 89 callgsubr
330 390 rmoveto
31 -19 107 88 48 84 5 77 callsubr
-4 13 91 callgsubr
-79 -87 rlinecurve
-214 hmoveto
31 -19 105 88 48 83 5 77 callsubr
-3 13 91 callgsubr
-77 -87 rlinecurve
endchar
                </CharString>
                <CharString name="quoteleft">
                    392 296 hstem
240 106 vstem
432 669 rmoveto
-32 19 -107 -87 -48 -85 -5 -124 rlinecurve
110 4 -14 116 16 70 80 87 rlinecurve
endchar
                </CharString>
                <CharString name="quoteright">
                    371 296 hstem
307 105 vstem
221 390 rmoveto
32 -19 107 88 48 84 4 124 rlinecurve
-109 -4 14 91 callgsubr
-79 -87 rlinecurve
endchar
                </CharString>
                <CharString name="quotesinglbase">
                    87 callgsubr
hstem
206 106 vstem
120 -156 rmoveto
32 -20 107 88 48 84 5 124 rlinecurve
-110 -3 14 -116 -16 -71 -80 -86 rlinecurve
endchar
                </CharString>
                <CharString name="quotesingle">
                    384 285 hstem
264 148 vstem
320 384 rmoveto
89 249 3 36 rlineto
-99 hlineto
-49 -285 rlineto
endchar
                </CharString>
                <CharString name="r">
                    22 callsubr
507 29 -75 callsubr
                </CharString>
                <CharString name="racute">
                    22 callsubr
260 612 -107 callgsubr
247 -583 -75 callsubr
                </CharString>
                <CharString name="rcaron">
                    22 callsubr
365 574 -91 callsubr
146 -545 -75 callsubr
                </CharString>
                <CharString name="rcommaaccent">
                    -9 63 443 -20 hstemhm
128 136 -109 98 43 80 hintmask 11011000
507 29 -5 callsubr
rlineto
hintmask 11101000
-64 -29 -74 -20 -61 -7 rrcurveto
-66 callsubr
rrcurveto
hintmask 11011000
16 callsubr
-394 -277 -92 callgsubr
                </CharString>
                <CharString name="registered">
                    195 41 170.5 146.5 80 41 hstem
85 45 363 45 vstem
327 674 rmoveto
-141 -101 -110 -156 -132 82 -81 129 141 101 110 156 132 -82 81 -129 hvcurveto
-1 -41 rmoveto
99 68 -64 -113 -135 -84 -85 -112 -99 -68 64 114 134 84 85 112 hvcurveto
25 -312 rmoveto
51 6 -64 91 rlineto
52 22 19 26 28 vvcurveto
40 -38 31 -116 -16 vhcurveto
-44 -225 rlineto
46 hlineto
16 81 19 3 rlineto
endchar
                </CharString>
                <CharString name="registered.alt">
                    7 45 228.5 195.5 92 43 callsubr
154 121 142 221 151 -87 92 25 callgsubr
-77 -131 -183 -95 -125 -124 -92 -70 75 134 vhcurveto
230 -112 rmoveto
58 7 -70 137 rlineto
56 28 35 37 39 vvcurveto
52 -48 41 -127 -18 vhcurveto
-62 -320 rlineto
52 hlineto
25 127 19 3 rlineto
endchar
                </CharString>
                <CharString name="ring">
                    547 210 hstem
209 265 vstem
349 757 -56 callsubr
endchar
                </CharString>
                <CharString name="ruble">
                    0 179 -58 58 89 62 229 65 hstemhm
470 76 hintmask 01111000
470 456 rmoveto
-86 -81 -39 -163 -1 vhcurveto
44 229 rlineto
140 12 60 -42 -73 vvcurveto
hintmask 10111000
-308 -456 rmoveto
hintmask 01111000
23 121 rlineto
212 hlineto
17 58 rlineto
-217 hlineto
17 91 rlineto
225 14 107 71 113 vvcurveto
109 -99 70 -243 -29 vhcurveto
-55 -288 rlineto
-86 hlineto
-11 -62 rlineto
29 28 0 28 hhcurveto
-17 -87 rlineto
-86 hlineto
-12 -61 rlineto
86 hlineto
hintmask 10111000
-23 -120 rlineto
endchar
                </CharString>
                <CharString name="rupee">
                    -7 64 -36 64 callgsubr
555 63 hstemhm
278 66 46 131 -71 71 hintmask 10011010
209 -5 rmoveto
hintmask 00111010
67 11 -51 269 rlineto
75 75 44 72 83 vvcurveto
87 -56 47 -136 -19 vhcurveto
hintmask 01011010
-23 callsubr
64 hlineto
111 561 rlineto
48 2 23 -24 -49 vvcurveto
-64 -36 -66 -81 -81 vhcurveto
-3 vlineto
hintmask 10011010
360 -147 rmoveto
75 -40 79 -17 69 vhcurveto
hintmask 10011100
106 78 -9 72 -51 hhcurveto
-48 -44 -70 -79 -15 2 -15 2 -15 hvcurveto
-20 -26 -25 -29 -34 -35 20 -27 rcurveline
hintmask 10011010
27 23 24 22 21 21 rrcurveto
17 -59 26 -56 -48 vvcurveto
-49 -15 -29 -123 18 vhcurveto
-1 -69 rlineto
175 -14 35 76 74 vvcurveto
endchar
                </CharString>
                <CharString name="rupeeindia">
                    6 -21 380 58 129 68 hstem
63 495 vstem
439 28 rmoveto
-119 106 -65 53 -79 25 129 20 87 58 22 75 rrcurveto
89 hlineto
10 58 rlineto
-94 hlineto
-7 53 -36 50 -68 26 rrcurveto
232 hlineto
18 68 rlineto
-406 hlineto
-17 -67 141 -14 58 -54 10 -62 rlinecurve
-231 hlineto
-11 -58 rlineto
236 hlineto
-21 -60 -75 -49 -155 -11 -24 -59 rcurveline
125 -36 51 -44 135 -121 rrcurveto
endchar
                </CharString>
                <CharString name="s">
                    35 callgsubr
463 130 -72 callsubr
                </CharString>
                <CharString name="sacute">
                    35 callgsubr
231 634 -107 callgsubr
232 -504 -72 callsubr
                </CharString>
                <CharString name="scaron">
                    35 callgsubr
347 596 -91 callsubr
120 -466 -72 callsubr
                </CharString>
                <CharString name="scedilla">
                    -52 112 -69 69 -42 -21 hstemhm
236 149 -106 70 37 77 hintmask 10001100
279 -184 rmoveto
70 2 rlineto
hintmask 00101100
6 100 -29 58 -45 21 rrcurveto
140 17 42 57 59 vvcurveto
45 callsubr
hintmask 01010000
-69 callgsubr
hintmask 01001100
-28 callsubr
-1 24 22 -1 21 hhcurveto
-35 -21 -31 -44 -29 -69 42 -13 rcurveline
hintmask 10001100
-7 callsubr
endchar
                </CharString>
                <CharString name="schwa">
                    -12 65 206 47 126 68 hstem
53 75 283 76 vstem
192 -12 rmoveto
169 126 173 155 164 -142 90 -265 -135 hvcurveto
10 -42 rlineto
227 75 94 -33 -129 vvcurveto
-229 -17 -129 -70 -114 vvcurveto
-72 53 -45 86 vhcurveto
19 65 rmoveto
-51 -32 28 39 82 110 45 169 12 hvcurveto
-103 -17 -73 -103 -106 hhcurveto
endchar
                </CharString>
                <CharString name="scommaaccent">
                    -7 67 hstemhm
163 98 -25 149 1 77 hintmask 11010000
463 130 rmoveto
45 callsubr
hintmask 10100000
-69 callgsubr
hintmask 11010000
-35 callsubr
-342 -398 -92 callgsubr
                </CharString>
                <CharString name="section">
                    -108 65 609 65 hstemhm
69 73 20 80 92 80 0 74 hintmask 11101000
142 252 rmoveto
45 64 30 71 13 vhcurveto
hintmask 11100100
66 -38 71 -28 -42 vvcurveto
-32 -43 -27 -101 -23 vhcurveto
hintmask 11101000
-65 31 -63 29 42 vvcurveto
272 -237 rmoveto
46 -39 32 -49 28 vhcurveto
hintmask 11110100
106 29 56 37 57 112 -246 31 99 vvcurveto
44 42 36 59 57 32 -30 -72 10 vhcurveto
70 14 -13 100 -44 54 -93 -1 rlinecurve
-116 -84 -76 -79 -45 28 -33 38 -28 hvcurveto
hintmask 11101000
-89 -19 -70 -43 -69 -121 265 -29 -80 vvcurveto
-46 -74 -34 -225 59 vhcurveto
-17 -75 rlineto
283 -60 113 80 82 vvcurveto
endchar
                </CharString>
                <CharString name="semicolon">
                    87 callgsubr
506 116 hstem
201 105 vstem
351 330 30 callsubr
-127 -488 rmoveto
32 -18 108 90 47 83 5 121 rlinecurve
-108 -3 11 91 callgsubr
-78 -87 rlinecurve
endchar
                </CharString>
                <CharString name="servicemark">
                    288 48 210 75 -39 46 -8 82 callgsubr
hstemhm
102 53 37 53 141.5 37.5 hintmask 10100111
395 345 rmoveto
28 hlineto
hintmask 11000111
67 callsubr
hintmask 10010111
67 callgsubr
hintmask 10001111
-19 203 88 callsubr
hintmask 11000111
49 255 rlineto
2 hlineto
hintmask 10100111
-98 -7 rmoveto
58 -6 -25 31 -46 hhcurveto
-59 -42 -44 -53 hvcurveto
-75 90 -36 -52 vvcurveto
-34 -34 -11 -96 30 vhcurveto
-10 -53 rlineto
140 -35 53 50 57 71 -90 36 59 vvcurveto
27 17 17 22 21 12 -17 -34 5 vhcurveto
endchar
                </CharString>
                <CharString name="seven">
                    16 -21 29 -21 546 71 hstemhm
103 456 hintmask 10110000
183 -5 rmoveto
100 188 121 192 141 181 14 64 rcurveline
-403 hlineto
-15 -71 rlineto
318 -4 hlineto
hintmask 01110000
-140 -176 -118 -182 -98 -184 rrcurveto
endchar
                </CharString>
                <CharString name="seven.den">
                    131 55 hstem
93 321 vstem
161 -214 -71 callgsubr
endchar
                </CharString>
                <CharString name="seven.inf">
                    191 55 hstem
105 321 vstem
173 -154 -71 callgsubr
endchar
                </CharString>
                <CharString name="seven.num">
                    766 55 hstem
205 321 vstem
273 421 -71 callgsubr
endchar
                </CharString>
                <CharString name="seven.small">
                    17 -21 28 -21 338 55 hstemhm
128 321 hintmask 10110000
196 -4 -62 callsubr
rlineto
hintmask 01110000
-1 callgsubr
rrcurveto
endchar
                </CharString>
                <CharString name="seven.sup">
                    672 55 hstem
187 321 vstem
255 327 -71 callgsubr
endchar
                </CharString>
                <CharString name="seveneighths">
                    3 callgsubr
435 55 38 callsubr
hintmask 1011110110000000
273 421 -71 callgsubr
-144 -149 -65 callsubr
hintmask 1101110110000000
5 callsubr
hintmask 1011111010000000
-42 callgsubr
hintmask 1011110110000000
20 callsubr
hintmask 1011111010000000
-84 callsubr
                </CharString>
                <CharString name="six">
                    -11 64 266 59 262 -20 hstem
69 74 264 72 vstem
255 -11 rmoveto
124 100 92 132 164 -172 60 -150 -130 hvcurveto
31 98 88 105 207 60 -17 70 rcurveline
-295 -93 -102 -187 -162 vvcurveto
-141 79 -68 107 vhcurveto
15 64 rmoveto
-68 -59 43 119 12 1 13 1 13 hvcurveto
132 115 130 -47 -119 vvcurveto
-84 -54 -65 -83 vhcurveto
endchar
                </CharString>
                <CharString name="six.den">
                    -219 60 callgsubr
hstem
70 75 callgsubr
211 -219 -101 callsubr
                </CharString>
                <CharString name="six.inf">
                    -159 60 callgsubr
hstem
82 75 callgsubr
223 -159 -101 callsubr
                </CharString>
                <CharString name="six.num">
                    416 60 callgsubr
-41 -20 hstemhm
182 60 callsubr
hintmask 11011000
323 416 rmoveto
88 69 57 84 hvcurveto
hintmask 10111000
103 -122 41 -106 -78 vhcurveto
-56 callgsubr
hintmask 11011000
-79 callgsubr
                </CharString>
                <CharString name="six.small">
                    -9 60 callgsubr
hstem
105 75 callgsubr
246 -9 -101 callsubr
                </CharString>
                <CharString name="six.sup">
                    322 60 callgsubr
hstem
164 75 callgsubr
305 322 -101 callsubr
                </CharString>
                <CharString name="slash">
                    -182 900 hstem
-63 676 vstem
550 718 rmoveto
-613 -880 70 -20 606 871 rlineto
endchar
                </CharString>
                <CharString name="space">
                    endchar
                </CharString>
                <CharString name="sterling">
                    -7 72 -57 -21 46 32 193 60 243 73 hstemhm
151 82 223 76 hintmask 10011110
492 132 rmoveto
-35 19 -60 -120 -57 31 -149 33 rlinecurve
19 48 9 57 7 58 rrcurveto
186 hlineto
11 60 rlineto
-190 hlineto
7 57 9 55 21 42 rrcurveto
51 26 40 38 50 hhcurveto
43 27 -27 -93 hvcurveto
76 4 rlineto
123 3 -39 66 -92 hhcurveto
-91 -73 -70 -73 -37 hvcurveto
-28 -56 -9 -57 -8 -60 rrcurveto
-75 hlineto
-12 -60 rlineto
80 hlineto
-6 -49 -8 -51 -18 -53 rrcurveto
hintmask 01111110
5 -141 -31 -123 102 hhcurveto
38 37 16 30 28 hvcurveto
hintmask 10011110
196 -48 76 -41 68 188 rrcurveto
endchar
                </CharString>
                <CharString name="t">
                    56 callgsubr
hstem
148 78 vstem
459 52 -60 callgsubr
endchar
                </CharString>
                <CharString name="tcaron">
                    56 callgsubr
hstem
148 78 218 90 vstem
444 829 -32 callgsubr
-75 -782 -60 callgsubr
endchar
                </CharString>
                <CharString name="tcommaaccent">
                    56 callgsubr
hstemhm
148 78 -45 98 hintmask 11110000
459 52 -60 callgsubr
hintmask 11101000
-320 -323 -92 callgsubr
                </CharString>
                <CharString name="thorn">
                    73 callsubr
201 -20 hstemhm
421 77 hintmask 11011100
80 callgsubr
52 266 rlineto
49 48 65 41 44 48 callgsubr
hintmask 10111100
32 166 rlineto
hintmask 11011100
-5 28 24 51 callgsubr
-55 -70 -46 -55 -57 hvcurveto
59 302 -77 -6 -170 -873 rlineto
endchar
                </CharString>
                <CharString name="three">
                    -5 71 -45 -21 551 69 hstemhm
396 75 hintmask 10110000
471 172 rmoveto
67 -56 65 -164 44 vhcurveto
270 206 8 66 rlineto
-360 hlineto
-13 -69 rlineto
278 hlineto
-273 -206 -5 -37 rlineto
179 -43 61 -51 -54 vvcurveto
-57 -64 -59 -269 31 vhcurveto
hintmask 01110000
-9 -75 rlineto
hintmask 10110000
316 -29 101 107 94 vvcurveto
endchar
                </CharString>
                <CharString name="three.den">
                    -214 56 161 -21 149 54 hstem
292 63 vstem
355 -98 -88 callgsubr
                </CharString>
                <CharString name="three.inf">
                    -154 56 289 54 hstem
304 63 vstem
367 -38 -88 callgsubr
                </CharString>
                <CharString name="three.num">
                    421 17 callsubr
404 63 hintmask 10111000
-54 callsubr
hintmask 11011000
-26 callsubr
hintmask 10111000
-14 callsubr
endchar
                </CharString>
                <CharString name="three.small">
                    -4 56 -31 -21 341 54 hstemhm
327 63 hintmask 10110000
390 112 -87 callgsubr
hintmask 01110000
78 callgsubr
hintmask 10110000
-14 callsubr
endchar
                </CharString>
                <CharString name="three.sup">
                    327 56 289 54 hstem
386 63 vstem
449 443 -88 callgsubr
                </CharString>
                <CharString name="threeeighths">
                    3 callgsubr
90 56 140 -20 47 -20 142 54 38 callsubr
56 63 hintmask 1011110110111000
-54 callsubr
hintmask 1011111010111000
-26 callsubr
hintmask 1011110110111000
-14 callsubr
-406 -258 -65 callsubr
hintmask 1101110110111000
5 callsubr
hintmask 1011110111011000
-42 callgsubr
hintmask 1011110110111000
20 callsubr
hintmask 1011110111011000
-84 callsubr
                </CharString>
                <CharString name="threefifths">
                    52 callsubr
94 66 callsubr
295 62 47 63 hintmask 1111101111000000
-54 callsubr
hintmask 1111110111000000
-26 callsubr
hintmask 1111101111000000
-14 callsubr
-406 -258 -33 callgsubr
                </CharString>
                <CharString name="threequarters">
                    -129 53 355 66 callsubr
404 63 hintmask 11101110
-54 callsubr
hintmask 11110110
-26 callsubr
hintmask 11101110
-14 callsubr
-406 -258 -67 callgsubr
295 -460 -93 callgsubr
                </CharString>
                <CharString name="tilde">
                    568 93 callgsubr
-27 -20 hstemhm
72 417 hintmask 10110000
355 628 rmoveto
hintmask 11010000
-72 callgsubr
hintmask 10110000
-44 callgsubr
endchar
                </CharString>
                <CharString name="trademark">
                    573 47 -47 48 hstemhm
386.5 37.5 hintmask 10100000
299 620 rmoveto
-195 hlineto
-9 -47 rlineto
74 hlineto
-55 -281 rlineto
51 hlineto
55 281 rlineto
69 hlineto
hintmask 01100000
116 48 rmoveto
88 callsubr
49 255 rlineto
2 hlineto
17 -201 rlineto
28 hlineto
67 callsubr
hintmask 10100000
67 callgsubr
endchar
                </CharString>
                <CharString name="two">
                    0 69 482 75 hstem
420 79 vstem
437 hmoveto
14 69 rlineto
-301 hlineto
223 151 126 106 137 vvcurveto
128 -115 60 -223 -35 vhcurveto
-12 -75 rlineto
201 31 70 -46 -83 vvcurveto
-114 -138 -104 -240 -163 vhcurveto
1 -62 rlineto
endchar
                </CharString>
                <CharString name="two.den">
                    -210 40 callsubr
307 68 vstem
334 -210 -92 callsubr
endchar
                </CharString>
                <CharString name="two.inf">
                    -150 40 callsubr
319 68 vstem
346 -150 -92 callsubr
endchar
                </CharString>
                <CharString name="two.num">
                    425 40 callsubr
419 -16 callgsubr
endchar
                </CharString>
                <CharString name="two.small">
                    0 40 callsubr
342 68 vstem
369 hmoveto
-96 callgsubr
endchar
                </CharString>
                <CharString name="two.sup">
                    331 40 callsubr
401 68 vstem
428 331 -92 callsubr
endchar
                </CharString>
                <CharString name="twofifths">
                    52 callsubr
94 52 94 40 callsubr
295 62 62 68 vstem
446 425 rmoveto
12 55 rlineto
-203 hlineto
149 91 83 66 82 vvcurveto
81 -83 42 -166 -25 vhcurveto
-9 -56 rlineto
142 19 48 -27 -49 vvcurveto
-67 -97 -64 -161 -98 vhcurveto
1 -50 rlineto
-101 -146 -33 callgsubr
                </CharString>
                <CharString name="twothirds">
                    -214 56 161 -21 149 54 94 52 94 40 callsubr
292 63 64 -30 callsubr
283 -429 -88 callgsubr
                </CharString>
                <CharString name="u">
                    -16 callsubr
519 37 -89 callgsubr
                </CharString>
                <CharString name="uacute">
                    -27 callsubr
229 -20 37 callsubr
231 596 -107 callgsubr
288 -559 -101 callgsubr
                </CharString>
                <CharString name="ubreve">
                    -27 callsubr
95 63 37 callsubr
520 740 -102 callgsubr
-46 -675 -101 callgsubr
                </CharString>
                <CharString name="ucircumflex">
                    -16 callsubr
479 561 -96 callsubr
141 -639 -89 callgsubr
                </CharString>
                <CharString name="udieresis">
                    -27 callsubr
100.5 -18 callsubr
37 callsubr
493 576 -63 callgsubr
-77 callsubr
322 -536 -101 callgsubr
                </CharString>
                <CharString name="ugrave">
                    -16 callsubr
472 588 -86 callgsubr
67 -518 -89 callgsubr
                </CharString>
                <CharString name="uhungarumlaut">
                    -16 callsubr
233 562 -74 callsubr
111 -552 -89 callgsubr
                </CharString>
                <CharString name="umacron">
                    -27 callsubr
137 66 37 callsubr
538 676 -46 callgsubr
-6 -573 -101 callgsubr
                </CharString>
                <CharString name="underscore">
                    -112 62 hstem
-33 498 vstem
465 -50 rmoveto
-486 hlineto
-12 -62 rlineto
486 hlineto
endchar
                </CharString>
                <CharString name="underscore.alt">
                    -112 62 hstem
-70 581 vstem
511 -50 rmoveto
-570 hlineto
-11 -62 rlineto
569 hlineto
endchar
                </CharString>
                <CharString name="uni00A0">
                    endchar
                </CharString>
                <CharString name="uogonek">
                    -208 56 141 74 -40 -21 35 22 431 -20 23 -20 81 callsubr
106 73 13 77 hintmask 1001011110000000
488 29 callsubr
40 42 51 143 65 vhcurveto
hintmask 1001101010000000
-34 callsubr
-42 callsubr
hintmask 1100011010000000
-50 callgsubr
-80 callgsubr
56 61 40 75 67 hvcurveto
hintmask 1010011010000000
-9 -57 9 -34 30 -11 rrcurveto
hintmask 1100011110000000
-84 -48 -35 -50 -45 vvcurveto
hintmask 1001011110000000
-61 78 50 callgsubr
endchar
                </CharString>
                <CharString name="uring">
                    -27 callsubr
77 210 37 callsubr
376 760 -56 callsubr
143 -723 -101 callgsubr
                </CharString>
                <CharString name="v">
                    -4 81 413 91 callsubr
92 460 hintmask 10110000
246 77 rmoveto
-8 hlineto
-26 139 -23 139 -19 137 -78 -5 rcurveline
22 -162 29 -165 33 -164 rrcurveto
99 hlineto
hintmask 11010000
95 161 96 172 86 161 rrcurveto
-82 hlineto
hintmask 10110000
-72 -137 -73 -138 -79 -138 rrcurveto
endchar
                </CharString>
                <CharString name="w">
                    62 callgsubr
324 hmoveto
-40 callsubr
                </CharString>
                <CharString name="wacute">
                    31 callgsubr
229 -20 90 callsubr
hintmask 01111000
226 592 -107 callgsubr
98 -592 -40 callgsubr
                </CharString>
                <CharString name="wcircumflex">
                    62 callgsubr
473 557 -96 callsubr
-48 -672 rmoveto
-40 callsubr
                </CharString>
                <CharString name="wdieresis">
                    31 callgsubr
100.5 52 callgsubr
67 484 hintmask 01101100
488 572 -63 callgsubr
hintmask 01110100
-77 callsubr
132 -569 12 callsubr
hintmask 10110100
-87 callsubr
                </CharString>
                <CharString name="wgrave">
                    31 callgsubr
235 -20 90 callsubr
hintmask 01111000
467 584 -86 callgsubr
-123 -551 -40 callgsubr
                </CharString>
                <CharString name="x">
                    19 -21 23 -21 24 -21 487 91 callsubr
-3 551 hintmask 10001100
366 -2 rmoveto
hintmask 00110100
86 5 -129 243 225 244 rlineto
-85 hlineto
-178 -199 rlineto
hintmask 01001100
-107 201 -85 -5 129 -242 -225 -245 rlineto
85 hlineto
179 199 rlineto
endchar
                </CharString>
                <CharString name="y">
                    -29 callgsubr
419 -82 -97 callgsubr
                </CharString>
                <CharString name="yacute">
                    -29 callgsubr
228 602 -107 callgsubr
191 -684 -97 callgsubr
                </CharString>
                <CharString name="ycircumflex">
                    -29 callgsubr
475 567 -96 callsubr
45 -764 -97 callgsubr
                </CharString>
                <CharString name="ydieresis">
                    -171 72 -72 78 120 71 393 -20 28 -28 callgsubr
69 80 218 68 hintmask 1010101110000000
490 582 -63 callgsubr
hintmask 1010110110000000
-77 callsubr
225 -661 -75 callgsubr
hintmask 0111010110000000
-76 callgsubr
hintmask 1010110110000000
-3 callsubr
                </CharString>
                <CharString name="yen">
                    0 181 -60 60 94 60 285 91 callsubr
39 548 hintmask 01101100
460 121 rmoveto
13 60 rlineto
-173 hlineto
10 55 29 39 rlineto
152 hlineto
11 60 rlineto
-120 hlineto
hintmask 01110100
205 285 rlineto
-83 hlineto
-213 -310 rlineto
hintmask 01101100
-102 312 -79 -4 96 -283 rlineto
-126 hlineto
-11 -60 rlineto
157 hlineto
11 -33 -12 -61 rlineto
-175 hlineto
-11 -60 rlineto
174 hlineto
hintmask 10101100
-24 -121 rlineto
77 hlineto
hintmask 01101100
23 121 rlineto
endchar
                </CharString>
                <CharString name="ygrave">
                    -29 callgsubr
469 594 -86 callgsubr
-30 -643 -97 callgsubr
                </CharString>
                <CharString name="z">
                    74 callgsubr
90 callgsubr
426 hmoveto
-45 callgsubr
                </CharString>
                <CharString name="zacute">
                    74 callgsubr
209 -20 90 callgsubr
221 593 -107 callgsubr
205 -593 rmoveto
-45 callgsubr
                </CharString>
                <CharString name="zcaron">
                    74 callgsubr
141 -20 90 -20 24 -20 hstemhm
31 511 hintmask 11101100
337 555 rmoveto
hintmask 11110100
-63 callsubr
rlineto
hintmask 11101100
-62 callgsubr
93 -555 rmoveto
-45 callgsubr
                </CharString>
                <CharString name="zdotaccent">
                    74 callgsubr
26 callsubr
-18 callsubr
90 callgsubr
376 572 -41 callgsubr
132 -571 rmoveto
-45 callgsubr
                </CharString>
                <CharString name="zero">
                    -12 66 512 66 hstem
60 79 298 79 vstem
60 218 rmoveto
-153 84 callsubr
217 151 84 callgsubr
-217 vhcurveto
268 348 rmoveto
63 40 -48 -97 6 hvcurveto
-298 -154 rlineto
152 12 75 147 102 hhcurveto
-80 -512 rmoveto
-64 -40 49 98 -5 hvcurveto
298 155 rlineto
-153 -11 -75 -149 -103 hhcurveto
endchar
                </CharString>
                <CharString name="zero.alt">
                    -12 68 508 68 hstem
60 77 302 77 vstem
60 220 rmoveto
-155 84 callsubr
215 153 84 callgsubr
-215 vhcurveto
77 7 rmoveto
166 80 171 112 68 42 -56 -115 -166 -80 -171 -112 -68 -42 55 116 vhcurveto
endchar
                </CharString>
                <CharString name="zero.den">
                    -220 59 callgsubr
64 58 callgsubr
64 -63 -82 callgsubr
                </CharString>
                <CharString name="zero.inf">
                    -160 59 callgsubr
76 58 callgsubr
76 -3 -82 callgsubr
                </CharString>
                <CharString name="zero.num">
                    415 59 callgsubr
176 58 callgsubr
176 572 -82 callgsubr
                </CharString>
                <CharString name="zero.small">
                    -10 59 callgsubr
99 58 callgsubr
99 147 -82 callgsubr
                </CharString>
                <CharString name="zero.sup">
                    321 59 callgsubr
158 58 callgsubr
158 478 -82 callgsubr
                </CharString>
                <CharString name="less_exclam_hyphen_hyphen.liga">
                    0 110 148 69 hstemhm
-1562 424 202 245 hintmask 11100000
-857 233 rmoveto
52 hlineto
hintmask 11110000
19 89 73 261 22 93 rrcurveto
-102 hlineto
-16 -93 -31 -261 -17 -89 rrcurveto
-281 305 rmoveto
-34 61 -378 -263 -12 -67 279 -288 54 53 -222 224 rlineto
381 hlineto
19 69 rlineto
-393 hlineto
876 hmoveto
-13 -69 rlineto
1011 hlineto
19 69 rlineto
-1385 -327 rmoveto
108 hlineto
22 110 rlineto
-107 hlineto
endchar
                </CharString>
                <CharString name="equal_equal_equal.liga">
                    40 69 153 69 153 69 hstem
-1022 1494 cntrmask 11100000
557 484 rmoveto
15 69 rlineto
-1494 hlineto
-14 -69 rlineto
1450 -222 rmoveto
15 69 rlineto
-1494 hlineto
-14 -69 rlineto
1450 -222 rmoveto
14 69 rlineto
-1494 hlineto
-13 -69 rlineto
endchar
                </CharString>
                <CharString name="equal_equal_greater.liga">
                    151 69 153 69 hstem
-1022 394 691 424 vstem
208 599 rmoveto
-54 -53 103 -104 rlineto
-1222 hlineto
-14 -69 rlineto
1305 hlineto
83 -84 -2 -9 -87 -60 rlineto
-1329 hlineto
-13 -69 rlineto
1243 hlineto
-158 -109 34 -61 378 263 12 68 rlineto
endchar
                </CharString>
                <CharString name="equal_less_less.liga">
                    151 69 153 69 hstemhm
-1022 1486 -686 424 -114 424 hintmask 11001000
-142 301 rmoveto
hintmask 11010000
344 237 -34 61 -226 -157 rlineto
-907 hlineto
-14 -69 rlineto
822 hlineto
-53 -37 -12 -67 47 -49 rlineto
-834 hlineto
hintmask 11100000
-13 -69 rlineto
914 hlineto
165 -170 54 53 -255 257 rlineto
312 10 rmoveto
hintmask 11001000
344 237 -34 61 -378 -263 -12 -67 279 -288 54 53 -255 257 rlineto
endchar
                </CharString>
                <CharString name="exclam_equal_equal.liga">
                    -185 917 -691 70 156 70 156 70 hstemhm
-987 1522 -1113 689 cntrmask 01110000
hintmask 01111000
592 493 rmoveto
15 70 rlineto
-604 hlineto
95 139 rlineto
hintmask 10001000
-63 29 rlineto
hintmask 01111000
-115 -168 rlineto
-807 hlineto
-14 -70 rlineto
773 hlineto
-107 -156 rlineto
-695 hlineto
-14 -70 rlineto
662 hlineto
-107 -156 rlineto
-585 hlineto
-13 -70 rlineto
550 hlineto
hintmask 01110100
-141 -206 rlineto
hintmask 10000100
70 -20 rlineto
hintmask 01110100
154 226 rlineto
860 hlineto
14 70 rlineto
-826 hlineto
107 156 rlineto
748 hlineto
15 70 rlineto
-715 hlineto
106 156 rlineto
endchar
                </CharString>
                <CharString name="greater_equal_greater.liga">
                    151 69 153 69 hstemhm
-1037 424 -400 1478 -402 424 hintmask 11010000
208 599 rmoveto
-54 -53 103 -104 rlineto
-996 hlineto
-153 157 -54 -53 255 -257 -2 -9 rlineto
hintmask 11100000
-344 -238 34 -61 244 170 rlineto
980 hlineto
hintmask 11001000
-158 -109 34 -61 378 263 12 68 rlineto
-80 -32 rmoveto
-87 -60 rlineto
-979 hlineto
34 24 rlineto
hintmask 11100000
12 68 -59 61 rlineto
998 hlineto
83 -84 rlineto
endchar
                </CharString>
                <CharString name="greater_greater_equal.liga">
                    151 69 153 69 hstemhm
-1037 424 -400 1485 -1199 424 hintmask 11100000
-613 312 rmoveto
-279 287 -54 -53 255 -257 -2 -9 -344 -238 34 -61 378 263 rlineto
1154 198 rmoveto
-958 hlineto
-153 157 -54 -53 255 -257 -2 -9 rlineto
hintmask 11001000
-344 -238 34 -61 244 170 rlineto
hintmask 11010000
920 hlineto
14 69 rlineto
-834 hlineto
34 24 rlineto
hintmask 11001000
12 68 -59 61 rlineto
876 hlineto
endchar
                </CharString>
                <CharString name="hyphen_hyphen_greater.liga">
                    258 69 hstemhm
-981 1446 -402 424 hintmask 11000000
208 599 rmoveto
-54 -53 217 -219 rlineto
-1339 hlineto
-13 -69 rlineto
1356 hlineto
hintmask 10100000
-312 -216 34 -61 378 263 12 68 rlineto
endchar
                </CharString>
                <CharString name="less_equal_equal.liga">
                    151 69 153 69 hstemhm
-1014 1486 -1484 424 hintmask 11100000
-827 373 rmoveto
1341 hlineto
15 69 rlineto
-1256 hlineto
hintmask 11010000
139 96 -34 61 -378 -263 -12 -67 279 -288 54 53 -116 117 rlineto
hintmask 11100000
1266 hlineto
14 69 rlineto
-1349 hlineto
-70 71 2 10 rlineto
endchar
                </CharString>
                <CharString name="less_equal_greater.liga">
                    151 69 153 69 hstemhm
-1014 1479 -1477 424 651 424 hintmask 11100000
208 599 rmoveto
-54 -53 103 -104 rlineto
-984 hlineto
hintmask 11010000
139 96 -34 61 -378 -263 -12 -67 279 -288 54 53 -116 117 rlineto
1016 hlineto
hintmask 11001000
-158 -109 34 -61 378 263 12 68 rlineto
-80 -32 rmoveto
-87 -60 rlineto
-1184 hlineto
-70 71 2 10 105 72 rlineto
1153 hlineto
83 -84 rlineto
endchar
                </CharString>
                <CharString name="less_equal_less.liga">
                    151 69 153 69 hstem
-1012 424 676 424 vstem
168 301 rmoveto
344 237 -34 61 -226 -157 rlineto
-979 hlineto
139 96 -34 61 -378 -263 -12 -67 279 -288 54 53 -116 117 rlineto
997 hlineto
165 -170 54 53 -255 257 rlineto
-1030 -71 rmoveto
-70 71 2 10 105 72 rlineto
980 hlineto
-53 -37 -12 -67 47 -49 rlineto
endchar
                </CharString>
                <CharString name="less_hyphen_greater.liga">
                    258 69 hstemhm
-1014 1503 -1501 424 651 424 hintmask 11000000
208 599 rmoveto
-54 -53 217 -219 rlineto
-1265 hlineto
hintmask 10100000
306 211 -34 61 -378 -263 -12 -67 279 -288 54 53 -222 224 rlineto
1276 hlineto
hintmask 10010000
-312 -216 34 -61 378 263 12 68 rlineto
endchar
                </CharString>
                <CharString name="less_hyphen_hyphen.liga">
                    258 69 hstemhm
-1014 1450 -1448 424 hintmask 11000000
449 327 rmoveto
-1343 hlineto
hintmask 10100000
306 211 -34 61 -378 -263 -12 -67 279 -288 54 53 -222 224 rlineto
1331 hlineto
endchar
                </CharString>
                <CharString name="ampersand_ampersand.liga">
                    -10 71 hstem
-411 76 132 73 149 76 132 73 vstem
523 350 rmoveto
-66 24 -30 -59 -30 -50 -30 -42 rlinecurve
-37 63 -22 63 -8 65 rrcurveto
60 60 35 65 49 vvcurveto
33 -22 19 -32 -51 -63 -97 -107 vhcurveto
-7 vlineto
-128 -109 -80 -109 -100 vvcurveto
-17 19 -15 20 -14 20 40 50 40 60 40 70 -66 24 rcurveline
-30 -59 -30 -50 -30 -42 -37 63 -22 63 -8 65 rrcurveto
60 60 35 65 49 vvcurveto
33 -22 19 -32 -51 -63 -97 -107 vhcurveto
-7 vlineto
-128 -109 -80 -109 -100 vvcurveto
-75 41 -46 74 64 75 41 78 77 vhcurveto
26 -37 75 -60 77 -17 rrcurveto
-3 11 14 -2 14 hhcurveto
64 72 41 78 77 hvcurveto
31 -43 37 -43 41 -42 63 51 rcurveline
-47 47 -40 45 -32 46 40 50 40 60 40 70 rrcurveto
-796 -289 rmoveto
-38 -24 24 43 69 58 80 82 80 hvcurveto
12 -66 28 -66 41 -66 rrcurveto
-67 -61 -56 -31 -42 hhcurveto
430 hmoveto
-38 -24 24 43 69 58 80 82 80 hvcurveto
12 -66 28 -66 41 -66 rrcurveto
-67 -61 -56 -31 -42 hhcurveto
endchar
                </CharString>
                <CharString name="bar_bar.liga">
                    -298 247 103 247 vstem
-51 707 rmoveto
-74 -2 -173 -886 rlineto
74 hlineto
523 888 rmoveto
-74 -2 -173 -886 rlineto
74 hlineto
endchar
                </CharString>
                <CharString name="bar_greater.liga">
                    -261 75 468 74 vstem
-13 710 rmoveto
-76 -6 -172 -886 rlineto
75 hlineto
627 440 13 69 rlineto
-82 -40 rmoveto
-540 -376 137 709 405 -323 rlineto
endchar
                </CharString>
                <CharString name="colon_equal.liga">
                    151 69 153 69 hstem
-253 618 vstem
-253 354 rmoveto
118 hlineto
25 117 rlineto
-119 hlineto
638 -98 rmoveto
14 69 rlineto
-424 hlineto
-13 -69 rlineto
-283 -245 rmoveto
118 hlineto
25 117 rlineto
-119 hlineto
638 -94 rmoveto
15 69 rlineto
-424 hlineto
-14 -69 rlineto
endchar
                </CharString>
                <CharString name="equal_equal.liga">
                    151 69 153 69 hstem
-472 944 vstem
514 373 rmoveto
15 69 rlineto
-944 hlineto
-14 -69 rlineto
900 -222 rmoveto
14 69 rlineto
-944 hlineto
-13 -69 rlineto
endchar
                </CharString>
                <CharString name="equal_greater.liga">
                    151 69 153 69 hstemhm
-472 937 -402 424 hintmask 11100000
208 599 rmoveto
-54 -53 103 -104 rlineto
-672 hlineto
-14 -69 rlineto
755 hlineto
83 -84 -2 -9 -87 -60 rlineto
-779 hlineto
-13 -69 rlineto
693 hlineto
hintmask 11010000
-158 -109 34 -61 378 263 12 68 rlineto
endchar
                </CharString>
                <CharString name="exclam_equal.liga">
                    -185 917 -578 70 156 70 hstemhm
-328 689 hintmask 00110000
549 380 rmoveto
15 70 rlineto
-388 hlineto
172 252 rlineto
hintmask 10010000
-63 29 rlineto
hintmask 00110000
-192 -281 rlineto
-473 hlineto
-14 -70 rlineto
439 hlineto
hintmask 01010000
-107 -156 rlineto
-362 hlineto
-13 -70 rlineto
327 hlineto
-218 -319 rlineto
hintmask 10010000
70 -20 rlineto
hintmask 01010000
232 339 rlineto
532 hlineto
14 70 rlineto
-499 hlineto
hintmask 00110000
107 156 rlineto
endchar
                </CharString>
                <CharString name="greater_equal.liga">
                    138 77 103 69 hstem
-261 639 vstem
-261 95 rmoveto
19 -64 640 287 13 69 -519 280 -50 -63 464 -247 -2 -10 rlineto
59 -209 rmoveto
15 77 -674 -300 19 -64 rlineto
endchar
                </CharString>
                <CharString name="hyphen_greater.liga">
                    258 69 hstemhm
-431 896 -402 424 hintmask 11000000
208 599 rmoveto
-54 -53 217 -219 rlineto
-789 hlineto
-13 -69 rlineto
806 hlineto
hintmask 10100000
-312 -216 34 -61 378 263 12 68 rlineto
endchar
                </CharString>
                <CharString name="hyphen_hyphen.liga">
                    259 68 hstem
-337 310 70 310 vstem
-39 259 rmoveto
12 68 rlineto
-297 hlineto
-13 -68 rlineto
678 hmoveto
12 68 rlineto
-297 hlineto
-13 -68 rlineto
endchar
                </CharString>
                <CharString name="less_bar.liga">
                    -354 75 450 75 vstem
341 704 rmoveto
-596 -378 -14 -69 438 -439 rlineto
75 hlineto
173 892 rlineto
-229 -797 rmoveto
-376 374 2 10 510 317 rlineto
endchar
                </CharString>
                <CharString name="less_equal.liga">
                    138 77 103 69 hstem
-247 606 vstem
359 95 rmoveto
-467 252 2 10 560 247 -24 63 -629 -280 -13 -69 528 -287 rlineto
-563 107 rmoveto
528 -287 43 64 -556 300 rlineto
endchar
                </CharString>
                <CharString name="less_hyphen.liga">
                    258 69 hstemhm
-464 900 -898 424 hintmask 11000000
449 327 rmoveto
-793 hlineto
hintmask 10100000
306 211 -34 61 -378 -263 -12 -67 279 -288 54 53 -222 224 rlineto
781 hlineto
endchar
                </CharString>
                <CharString name="less_slash.liga">
                    -182 900 hstemhm
-462 424 -252 676 hintmask 10100000
323 718 rmoveto
-466 -670 -241 243 2 10 rlineto
hintmask 11000000
344 237 -34 61 -378 -263 -12 -67 275 -284 rlineto
hintmask 10100000
-103 -147 70 -20 606 871 rlineto
endchar
                </CharString>
                <CharString name="plus_plus.liga">
                    259 67 hstem
-3 448 vstem
263 326 rmoveto
36 187 rlineto
-71 hlineto
-36 -187 rlineto
-354 hlineto
36 187 rlineto
-71 hlineto
-36 -187 rlineto
-182 hlineto
-13 -67 rlineto
182 hlineto
-37 -188 rlineto
71 hlineto
37 188 rlineto
354 hlineto
-37 -188 rlineto
71 hlineto
37 188 rlineto
181 hlineto
14 67 rlineto
endchar
                </CharString>
                <CharString name="question_question.liga">
                    0 109 hstem
-53 89 291 89 vstem
-324 679 rmoveto
-16 -79 rlineto
190 -22 97 -30 -73 vvcurveto
-57 -58 -54 -176 -91 vhcurveto
25 -43 rlineto
215 108 83 81 84 vvcurveto
95 -116 55 -244 26 vhcurveto
380 hmoveto
-16 -79 rlineto
190 -22 97 -30 -73 vvcurveto
-57 -58 -54 -176 -91 vhcurveto
25 -43 rlineto
215 108 83 81 84 vvcurveto
95 -116 55 -244 26 vhcurveto
-418 -679 rmoveto
107 hlineto
22 109 rlineto
-107 hlineto
358 -109 rmoveto
107 hlineto
22 109 rlineto
-107 hlineto
endchar
                </CharString>
                <CharString name="slash_greater.liga">
                    -182 900 hstemhm
-406 676 -207 424 hintmask 11000000
208 599 rmoveto
-2 -2 64 92 -63 29 -613 -880 70 -20 500 718 245 -247 -2 -9 rlineto
hintmask 10100000
-344 -238 34 -61 378 263 12 68 rlineto
endchar
                </CharString>
                <CharString name="underscore_underscore.liga">
                    -112 62 hstem
-620 1131 vstem
511 -50 rmoveto
-1120 hlineto
-11 -62 rlineto
1119 hlineto
endchar
                </CharString>
                <CharString name="LIG">
                    endchar
                </CharString>
                <CharString name="uniE0A0">
                    -59 53 160 104 264 54 53 53 hstemhm
6 53 0 105 0 53 106 53 0 105 0 53 hintmask 1111010101000000
428 576 rmoveto
-58 -47 -47 -60 hvcurveto
hintmask 1111010010000000
-38 22 -34 31 -18 vhcurveto
-15 vlineto
-53 -53 -53 -53 -44 -34 -9 -15 -28 vhcurveto
251 vlineto
hintmask 1111101101000000
31 17 22 34 40 vvcurveto
58 -47 48 -58 -60 -46 -48 -58 vhcurveto
hintmask 1111010101000000
-40 21 -34 32 -17 vhcurveto
-347 vlineto
hintmask 1111101010000000
-32 -17 -21 -34 -40 vvcurveto
-58 46 -48 60 58 47 48 58 29 -11 25 -17 19 vhcurveto
18 16 24 16 41 hhcurveto
106 105 105 106 hvcurveto
14 vlineto
hintmask 1111010101000000
32 19 21 34 38 vvcurveto
59 -46 47 -60 vhcurveto
hintmask 1111101101000000
-316 53 rmoveto
28 24 -24 -29 -30 -24 -24 -28 -30 -23 24 30 29 23 24 30 hvcurveto
316 -212 rmoveto
-28 -24 24 28 30 24 23 28 30 23 -23 -30 -28 -23 -24 -30 hvcurveto
-316 -423 rmoveto
-30 -23 23 30 29 23 24 30 28 24 -24 -29 -30 -24 -23 -28 hvcurveto
endchar
                </CharString>
                <CharString name="uniE0B0">
                    -205 1099 hstem
-20 629 vstem
609 313 rmoveto
-627 581 -2 -1099 rlineto
endchar
                </CharString>
                <CharString name="uniE0B2">
                    -205 1099 hstem
-20 629 vstem
-20 313 rmoveto
629 -518 -2 1099 rlineto
endchar
                </CharString>
            <CharString index="0">
                rmoveto
16 -35 75 32 113 58 67 51 rlinecurve
-55 63 -57 -56 -94 -74 -65 -39 rlinecurve
return
            </CharString>
            <CharString index="1">
                rmoveto
49 -45 44 -139 24 vhcurveto
24 98 32 callgsubr
16 54 rlineto
-242 hlineto
-46 -191 rlineto
143 -20 46 -30 -35 vvcurveto
-38 -52 -39 -179 15 vhcurveto
-7 -58 rlineto
221 -16 79 72 71 vvcurveto
return
            </CharString>
            <CharString index="2">
                rmoveto
-129 70 -70 109 -31 callgsubr
129 -72 71 -108 -31 callsubr
vhcurveto
363 103 rmoveto
-127 -70 -110 -101 -72 -41 53 92 126 69 112 102 72 41 -54 -92 vhcurveto
endchar
            </CharString>
            <CharString index="3">
                -100 callsubr
320 -26 rmoveto
-38 callgsubr
return
            </CharString>
            <CharString index="4">
                -69 callsubr
7 callgsubr
vhcurveto
-52 callsubr
-15 callgsubr
-68 callgsubr
return
            </CharString>
            <CharString index="5">
                rmoveto
-69 -56 -43 -40 -52 hhcurveto
-49 -32 32 82 -34 hvcurveto
-60 -31 rlineto
-99 38 53 -47 68 hhcurveto
71 72 53 91 69 hvcurveto
return
            </CharString>
            <CharString index="6">
                -36 callsubr
hintmask 10101110
-77 callgsubr
hintmask 10011110
-85 callgsubr
hintmask 01011110
-37 callsubr
            </CharString>
            <CharString index="7">
                13 54 rlineto
-112 hlineto
71 358 -64 -6 -12 -60 -124 -16 -8 -47 121 7 -46 -236 rlineto
-123 hlineto
-11 -54 rlineto
return
            </CharString>
            <CharString index="8">
                -291 hlineto
42 214 rlineto
244 hlineto
12 61 rlineto
-244 hlineto
40 207 rlineto
288 hlineto
14 69 rlineto
-370 -30 callgsubr
return
            </CharString>
            <CharString index="9">
                rmoveto
-82 callsubr
-44 callsubr
-16 -81 rlineto
59 hlineto
16 81 rlineto
return
            </CharString>
            <CharString index="10">
                -75 callgsubr
hintmask 01110110
-76 callgsubr
hintmask 10101110
-3 callsubr
            </CharString>
            <CharString index="11">
                12 55 rlineto
-203 hlineto
149 91 83 66 82 vvcurveto
81 -83 42 -166 -25 vhcurveto
-9 -56 rlineto
142 19 48 -27 -49 vvcurveto
-67 -97 -64 -161 -98 vhcurveto
1 -50 rlineto
return
            </CharString>
            <CharString index="12">
                -104 callgsubr
hintmask 10111000
32 callsubr
hintmask 11011000
-98 callsubr
            </CharString>
            <CharString index="13">
                rmoveto
-9 43 -202 -51 -26 19 23 90 rlinecurve
90 344 -49 callgsubr
-38 -143 84 -46 247 101 rlinecurve
endchar
            </CharString>
            <CharString index="14">
                -98 callgsubr
endchar
            </CharString>
            <CharString index="15">
                rmoveto
31 -16 70 63 36 74 3 70 rlinecurve
-102 -3 10 -58 -4 -62 -44 -68 rlinecurve
endchar
            </CharString>
            <CharString index="16">
                rmoveto
43 -40 40 -111 26 vhcurveto
181 120 6 54 rlineto
-259 hlineto
-11 -54 rlineto
50 callsubr
-184 -122 return
            </CharString>
            <CharString index="17">
                rmoveto
hintmask 00111100
-65 callgsubr
hintmask 01011100
-85 callsubr
hintmask 10011100
-14 callgsubr
hintmask 00111100
-84 callgsubr
            </CharString>
            <CharString index="18">
                -36 callsubr
hintmask 10101100
-77 callgsubr
hintmask 10011100
-85 callgsubr
hintmask 01011100
-37 callsubr
            </CharString>
            <CharString index="19">
                -87 callgsubr
-7 -57 rlineto
-14 callsubr
endchar
            </CharString>
            <CharString index="20">
                -91 callgsubr
-73 callsubr
return
            </CharString>
            <CharString index="21">
                rmoveto
-57 44 -80 79 -50 59 -53 -62 rcurveline
58 -53 99 -67 63 -33 rrcurveto
return
            </CharString>
            <CharString index="22">
                -80 callgsubr
59 59 39 76 66 hvcurveto
return
            </CharString>
            <CharString index="23">
                -53 554 -83 callgsubr
            </CharString>
            <CharString index="24">
                rmoveto
7 hlineto
10 -99 9 -101 8 -100 rrcurveto
-177 hlineto
47 100 47 101 49 99 rrcurveto
endchar
            </CharString>
            <CharString index="25">
                rmoveto
-100 52 -57 78 111 88 121 135 101 -51 57 -79 -111 -88 -121 -136 vhcurveto
266 94 rmoveto
-99 -52 -98 -75 -47 -29 37 71 99 51 99 75 48 29 -37 -72 vhcurveto
endchar
            </CharString>
            <CharString index="26">
                -48 callsubr
-81 callsubr
return
            </CharString>
            <CharString index="27">
                70 312 -78 -5 -75 -123 43 -26 -37 -166 rlineto
-126 -29 37 -58 73 hhcurveto
return
            </CharString>
            <CharString index="28">
                -94 62 -46 79 vhcurveto
10 49 rmoveto
-47 -43 27 73 6 0 7 1 7 hvcurveto
89 66 88 -31 -71 vvcurveto
-47 -33 -37 -55 vhcurveto
endchar
            </CharString>
            <CharString index="29">
                rmoveto
51 32 -27 -40 -82 -110 -45 -170 -12 hvcurveto
104 17 74 102 106 hhcurveto
endchar
            </CharString>
            <CharString index="30">
                -42 callsubr
-50 callgsubr
return
            </CharString>
            <CharString index="31">
                -61 -31 65 328 118 hvcurveto
-76 -2 rlineto
-371 -139 56 -91 93 hhcurveto
69 75 50 61 56 hvcurveto
2 -110 11 -74 -24 -25 -21 -20 -78 -18 -188 16 rrcurveto
return
            </CharString>
            <CharString index="32">
                rmoveto
27 53 -16 91 114 vvcurveto
10 0 9 1 9 vhcurveto
50 98 38 134 37 vvcurveto
16 -33 10 -21 -30 -62 -164 -136 -9 vhcurveto
-62 -55 -63 -39 -43 hhcurveto
return
            </CharString>
            <CharString index="33">
                rmoveto
83 352 -77 -3 -37 -164 rlineto
-147 -49 -79 54 151 vvcurveto
159 89 170 119 68 13 -55 -104 -3 vhcurveto
76 hlineto
157 7 -38 74 -110 hhcurveto
-165 -138 -199 -215 hvcurveto
return
            </CharString>
            <CharString index="34">
                -151 -331 rlineto
-4 hlineto
5 62 47 328 19 125 rrcurveto
-80 hlineto
-39 -266 -24 -236 -5 -118 rrcurveto
85 hlineto
149 327 rlineto
endchar
            </CharString>
            <CharString index="35">
                -43 -23 103 -67 hhcurveto
-50 -51 -48 -85 -49 hvcurveto
40 -23 rlineto
58 37 30 37 27 43 23 -102 67 hhcurveto
return
            </CharString>
            <CharString index="36">
                -62 callsubr
-1 callgsubr
rlinecurve
return
            </CharString>
            <CharString index="37">
                -81 callgsubr
hintmask 01011111
-2 callgsubr
hintmask 00111111
-8 -76 rlineto
hintmask 10011111
14 callsubr
            </CharString>
            <CharString index="38">
                93 82 -13 60 -56 hhcurveto
-50 -54 -58 -60 -15 2 -14 4 -14 hvcurveto
-34 -37 -52 -41 -84 -58 21 -36 rcurveline
72 43 57 41 43 37 rrcurveto
return
            </CharString>
            <CharString index="39">
                -51 564 rmoveto
28 19 -20 -40 -82 -69 -125 -186 -146 hvcurveto
219 8 116 194 84 hhcurveto
return
            </CharString>
            <CharString index="40">
                rmoveto
434 hlineto
10 52 rlineto
-433 hlineto
return
            </CharString>
            <CharString index="41">
                rmoveto
-59 callsubr
hintmask 01111000
-16 -80 rlineto
hintmask 10111000
-38 callsubr
endchar
            </CharString>
            <CharString index="42">
                80 6 -39 callsubr
rlinecurve
-114 hlineto
return
            </CharString>
            <CharString index="43">
                86 hlineto
39 117 67 236 64 267 rrcurveto
-78 hlineto
-29 -125 -80 -328 -19 -62 rrcurveto
-3 hlineto
-23 331 rlineto
-49 hlineto
return
            </CharString>
            <CharString index="44">
                rmoveto
40 133 -90 -2 -31 -132 rlineto
return
            </CharString>
            <CharString index="45">
                -102 116 -54 -42 140 -150 rlineto
return
            </CharString>
            <CharString index="46">
                rmoveto
hintmask 00111000
-29 callsubr
hintmask 01011000
-47 callgsubr
endchar
            </CharString>
            <CharString index="47">
                rmoveto
-8 41 -209 -71 -34 38 25 109 rlinecurve
58 258 rlineto
191 hlineto
12 61 rlineto
-189 hlineto
32 143 -60 -5 -77 -138 rlineto
-63 hlineto
-16 -61 rlineto
93 hlineto
-58 -262 -37 -160 85 -82 255 129 rlinecurve
return
            </CharString>
            <CharString index="48">
                -103 callsubr
5 callsubr
return
            </CharString>
            <CharString index="49">
                -56 callsubr
hintmask 10011110
-3 -892 -90 callsubr
            </CharString>
            <CharString index="50">
                -98 -19 -46 -45 -72 hhcurveto
-81 -35 50 114 23 hvcurveto
return
            </CharString>
            <CharString index="51">
                21 60 59 63 142 33 -14 53 93 callsubr
-54 -72 -116 -106 vvcurveto
return
            </CharString>
            <CharString index="52">
                rmoveto
34 60 rlineto
-146 63 -64 42 47 65 116 36 73 vvcurveto
34 -23 32 -67 20 vhcurveto
hintmask 10100100
91 22 37 47 40 vvcurveto
hintmask 10110000
49 -66 60 45 vvcurveto
49 79 41 194 38 vhcurveto
-14 67 rlineto
-250 -60 -82 -74 -71 vvcurveto
hintmask 01110000
-62 66 -54 -41 vvcurveto
hintmask 01100100
-31 -35 -30 -128 -8 vhcurveto
-11 -56 rlineto
hintmask 01101000
92 -11 42 -24 -34 -54 -121 -35 -88 vvcurveto
hintmask 10101000
-64 72 -52 184 -81 vhcurveto
endchar
            </CharString>
            <CharString index="53">
                463 65 -103 callgsubr
return
            </CharString>
            <CharString index="54">
                53 230 rmoveto
47 32 37 56 47 43 -27 -73 -6 0 -7 -1 -7 vhcurveto
-89 -66 -88 32 70 vvcurveto
endchar
            </CharString>
            <CharString index="55">
                14 69 40 199 11 62 rrcurveto
65 64 58 33 42 hhcurveto
34 16 -20 -37 hvcurveto
-81 -65 -163 -77 vvcurveto
return
            </CharString>
            <CharString index="56">
                -50 callsubr
hstem
return
            </CharString>
            <CharString index="57">
                -72 -62 -51 -36 -45 hhcurveto
-43 -19 33 85 19 hvcurveto
return
            </CharString>
            <CharString index="58">
                -69 1 -206 -51 5 -42 177 24 -76 -289 return
            </CharString>
            <CharString index="59">
                -19 callgsubr
hintmask 10101010
-27 callgsubr
hintmask 01011010
-43 callgsubr
hintmask 10101010
-52 callgsubr
hintmask 10011100
7 callsubr
return
            </CharString>
            <CharString index="60">
                40 callgsubr
80 hlineto
108 554 rlineto
136 16 67 -36 -69 vvcurveto
-70 -58 -52 -142 -63 vhcurveto
-1 -3 rlineto
return
            </CharString>
            <CharString index="61">
                rmoveto
-330 13 callgsubr
330 hlineto
return
            </CharString>
            <CharString index="62">
                19 69 -311 -2 372 357 13 66 rlineto
-384 hlineto
-19 -69 300 2 -372 -357 33 callsubr
endchar
            </CharString>
            <CharString index="63">
                51 50 52 84 49 hvcurveto
-40 24 rlineto
-58 -36 -31 -42 -27 hhcurveto
return
            </CharString>
            <CharString index="64">
                5 38 7 48 3 17 -76 -5 rcurveline
-22 -145 -22 -110 -45 -233 rrcurveto
76 hlineto
return
            </CharString>
            <CharString index="65">
                -98 -57 -21 -35 -38 vvcurveto
-54 52 -36 80 vhcurveto
return
            </CharString>
            <CharString index="66">
                rmoveto
41 132 -91 -41 callsubr
return
            </CharString>
            <CharString index="67">
                12 callsubr
hintmask 10111000
-87 callsubr
            </CharString>
            <CharString index="68">
                -21 24 -21 186 62 300 71 return
            </CharString>
            <CharString index="69">
                -8 40 -94 -35 -6 16 14 69 rlinecurve
return
            </CharString>
            <CharString index="70">
                -74 callgsubr
hintmask 01111100
4 callgsubr
endchar
            </CharString>
            <CharString index="71">
                139 -256 60 115 vvcurveto
56 48 48 68 67 38 -35 -82 14 vhcurveto
return
            </CharString>
            <CharString index="72">
                688 -96 callsubr
return
            </CharString>
            <CharString index="73">
                77 399 61 callgsubr
-78 -400 return
            </CharString>
            <CharString index="74">
                -67 callgsubr
285 -415 -104 callsubr
            </CharString>
            <CharString index="75">
                rmoveto
4 -75 -3 -69 -53 -90 34 -15 rcurveline
75 87 28 81 5 86 rrcurveto
return
            </CharString>
            <CharString index="76">
                148 116 139 174 return
            </CharString>
            <CharString index="77">
                hlineto
-23 callsubr
return
            </CharString>
            <CharString index="78">
                2 callsubr
57 callgsubr
hintmask 10101110
return
            </CharString>
            <CharString index="79">
                19 callsubr
-47 callsubr
return
            </CharString>
            <CharString index="80">
                -15 callsubr
-71 -38 -73 -70 vhcurveto
return
            </CharString>
            <CharString index="81">
                41 -38 146 85 rrcurveto
endchar
            </CharString>
            <CharString index="82">
                18 callgsubr
hintmask 01110000
40 callgsubr
hintmask 10110000
17 callgsubr
-81 -9 rmoveto
26 callgsubr
96 493 86 callgsubr
endchar
            </CharString>
            <CharString index="83">
                118 5 -42 49 -92 hhcurveto
-158 -136 -154 -171 return
            </CharString>
            <CharString index="84">
                715 -86 callgsubr
return
            </CharString>
            <CharString index="85">
                469 551 -106 callgsubr
return
            </CharString>
            <CharString index="86">
                -97 336 -83 -4 123 -409 -40 -209 rlineto
endchar
            </CharString>
            <CharString index="87">
                52 94 -51 callgsubr
return
            </CharString>
            <CharString index="88">
                rmoveto
-11 41 rlineto
-72 -29 -13 7 27 vvcurveto
return
            </CharString>
            <CharString index="89">
                0 69 214 61 207 69 return
            </CharString>
            <CharString index="90">
                -63 callgsubr
hintmask 11101000
-77 callsubr
return
            </CharString>
            <CharString index="91">
                68 vstem
446 425 -92 callsubr
return
            </CharString>
            <CharString index="92">
                24 -149 123 -14 186 111 rrcurveto
return
            </CharString>
            <CharString index="93">
                5 -64 4 -64 5 -64 rrcurveto
return
            </CharString>
            <CharString index="94">
                rmoveto
-268 -181 -106 -153 -167 vvcurveto
-123 61 -133 147 -162 vhcurveto
61 45 rlineto
-137 145 -55 118 111 vvcurveto
147 84 134 255 165 vhcurveto
endchar
            </CharString>
            <CharString index="95">
                121 620 rlineto
-76 hlineto
-91 -479 rlineto
-5 hlineto
return
            </CharString>
            <CharString index="96">
                hintmask 10011000
394 -6 rmoveto
hintmask 00111000
86 11 -178 306 281 309 rlineto
-88 hlineto
-282 -308 rlineto
-43 308 rmoveto
hintmask 01011000
58 callsubr
81 hlineto
121 620 rlineto
return
            </CharString>
            <CharString index="97">
                -44 -33 -33 -34 -30 hhcurveto
367 -7 rmoveto
-8 41 rlineto
-143 -68 -46 26 98 vvcurveto
11 0 11 1 11 vhcurveto
160 22 78 93 99 vvcurveto
59 -32 39 -59 -34 -32 -14 -23 -28 vhcurveto
return
            </CharString>
            <CharString index="98">
                0 8 -2 3 -4 -4 -2 -3 41 callgsubr
0 -9 2 -3 4 4 2 3 41 callgsubr
return
            </CharString>
            <CharString index="99">
                286 417 rlineto
-87 hlineto
-222 -334 rlineto
return
            </CharString>
            <CharString index="100">
                20 callgsubr
0 callsubr
return
            </CharString>
            <CharString index="101">
                -10 69 11 callsubr
return
            </CharString>
            <CharString index="102">
                -6 callgsubr
6 callgsubr
hintmask 11011000
return
            </CharString>
            <CharString index="103">
                -19 callsubr
0 callgsubr
return
            </CharString>
            <CharString index="104">
                vstem
446 hmoveto
-32 callsubr
return
            </CharString>
            <CharString index="105">
                2 -103 22 -74 -25 -24 -20 -21 -84 -19 -194 16 rrcurveto
return
            </CharString>
            <CharString index="106">
                -96 -108 -80 -114 -66 -113 return
            </CharString>
            <CharString index="107">
                hstem
62 76 284 75 vstem
return
            </CharString>
            <CharString index="108">
                49 callgsubr
92 callsubr
hintmask 10110000
return
            </CharString>
            <CharString index="109">
                -173 73 -73 79 -76 70 124 72 340 65 return
            </CharString>
            <CharString index="110">
                -2 callsubr
86 52 return
            </CharString>
            <CharString index="111">
                -183 109 -83 183 51 vhcurveto
-26 -114 rlineto
return
            </CharString>
            <CharString index="112">
                61 -4 59 113 59 return
            </CharString>
            <CharString index="113">
                78 callsubr
211 73 return
            </CharString>
            <CharString index="114">
                -141 -173 -256 -272 return
            </CharString>
            <CharString index="115">
                rmoveto
65 42 -133 213 216 212 -51 49 -210 -217 -18 -81 rlineto
367 -218 rmoveto
64 40 -130 216 return
            </CharString>
            <CharString index="116">
                11 callgsubr
173 83 hintmask 10111000
return
            </CharString>
            <CharString index="117">
                27 callsubr
53 callsubr
return
            </CharString>
            <CharString index="118">
                -8 72 -50 50 499 68 hstemhm
123 82 return
            </CharString>
            <CharString index="119">
                -135 -697 rlineto
77 hlineto
61 315 rlineto
75 74 69 39 49 hhcurveto
30 18 -15 -27 -42 -47 -63 -162 -84 hvcurveto
return
            </CharString>
            <CharString index="120">
                hlineto
33 callsubr
return
            </CharString>
            <CharString index="121">
                -190 -47 rmoveto
212 213 19 81 -129 220 -65 -40 131 -214 -218 -210 rlineto
endchar
            </CharString>
            <CharString index="122">
                7 callsubr
endchar
            </CharString>
            <CharString index="123">
                rmoveto
311 hlineto
13 64 rlineto
-234 hlineto
145 745 rlineto
233 hlineto
13 64 rlineto
-311 hlineto
endchar
            </CharString>
            <CharString index="124">
                332 -43 147 199 228 vvcurveto
return
            </CharString>
            <CharString index="125">
                rmoveto
194 -126 79 -233 -39 vhcurveto
return
            </CharString>
            <CharString index="126">
                -174 -138 -198 -212 return
            </CharString>
            <CharString index="127">
                -11 65 383 65 return
            </CharString>
            <CharString index="128">
                -12 70 504 70 return
            </CharString>
            <CharString index="129">
                rmoveto
278 218 20 81 -192 227 -57 -54 180 -208 -274 -204 rlineto
endchar
            </CharString>
            <CharString index="130">
                320 -25 rmoveto
-9 39 -95 -36 -6 16 14 72 rlinecurve
return
            </CharString>
            <CharString index="131">
                4 callsubr
490 vstem
return
            </CharString>
            <CharString index="132">
                -119 -149 -124 -147 -214 vhcurveto
49 9 rmoveto
177 98 130 119 93 71 return
            </CharString>
            <CharString index="133">
                -176 -99 -152 -206 17 vhcurveto
return
            </CharString>
            <CharString index="134">
                0 65 490 65 return
            </CharString>
            <CharString index="135">
                -10 69 431 -20 return
            </CharString>
            <CharString index="136">
                rmoveto
57 53 -180 208 274 204 -45 61 -278 -218 -21 -82 rlineto
endchar
            </CharString>
            <CharString index="137">
                -13 73 501 72 69 callsubr
return
            </CharString>
            <CharString index="138">
                0 98 -77 -21 489 -20 return
            </CharString>
            <CharString index="139">
                rlineto
181 hlineto
return
            </CharString>
            <CharString index="140">
                -51 callsubr
57 210 46 callsubr
hintmask 00111110
return
            </CharString>
            <CharString index="141">
                hhcurveto
61 10 -67 -91 -77 hvcurveto
33 -17 rlineto
136 131 -20 121 -109 hhcurveto
return
            </CharString>
            <CharString index="142">
                -7 67 hstemhm
236 149 1 77 hintmask 10100000
return
            </CharString>
            <CharString index="143">
                0 9 7 6 9 9 7 -6 41 callgsubr
return
            </CharString>
            <CharString index="144">
                6 callgsubr
hintmask 11011100
return
            </CharString>
            <CharString index="145">
                -167 71 callsubr
-103 -39 return
            </CharString>
            <CharString index="146">
                77 hstem
125 79 255 74 return
            </CharString>
            <CharString index="147">
                -120 -618 rlineto
return
            </CharString>
            <CharString index="148">
                0 hflex1
return
            </CharString>
            <CharString index="149">
                rmoveto
-32 15 -70 -62 -35 -75 -3 -69 rlinecurve
101 2 -10 58 4 62 45 69 rlinecurve
return
            </CharString>
            <CharString index="150">
                53 callgsubr
228 -20 hstemhm
50 78 212 75 return
            </CharString>
            <CharString index="151">
                135 59 156 77 20 24 -6 -21 28 vhcurveto
-47 -69 -30 -97 -98 vvcurveto
return
            </CharString>
            <CharString index="152">
                -18 callsubr
-130.5 return
            </CharString>
            <CharString index="153">
                71 563 -20 return
            </CharString>
            <CharString index="154">
                -13 69 -40 -21 569 69 -8 -20 hstemhm
62 83 300 83 hintmask 10101100
return
            </CharString>
            <CharString index="155">
                hhcurveto
39 31 -35 -75 -132 -79 -131 -101 hvcurveto
-146 -225 rmoveto
return
            </CharString>
            <CharString index="156">
                21 -21 620 86 callsubr
return
            </CharString>
            <CharString index="157">
                -41 149 76 vhcurveto
return
            </CharString>
            <CharString index="158">
                -2 23 hhcurveto
176 120 169 180 109 -48 55 -62 return
            </CharString>
            <CharString index="159">
                45 callgsubr
133.5 hstemhm
return
            </CharString>
            <CharString index="160">
                -10 73 -72 68 377 65 -6 -20 return
            </CharString>
            <CharString index="161">
                9 callsubr
56 callsubr
return
            </CharString>
            <CharString index="162">
                370 574 rmoveto
40 134 -90 -5 -31 -133 rlineto
return
            </CharString>
            <CharString index="163">
                -11 68 370 61 143 -20 return
            </CharString>
            <CharString index="164">
                hstemhm
69 80 218 68 return
            </CharString>
            <CharString index="165">
                63 203 63 vstem
return
            </CharString>
            <CharString index="166">
                54 306 54 hstem
return
            </CharString>
            <CharString index="167">
                49 156 43 return
            </CharString>
            <CharString index="168">
                rlineto
-81 hlineto
return
            </CharString>
            <CharString index="169">
                31 callgsubr
90 callsubr
hintmask 01110000
return
            </CharString>
            <CharString index="170">
                514 36 -19 callgsubr
return
            </CharString>
            <CharString index="171">
                -21 27 -21 return
            </CharString>
            <CharString index="172">
                -8 65 572 39 callgsubr
return
            </CharString>
            <CharString index="173">
                0 68 115 60 42 57 210 68 hstem
-21 return
            </CharString>
            <CharString index="174">
                64 329 rlineto
-65 hlineto
-94 -202 rlineto
-2 hlineto
return
            </CharString>
            <CharString index="175">
                703 -63 callgsubr
return
            </CharString>
            <CharString index="176">
                hintmask 100000000000000000000000000000001000000000000000
return
            </CharString>
            <CharString index="177">
                hstem
70 78 273 72 vstem
return
            </CharString>
            <CharString index="178">
                rlineto
399 hlineto
endchar
            </CharString>
            <CharString index="179">
                rlineto
145 return
            </CharString>
            <CharString index="180">
                86 rrcurveto
endchar
            </CharString>
            <CharString index="181">
                0 68 354 68 return
            </CharString>
            <CharString index="182">
                60 callsubr
vstem
return
            </CharString>
            <CharString index="183">
                59 178 61 vstem
return
            </CharString>
            <CharString index="184">
                0 105 515 -20 return
            </CharString>
            <CharString index="185">
                -7 -57 rlineto
return
            </CharString>
            <CharString index="186">
                -4 -124 rlinecurve
108 4 -13 116 return
            </CharString>
            <CharString index="187">
                241 55 rmoveto
-24 -36 6 11 -39 hvcurveto
return
            </CharString>
            <CharString index="188">
                21 -21 550 70 hstem
return
            </CharString>
            <CharString index="189">
                -20 21 -20 return
            </CharString>
            <CharString index="190">
                72 -35 76 -48 74 15 79 hintmask 10010100
return
            </CharString>
            <CharString index="191">
                -70 78 -104 -160 -122 -197 return
            </CharString>
            <CharString index="192">
                66 156 66 hstem
58 456 vstem
return
            </CharString>
            <CharString index="193">
                rlineto
137 15 72 -58 -139 vvcurveto
return
            </CharString>
            <CharString index="194">
                -155 -21 return
            </CharString>
            <CharString index="195">
                hstemhm
56 78 229 59 hintmask 10011111
return
            </CharString>
            <CharString index="196">
                104 112 104 vstem
return
            </CharString>
            <CharString index="197">
                hstem
31 488 vstem
return
            </CharString>
            <CharString index="198">
                -116 -17 -70 return
            </CharString>
            <CharString index="199">
                117 66 hstem
return
            </CharString>
            <CharString index="200">
                60 42 61 return
            </CharString>
            <CharString index="201">
                rlineto
76 hlineto
return
            </CharString>
</ttFont>
